<svg width="512" height="512" version="1.1" xmlns="http://www.w3.org/2000/svg" desc="Created with imagetracer.js version 1.2.6" ><path fill="#7fde30" stroke="#7fde30" stroke-width="1" opacity="0.7607843137254902" d="M 319.5 32 L 326 32.5 L 319.5 33 L 319.5 32 Z " /><path fill="#7fde30" stroke="#7fde30" stroke-width="1" opacity="0.7607843137254902" d="M 336.5 32 L 343 32.5 L 336.5 33 L 336.5 32 Z " /><path fill="#7fde30" stroke="#7fde30" stroke-width="1" opacity="0.7607843137254902" d="M 311.5 33 L 314 33.5 L 311.5 34 L 311.5 33 Z " /><path fill="#7fde30" stroke="#7fde30" stroke-width="1" opacity="0.7607843137254902" d="M 347.5 33 L 350 33.5 L 347.5 34 L 347.5 33 Z " /><path fill="#7fde30" stroke="#7fde30" stroke-width="1" opacity="0.7607843137254902" d="M 385.5 45 L 386.5 47 L 385.5 45 Z " /><path fill="#7fde30" stroke="#7fde30" stroke-width="1" opacity="0.7607843137254902" d="M 270.5 48 L 269.5 50 L 270.5 48 Z " /><path fill="#7fde30" stroke="#7fde30" stroke-width="1" opacity="0.7607843137254902" d="M 392.5 49 L 393.5 51 L 392.5 49 Z " /><path fill="#7fde30" stroke="#7fde30" stroke-width="1" opacity="0.7607843137254902" d="M 267.5 50 L 266.5 52 L 267.5 50 Z " /><path fill="#7fde30" stroke="#7fde30" stroke-width="1" opacity="0.7607843137254902" d="M 395.5 51 L 396.5 53 L 395.5 51 Z " /><path fill="#7fde30" stroke="#7fde30" stroke-width="1" opacity="0.7607843137254902" d="M 264.5 52 L 263.5 54 L 264.5 52 Z " /><path fill="#7fde30" stroke="#7fde30" stroke-width="1" opacity="0.7607843137254902" d="M 320.5 53 L 329 53.5 L 320.5 54 L 320.5 53 Z " /><path fill="#7fde30" stroke="#7fde30" stroke-width="1" opacity="0.7607843137254902" d="M 332.5 53 L 340 53.5 L 332.5 54 L 332.5 53 Z " /><path fill="#7fde30" stroke="#7fde30" stroke-width="1" opacity="0.7607843137254902" d="M 398.5 53 L 400.5 56 L 398.5 53 Z " /><path fill="#7fde30" stroke="#7fde30" stroke-width="1" opacity="0.7607843137254902" d="M 261.5 54 L 260.5 56 L 261.5 54 Z " /><path fill="#7fde30" stroke="#7fde30" stroke-width="1" opacity="0.7607843137254902" d="M 345.5 54 L 348 54.5 L 345.5 55 L 345.5 54 Z " /><path fill="#7fde30" stroke="#7fde30" stroke-width="1" opacity="0.7607843137254902" d="M 350.5 55 L 353 55.5 L 350.5 56 L 350.5 55 Z " /><path fill="#7fde30" stroke="#7fde30" stroke-width="1" opacity="0.7607843137254902" d="M 402.5 56 L 404.5 59 L 402.5 56 Z " /><path fill="#7fde30" stroke="#7fde30" stroke-width="1" opacity="0.7607843137254902" d="M 257.5 57 L 254.5 61 L 257.5 57 Z " /><path fill="#7fde30" stroke="#7fde30" stroke-width="1" opacity="0.7607843137254902" d="M 408.5 61 L 418.5 72 L 408.5 61 Z " /><path fill="#7fde30" stroke="#7fde30" stroke-width="1" opacity="0.7607843137254902" d="M 249.5 64 L 246.5 68 L 249.5 64 Z " /><path fill="#7fde30" stroke="#7fde30" stroke-width="1" opacity="0.7607843137254902" d="M 281.5 66 L 280.5 68 L 281.5 66 Z " /><path fill="#7fde30" stroke="#7fde30" stroke-width="1" opacity="0.7607843137254902" d="M 278.5 68 L 277.5 70 L 278.5 68 Z " /><path fill="#7fde30" stroke="#7fde30" stroke-width="1" opacity="0.7607843137254902" d="M 384.5 69 L 385.5 71 L 384.5 69 Z " /><path fill="#7fde30" stroke="#7fde30" stroke-width="1" opacity="0.7607843137254902" d="M 275.5 70 L 274.5 72 L 275.5 70 Z " /><path fill="#7fde30" stroke="#7fde30" stroke-width="1" opacity="0.7607843137254902" d="M 388.5 72 L 389.5 74 L 388.5 72 Z " /><path fill="#7fde30" stroke="#7fde30" stroke-width="1" opacity="0.7607843137254902" d="M 241.5 73 L 239.5 76 L 241.5 73 Z " /><path fill="#7fde30" stroke="#7fde30" stroke-width="1" opacity="0.7607843137254902" d="M 271.5 73 L 270.5 75 L 271.5 73 Z " /><path fill="#7fde30" stroke="#7fde30" stroke-width="1" opacity="0.7607843137254902" d="M 421.5 75 L 423.5 78 L 421.5 75 Z " /><path fill="#7fde30" stroke="#7fde30" stroke-width="1" opacity="0.7607843137254902" d="M 336.5 76 L 339.5 80 L 336.5 76 Z " /><path fill="#7fde30" stroke="#7fde30" stroke-width="1" opacity="0.7607843137254902" d="M 393.5 76 L 404.5 88 L 393.5 76 Z " /><path fill="#7fde30" stroke="#7fde30" stroke-width="1" opacity="0.7607843137254902" d="M 266.5 77 L 259.5 85 L 266.5 77 Z " /><path fill="#7fde30" stroke="#7fde30" stroke-width="1" opacity="0.7607843137254902" d="M 323.5 77 L 322.5 79 L 323.5 77 Z " /><path fill="#7fde30" stroke="#7fde30" stroke-width="1" opacity="0.7607843137254902" d="M 237.5 78 L 236.5 80 L 237.5 78 Z " /><path fill="#7fde30" stroke="#7fde30" stroke-width="1" opacity="0.7607843137254902" d="M 424.5 79 L 425.5 81 L 424.5 79 Z " /><path fill="#7fde30" stroke="#7fde30" stroke-width="1" opacity="0.7607843137254902" d="M 234.5 82 L 233.5 84 L 234.5 82 Z " /><path fill="#7fde30" stroke="#7fde30" stroke-width="1" opacity="0.7607843137254902" d="M 427.5 83 L 428.5 85 L 427.5 83 Z " /><path fill="#7fde30" stroke="#7fde30" stroke-width="1" opacity="0.7607843137254902" d="M 232.5 85 L 231.5 87 L 232.5 85 Z " /><path fill="#7fde30" stroke="#7fde30" stroke-width="1" opacity="0.7607843137254902" d="M 256.5 88 L 254.5 91 L 256.5 88 Z " /><path fill="#7fde30" stroke="#7fde30" stroke-width="1" opacity="0.7607843137254902" d="M 229.5 90 L 228.5 92 L 229.5 90 Z " /><path fill="#7fde30" stroke="#7fde30" stroke-width="1" opacity="0.7607843137254902" d="M 406.5 90 L 407.5 92 L 406.5 90 Z " /><path fill="#7fde30" stroke="#7fde30" stroke-width="1" opacity="0.7607843137254902" d="M 252.5 93 L 251.5 95 L 252.5 93 Z " /><path fill="#7fde30" stroke="#7fde30" stroke-width="1" opacity="0.7607843137254902" d="M 433.5 93 L 436 96.5 L 434 95.5 L 433.5 93 Z " /><path fill="#7fde30" stroke="#7fde30" stroke-width="1" opacity="0.7607843137254902" d="M 409.5 94 L 410.5 96 L 409.5 94 Z " /><path fill="#7fde30" stroke="#7fde30" stroke-width="1" opacity="0.7607843137254902" d="M 250.5 96 L 249.5 98 L 250.5 96 Z " /><path fill="#7fde30" stroke="#7fde30" stroke-width="1" opacity="0.7607843137254902" d="M 314.5 96 L 318 96.5 L 314.5 97 L 314.5 96 Z " /><path fill="#7fde30" stroke="#7fde30" stroke-width="1" opacity="0.7607843137254902" d="M 369.5 98 L 370.5 100 L 369.5 98 Z " /><path fill="#7fde30" stroke="#7fde30" stroke-width="1" opacity="0.7607843137254902" d="M 303.5 100 L 302.5 102 L 303.5 100 Z " /><path fill="#7fde30" stroke="#7fde30" stroke-width="1" opacity="0.7607843137254902" d="M 247.5 101 L 246.5 103 L 247.5 101 Z " /><path fill="#7fde30" stroke="#7fde30" stroke-width="1" opacity="0.7607843137254902" d="M 299.5 103 L 295.5 108 L 299.5 103 Z " /><path fill="#7fde30" stroke="#7fde30" stroke-width="1" opacity="0.7607843137254902" d="M 293.5 110 L 292.5 112 L 293.5 110 Z " /><path fill="#7fde30" stroke="#7fde30" stroke-width="1" opacity="0.7607843137254902" d="M 371.5 112 L 368.5 116 L 371.5 112 Z " /><path fill="#7fde30" stroke="#7fde30" stroke-width="1" opacity="0.7607843137254902" d="M 314.5 118 L 310.5 123 L 314.5 118 Z " /><path fill="#7fde30" stroke="#7fde30" stroke-width="1" opacity="0.7607843137254902" d="M 288.5 122 L 289 125.5 L 288 125.5 L 288.5 122 Z " /><path fill="#7fde30" stroke="#7fde30" stroke-width="1" opacity="0.7607843137254902" d="M 309.5 125 L 310 130.5 L 309 130.5 L 309.5 125 Z " /><path fill="#7fde30" stroke="#7fde30" stroke-width="1" opacity="0.7607843137254902" d="M 215.5 126 L 216 128.5 L 215 128.5 L 215.5 126 Z " /><path fill="#7fde30" stroke="#7fde30" stroke-width="1" opacity="0.7607843137254902" d="M 288.5 130 L 289 133.5 L 288 133.5 L 288.5 130 Z " /><path fill="#7fde30" stroke="#7fde30" stroke-width="1" opacity="0.7607843137254902" d="M 446.5 130 L 447 132.5 L 446 132.5 L 446.5 130 Z " /><path fill="#7fde30" stroke="#7fde30" stroke-width="1" opacity="0.7607843137254902" d="M 214.5 132 L 215 135.5 L 214 135.5 L 214.5 132 Z " /><path fill="#7fde30" stroke="#7fde30" stroke-width="1" opacity="0.7607843137254902" d="M 425.5 132 L 426 135.5 L 425 135.5 L 425.5 132 Z " /><path fill="#7fde30" stroke="#7fde30" stroke-width="1" opacity="0.7607843137254902" d="M 310.5 133 L 314.5 138 L 310.5 133 Z " /><path fill="#7fde30" stroke="#7fde30" stroke-width="1" opacity="0.7607843137254902" d="M 235.5 134 L 236 137.5 L 235 137.5 L 235.5 134 Z " /><path fill="#7fde30" stroke="#7fde30" stroke-width="1" opacity="0.7607843137254902" d="M 317.5 138 L 320 138.5 L 317.5 139 L 317.5 138 Z " /><path fill="#7fde30" stroke="#7fde30" stroke-width="1" opacity="0.7607843137254902" d="M 447.5 138 L 448 143.5 L 447 143.5 L 447.5 138 Z " /><path fill="#7fde30" stroke="#7fde30" stroke-width="1" opacity="0.7607843137254902" d="M 346.5 139 L 349 139.5 L 346.5 140 L 346.5 139 Z " /><path fill="#7fde30" stroke="#7fde30" stroke-width="1" opacity="0.7607843137254902" d="M 426.5 139 L 427 146.5 L 426 146.5 L 426.5 139 Z " /><path fill="#7fde30" stroke="#7fde30" stroke-width="1" opacity="0.7607843137254902" d="M 213.5 141 L 214 156.5 L 213 156.5 L 213.5 141 Z " /><path fill="#7fde30" stroke="#7fde30" stroke-width="1" opacity="0.7607843137254902" d="M 356.5 142 L 357.5 144 L 356.5 142 Z " /><path fill="#7fde30" stroke="#7fde30" stroke-width="1" opacity="0.7607843137254902" d="M 234.5 143 L 235 154.5 L 234 154.5 L 234.5 143 Z " /><path fill="#7fde30" stroke="#7fde30" stroke-width="1" opacity="0.7607843137254902" d="M 292.5 144 L 293.5 146 L 292.5 144 Z " /><path fill="#7fde30" stroke="#7fde30" stroke-width="1" opacity="0.7607843137254902" d="M 359.5 144 L 360.5 146 L 359.5 144 Z " /><path fill="#7fde30" stroke="#7fde30" stroke-width="1" opacity="0.7607843137254902" d="M 363.5 147 L 364.5 149 L 363.5 147 Z " /><path fill="#7fde30" stroke="#7fde30" stroke-width="1" opacity="0.7607843137254902" d="M 295.5 148 L 299.5 153 L 295.5 148 Z " /><path fill="#7fde30" stroke="#7fde30" stroke-width="1" opacity="0.7607843137254902" d="M 426.5 148 L 427 158.5 L 426 158.5 L 426.5 148 Z " /><path fill="#7fde30" stroke="#7fde30" stroke-width="1" opacity="0.7607843137254902" d="M 366.5 151 L 367.5 153 L 366.5 151 Z " /><path fill="#7fde30" stroke="#7fde30" stroke-width="1" opacity="0.7607843137254902" d="M 368.5 154 L 369.5 156 L 368.5 154 Z " /><path fill="#7fde30" stroke="#7fde30" stroke-width="1" opacity="0.7607843137254902" d="M 447.5 154 L 448 160.5 L 447 160.5 L 447.5 154 Z " /><path fill="#7fde30" stroke="#7fde30" stroke-width="1" opacity="0.7607843137254902" d="M 314.5 159 L 318 159.5 L 314.5 160 L 314.5 159 Z " /><path fill="#7fde30" stroke="#7fde30" stroke-width="1" opacity="0.7607843137254902" d="M 235.5 160 L 236 163.5 L 235 163.5 L 235.5 160 Z " /><path fill="#7fde30" stroke="#7fde30" stroke-width="1" opacity="0.7607843137254902" d="M 344.5 160 L 347 161.5 L 345.5 161 L 344.5 160 Z " /><path fill="#7fde30" stroke="#7fde30" stroke-width="1" opacity="0.7607843137254902" d="M 348.5 162 L 349.5 164 L 348.5 162 Z " /><path fill="#7fde30" stroke="#7fde30" stroke-width="1" opacity="0.7607843137254902" d="M 214.5 163 L 215 166.5 L 214 166.5 L 214.5 163 Z " /><path fill="#7fde30" stroke="#7fde30" stroke-width="1" opacity="0.7607843137254902" d="M 372.5 163 L 373 165.5 L 372 165.5 L 372.5 163 Z " /><path fill="#7fde30" stroke="#7fde30" stroke-width="1" opacity="0.7607843137254902" d="M 425.5 163 L 426 165.5 L 425 165.5 L 425.5 163 Z " /><path fill="#7fde30" stroke="#7fde30" stroke-width="1" opacity="0.7607843137254902" d="M 350.5 165 L 352 167.5 L 351 167.5 L 350.5 165 Z " /><path fill="#7fde30" stroke="#7fde30" stroke-width="1" opacity="0.7607843137254902" d="M 446.5 165 L 447 168.5 L 446 168.5 L 446.5 165 Z " /><path fill="#7fde30" stroke="#7fde30" stroke-width="1" opacity="0.7607843137254902" d="M 236.5 167 L 237 169.5 L 236 169.5 L 236.5 167 Z " /><path fill="#7fde30" stroke="#7fde30" stroke-width="1" opacity="0.7607843137254902" d="M 445.5 171 L 446 173.5 L 445 173.5 L 445.5 171 Z " /><path fill="#7fde30" stroke="#7fde30" stroke-width="1" opacity="0.7607843137254902" d="M 350.5 176 L 347.5 180 L 350.5 176 Z " /><path fill="#7fde30" stroke="#7fde30" stroke-width="1" opacity="0.7607843137254902" d="M 296.5 181 L 343 181.5 L 296.5 182 L 296.5 181 Z " /><path fill="#7fde30" stroke="#7fde30" stroke-width="1" opacity="0.7607843137254902" d="M 292.5 183 L 289.5 187 L 292.5 183 Z " /><path fill="#7fde30" stroke="#7fde30" stroke-width="1" opacity="0.7607843137254902" d="M 368.5 187 L 367.5 189 L 368.5 187 Z " /><path fill="#7fde30" stroke="#7fde30" stroke-width="1" opacity="0.7607843137254902" d="M 366.5 190 L 361.5 196 L 366.5 190 Z " /><path fill="#7fde30" stroke="#7fde30" stroke-width="1" opacity="0.7607843137254902" d="M 289.5 197 L 292.5 201 L 289.5 197 Z " /><path fill="#7fde30" stroke="#7fde30" stroke-width="1" opacity="0.7607843137254902" d="M 248.5 199 L 249.5 201 L 248.5 199 Z " /><path fill="#7fde30" stroke="#7fde30" stroke-width="1" opacity="0.7607843137254902" d="M 411.5 201 L 410.5 203 L 411.5 201 Z " /><path fill="#7fde30" stroke="#7fde30" stroke-width="1" opacity="0.7607843137254902" d="M 250.5 202 L 251.5 204 L 250.5 202 Z " /><path fill="#7fde30" stroke="#7fde30" stroke-width="1" opacity="0.7607843137254902" d="M 296.5 202 L 320 202.5 L 296.5 203 L 296.5 202 Z " /><path fill="#7fde30" stroke="#7fde30" stroke-width="1" opacity="0.7607843137254902" d="M 341.5 202 L 345 202.5 L 341.5 203 L 341.5 202 Z " /><path fill="#7fde30" stroke="#7fde30" stroke-width="1" opacity="0.7607843137254902" d="M 226.5 203 L 227.5 205 L 226.5 203 Z " /><path fill="#7fde30" stroke="#7fde30" stroke-width="1" opacity="0.7607843137254902" d="M 409.5 204 L 408.5 206 L 409.5 204 Z " /><path fill="#7fde30" stroke="#7fde30" stroke-width="1" opacity="0.7607843137254902" d="M 252.5 205 L 253.5 207 L 252.5 205 Z " /><path fill="#7fde30" stroke="#7fde30" stroke-width="1" opacity="0.7607843137254902" d="M 406.5 208 L 404.5 211 L 406.5 208 Z " /><path fill="#7fde30" stroke="#7fde30" stroke-width="1" opacity="0.7607843137254902" d="M 255.5 209 L 258.5 213 L 255.5 209 Z " /><path fill="#7fde30" stroke="#7fde30" stroke-width="1" opacity="0.7607843137254902" d="M 431.5 209 L 430.5 211 L 431.5 209 Z " /><path fill="#7fde30" stroke="#7fde30" stroke-width="1" opacity="0.7607843137254902" d="M 230.5 210 L 231.5 212 L 230.5 210 Z " /><path fill="#7fde30" stroke="#7fde30" stroke-width="1" opacity="0.7607843137254902" d="M 429.5 212 L 428.5 214 L 429.5 212 Z " /><path fill="#7fde30" stroke="#7fde30" stroke-width="1" opacity="0.7607843137254902" d="M 232.5 213 L 233.5 215 L 232.5 213 Z " /><path fill="#7fde30" stroke="#7fde30" stroke-width="1" opacity="0.7607843137254902" d="M 401.5 214 L 395.5 221 L 401.5 214 Z " /><path fill="#7fde30" stroke="#7fde30" stroke-width="1" opacity="0.7607843137254902" d="M 427.5 215 L 426.5 217 L 427.5 215 Z " /><path fill="#7fde30" stroke="#7fde30" stroke-width="1" opacity="0.7607843137254902" d="M 234.5 216 L 235.5 218 L 234.5 216 Z " /><path fill="#7fde30" stroke="#7fde30" stroke-width="1" opacity="0.7607843137254902" d="M 425.5 218 L 423.5 221 L 425.5 218 Z " /><path fill="#7fde30" stroke="#7fde30" stroke-width="1" opacity="0.7607843137254902" d="M 237.5 220 L 238.5 222 L 237.5 220 Z " /><path fill="#7fde30" stroke="#7fde30" stroke-width="1" opacity="0.7607843137254902" d="M 338.5 220 L 337.5 222 L 338.5 220 Z " /><path fill="#7fde30" stroke="#7fde30" stroke-width="1" opacity="0.7607843137254902" d="M 267.5 221 L 270.5 225 L 267.5 221 Z " /><path fill="#7fde30" stroke="#7fde30" stroke-width="1" opacity="0.7607843137254902" d="M 391.5 223 L 389.5 226 L 391.5 223 Z " /><path fill="#7fde30" stroke="#7fde30" stroke-width="1" opacity="0.7607843137254902" d="M 421.5 223 L 419.5 226 L 421.5 223 Z " /><path fill="#7fde30" stroke="#7fde30" stroke-width="1" opacity="0.7607843137254902" d="M 240.5 224 L 245.5 230 L 240.5 224 Z " /><path fill="#7fde30" stroke="#7fde30" stroke-width="1" opacity="0.7607843137254902" d="M 272.5 225 L 274.5 228 L 272.5 225 Z " /><path fill="#7fde30" stroke="#7fde30" stroke-width="1" opacity="0.7607843137254902" d="M 276.5 228 L 277.5 230 L 276.5 228 Z " /><path fill="#7fde30" stroke="#7fde30" stroke-width="1" opacity="0.7607843137254902" d="M 383.5 229 L 382.5 231 L 383.5 229 Z " /><path fill="#7fde30" stroke="#7fde30" stroke-width="1" opacity="0.7607843137254902" d="M 279.5 230 L 280.5 232 L 279.5 230 Z " /><path fill="#7fde30" stroke="#7fde30" stroke-width="1" opacity="0.7607843137254902" d="M 415.5 230 L 412.5 234 L 415.5 230 Z " /><path fill="#7fde30" stroke="#7fde30" stroke-width="1" opacity="0.7607843137254902" d="M 250.5 234 L 255.5 240 L 250.5 234 Z " /><path fill="#7fde30" stroke="#7fde30" stroke-width="1" opacity="0.7607843137254902" d="M 407.5 237 L 404.5 241 L 407.5 237 Z " /><path fill="#7fde30" stroke="#7fde30" stroke-width="1" opacity="0.7607843137254902" d="M 258.5 241 L 259.5 243 L 258.5 241 Z " /><path fill="#7fde30" stroke="#7fde30" stroke-width="1" opacity="0.7607843137254902" d="M 401.5 242 L 400.5 244 L 401.5 242 Z " /><path fill="#7fde30" stroke="#7fde30" stroke-width="1" opacity="0.7607843137254902" d="M 310.5 243 L 313 243.5 L 310.5 244 L 310.5 243 Z " /><path fill="#7fde30" stroke="#7fde30" stroke-width="1" opacity="0.7607843137254902" d="M 262.5 244 L 263.5 246 L 262.5 244 Z " /><path fill="#7fde30" stroke="#7fde30" stroke-width="1" opacity="0.7607843137254902" d="M 316.5 244 L 319 244.5 L 316.5 245 L 316.5 244 Z " /><path fill="#7fde30" stroke="#7fde30" stroke-width="1" opacity="0.7607843137254902" d="M 342.5 244 L 345 244.5 L 342.5 245 L 342.5 244 Z " /><path fill="#7fde30" stroke="#7fde30" stroke-width="1" opacity="0.7607843137254902" d="M 325.5 245 L 336 245.5 L 325.5 246 L 325.5 245 Z " /><path fill="#7fde30" stroke="#7fde30" stroke-width="1" opacity="0.7607843137254902" d="M 397.5 245 L 396.5 247 L 397.5 245 Z " /><path fill="#7fde30" stroke="#7fde30" stroke-width="1" opacity="0.7607843137254902" d="M 265.5 246 L 266.5 248 L 265.5 246 Z " /><path fill="#7fde30" stroke="#7fde30" stroke-width="1" opacity="0.7607843137254902" d="M 394.5 247 L 393.5 249 L 394.5 247 Z " /><path fill="#7fde30" stroke="#7fde30" stroke-width="1" opacity="0.7607843137254902" d="M 268.5 248 L 269.5 250 L 268.5 248 Z " /><path fill="#7fde30" stroke="#7fde30" stroke-width="1" opacity="0.7607843137254902" d="M 389.5 250 L 388.5 252 L 389.5 250 Z " /><path fill="#7fde30" stroke="#7fde30" stroke-width="1" opacity="0.7607843137254902" d="M 275.5 252 L 276.5 254 L 275.5 252 Z " /><path fill="#7fde30" stroke="#7fde30" stroke-width="1" opacity="0.7607843137254902" d="M 101.5 257 L 104.5 261 L 101.5 257 Z " /><path fill="#7fde30" stroke="#7fde30" stroke-width="1" opacity="0.7607843137254902" d="M 106.5 264 L 107 277 L 133 277.5 L 107.5 278 L 106 276.5 L 106.5 264 Z " /><path fill="#7fde30" stroke="#7fde30" stroke-width="1" opacity="0.7607843137254902" d="M 351.5 264 L 354 264.5 L 351.5 265 L 351.5 264 Z " /><path fill="#7fde30" stroke="#7fde30" stroke-width="1" opacity="0.7607843137254902" d="M 313.5 265 L 317 265.5 L 313.5 266 L 313.5 265 Z " /><path fill="#7fde30" stroke="#7fde30" stroke-width="1" opacity="0.7607843137254902" d="M 344.5 265 L 348 265.5 L 344.5 266 L 344.5 265 Z " /><path fill="#7fde30" stroke="#7fde30" stroke-width="1" opacity="0.7607843137254902" d="M 323.5 266 L 339 266.5 L 323.5 267 L 323.5 266 Z " /><path fill="#7fde30" stroke="#7fde30" stroke-width="1" opacity="0.7607843137254902" d="M 85.5 277 L 86 426.5 L 85 426.5 L 85.5 277 Z " /><path fill="#7fde30" stroke="#7fde30" stroke-width="1" opacity="0.7607843137254902" d="M 175.5 277 L 185 277.5 L 175.5 278 L 175.5 277 Z " /><path fill="#7fde30" stroke="#7fde30" stroke-width="1" opacity="0.7607843137254902" d="M 190.5 278 L 195 278.5 L 190.5 279 L 190.5 278 Z " /><path fill="#7fde30" stroke="#7fde30" stroke-width="1" opacity="0.7607843137254902" d="M 198.5 279 L 201 279.5 L 198.5 280 L 198.5 279 Z " /><path fill="#7fde30" stroke="#7fde30" stroke-width="1" opacity="0.7607843137254902" d="M 238.5 292 L 239.5 294 L 238.5 292 Z " /><path fill="#7fde30" stroke="#7fde30" stroke-width="1" opacity="0.7607843137254902" d="M 243.5 295 L 244.5 297 L 243.5 295 Z " /><path fill="#7fde30" stroke="#7fde30" stroke-width="1" opacity="0.7607843137254902" d="M 107.5 298 L 145 298.5 L 107 299 L 107 409.5 L 108 410.5 L 106 409.5 L 106 299.5 L 107.5 298 Z " /><path fill="#7fde30" stroke="#7fde30" stroke-width="1" opacity="0.7607843137254902" d="M 167.5 298 L 181 298.5 L 167.5 299 L 167.5 298 Z " /><path fill="#7fde30" stroke="#7fde30" stroke-width="1" opacity="0.7607843137254902" d="M 188.5 299 L 192 299.5 L 188.5 300 L 188.5 299 Z " /><path fill="#7fde30" stroke="#7fde30" stroke-width="1" opacity="0.7607843137254902" d="M 369.5 299 L 372 299.5 L 369.5 300 L 369.5 299 Z " /><path fill="#7fde30" stroke="#7fde30" stroke-width="1" opacity="0.7607843137254902" d="M 196.5 300 L 199 300.5 L 196.5 301 L 196.5 300 Z " /><path fill="#7fde30" stroke="#7fde30" stroke-width="1" opacity="0.7607843137254902" d="M 201.5 301 L 204 301.5 L 201.5 302 L 201.5 301 Z " /><path fill="#7fde30" stroke="#7fde30" stroke-width="1" opacity="0.7607843137254902" d="M 384.5 304 L 385.5 306 L 384.5 304 Z " /><path fill="#7fde30" stroke="#7fde30" stroke-width="1" opacity="0.7607843137254902" d="M 387.5 306 L 388.5 308 L 387.5 306 Z " /><path fill="#7fde30" stroke="#7fde30" stroke-width="1" opacity="0.7607843137254902" d="M 227.5 310 L 228.5 312 L 227.5 310 Z " /><path fill="#7fde30" stroke="#7fde30" stroke-width="1" opacity="0.7607843137254902" d="M 396.5 315 L 397.5 317 L 396.5 315 Z " /><path fill="#7fde30" stroke="#7fde30" stroke-width="1" opacity="0.7607843137254902" d="M 237.5 316 L 238.5 318 L 237.5 316 Z " /><path fill="#7fde30" stroke="#7fde30" stroke-width="1" opacity="0.7607843137254902" d="M 398.5 318 L 399.5 320 L 398.5 318 Z " /><path fill="#7fde30" stroke="#7fde30" stroke-width="1" opacity="0.7607843137254902" d="M 244.5 319 L 252 319.5 L 244.5 320 L 244.5 319 Z " /><path fill="#7fde30" stroke="#7fde30" stroke-width="1" opacity="0.7607843137254902" d="M 366.5 320 L 369 320.5 L 366.5 321 L 366.5 320 Z " /><path fill="#7fde30" stroke="#7fde30" stroke-width="1" opacity="0.7607843137254902" d="M 379.5 328 L 380.5 330 L 379.5 328 Z " /><path fill="#7fde30" stroke="#7fde30" stroke-width="1" opacity="0.7607843137254902" d="M 459.5 329 L 464 329.5 L 459.5 330 L 459.5 329 Z " /><path fill="#7fde30" stroke="#7fde30" stroke-width="1" opacity="0.7607843137254902" d="M 469.5 329 L 474 329.5 L 469.5 330 L 469.5 329 Z " /><path fill="#7fde30" stroke="#7fde30" stroke-width="1" opacity="0.7607843137254902" d="M 404.5 331 L 405 333.5 L 404 333.5 L 404.5 331 Z " /><path fill="#7fde30" stroke="#7fde30" stroke-width="1" opacity="0.7607843137254902" d="M 491.5 336 L 492.5 338 L 491.5 336 Z " /><path fill="#7fde30" stroke="#7fde30" stroke-width="1" opacity="0.7607843137254902" d="M 405.5 338 L 406 345 L 408 345.5 L 405 346 L 405.5 338 Z " /><path fill="#7fde30" stroke="#7fde30" stroke-width="1" opacity="0.7607843137254902" d="M 495.5 339 L 501.5 346 L 495.5 339 Z " /><path fill="#7fde30" stroke="#7fde30" stroke-width="1" opacity="0.7607843137254902" d="M 503.5 348 L 504.5 350 L 503.5 348 Z " /><path fill="#7fde30" stroke="#7fde30" stroke-width="1" opacity="0.7607843137254902" d="M 464.5 350 L 469 350.5 L 464.5 351 L 464.5 350 Z " /><path fill="#7fde30" stroke="#7fde30" stroke-width="1" opacity="0.7607843137254902" d="M 379.5 354 L 375.5 359 L 379.5 354 Z " /><path fill="#7fde30" stroke="#7fde30" stroke-width="1" opacity="0.7607843137254902" d="M 482.5 356 L 485.5 360 L 482.5 356 Z " /><path fill="#7fde30" stroke="#7fde30" stroke-width="1" opacity="0.7607843137254902" d="M 486.5 361 L 487.5 363 L 486.5 361 Z " /><path fill="#7fde30" stroke="#7fde30" stroke-width="1" opacity="0.7607843137254902" d="M 361.5 362 L 366 362.5 L 361.5 363 L 361.5 362 Z " /><path fill="#7fde30" stroke="#7fde30" stroke-width="1" opacity="0.7607843137254902" d="M 239.5 364 L 236.5 368 L 239.5 364 Z " /><path fill="#7fde30" stroke="#7fde30" stroke-width="1" opacity="0.7607843137254902" d="M 511.5 367 L 512 371.5 L 511 371.5 L 511.5 367 Z " /><path fill="#7fde30" stroke="#7fde30" stroke-width="1" opacity="0.7607843137254902" d="M 490.5 370 L 491 378.5 L 490 378.5 L 490.5 370 Z " /><path fill="#7fde30" stroke="#7fde30" stroke-width="1" opacity="0.7607843137254902" d="M 391.5 372 L 389.5 375 L 391.5 372 Z " /><path fill="#7fde30" stroke="#7fde30" stroke-width="1" opacity="0.7607843137254902" d="M 511.5 375 L 512 380.5 L 511 380.5 L 511.5 375 Z " /><path fill="#7fde30" stroke="#7fde30" stroke-width="1" opacity="0.7607843137254902" d="M 386.5 376 L 385.5 378 L 386.5 376 Z " /><path fill="#7fde30" stroke="#7fde30" stroke-width="1" opacity="0.7607843137254902" d="M 237.5 380 L 238.5 382 L 237.5 380 Z " /><path fill="#7fde30" stroke="#7fde30" stroke-width="1" opacity="0.7607843137254902" d="M 370.5 382 L 373 382.5 L 370.5 383 L 370.5 382 Z " /><path fill="#7fde30" stroke="#7fde30" stroke-width="1" opacity="0.7607843137254902" d="M 359.5 383 L 366 383.5 L 359.5 384 L 359.5 383 Z " /><path fill="#7fde30" stroke="#7fde30" stroke-width="1" opacity="0.7607843137254902" d="M 317.5 384 L 343 384.5 L 317.5 385 L 317.5 384 Z " /><path fill="#7fde30" stroke="#7fde30" stroke-width="1" opacity="0.7607843137254902" d="M 46.5 386 L 44.5 389 L 46.5 386 Z " /><path fill="#7fde30" stroke="#7fde30" stroke-width="1" opacity="0.7607843137254902" d="M 486.5 388 L 485.5 390 L 486.5 388 Z " /><path fill="#7fde30" stroke="#7fde30" stroke-width="1" opacity="0.7607843137254902" d="M 481.5 393 L 480.5 395 L 481.5 393 Z " /><path fill="#7fde30" stroke="#7fde30" stroke-width="1" opacity="0.7607843137254902" d="M 505.5 397 L 504.5 399 L 505.5 397 Z " /><path fill="#7fde30" stroke="#7fde30" stroke-width="1" opacity="0.7607843137254902" d="M 44.5 400 L 47.5 404 L 44.5 400 Z " /><path fill="#7fde30" stroke="#7fde30" stroke-width="1" opacity="0.7607843137254902" d="M 503.5 400 L 502.5 402 L 503.5 400 Z " /><path fill="#7fde30" stroke="#7fde30" stroke-width="1" opacity="0.7607843137254902" d="M 61.5 401 L 60.5 403 L 61.5 401 Z " /><path fill="#7fde30" stroke="#7fde30" stroke-width="1" opacity="0.7607843137254902" d="M 58.5 403 L 57.5 405 L 56 404.5 L 58.5 403 Z " /><path fill="#7fde30" stroke="#7fde30" stroke-width="1" opacity="0.7607843137254902" d="M 500.5 404 L 496.5 409 L 500.5 404 Z " /><path fill="#7fde30" stroke="#7fde30" stroke-width="1" opacity="0.7607843137254902" d="M 493.5 410 L 492.5 412 L 493.5 410 Z " /><path fill="#7fde30" stroke="#7fde30" stroke-width="1" opacity="0.7607843137254902" d="M 490.5 412 L 489.5 414 L 490.5 412 Z " /><path fill="#7fde30" stroke="#7fde30" stroke-width="1" opacity="0.7607843137254902" d="M 129.5 422 L 133 424.5 L 131.5 424 L 129.5 422 Z " /><path fill="#7fde30" stroke="#7fde30" stroke-width="1" opacity="0.7607843137254902" d="M 140.5 428 L 144 429.5 L 142.5 430 L 140.5 428 Z " /><path fill="#7fde30" stroke="#7fde30" stroke-width="1" opacity="0.7607843137254902" d="M 106 434 L 109 435.5 L 107 435.5 L 106.5 440 L 106 434 Z " /><path fill="#7fde30" stroke="#7fde30" stroke-width="1" opacity="0.7607843137254902" d="M 116.5 439 L 117.5 441 L 116.5 439 Z " /><path fill="#7fde30" stroke="#7fde30" stroke-width="1" opacity="0.7607843137254902" d="M 104.5 443 L 101.5 447 L 104.5 443 Z " /><path fill="#7fde30" stroke="#7fde30" stroke-width="1" opacity="0.7607843137254902" d="M 330.5 450 L 333 450.5 L 330.5 451 L 330.5 450 Z " /><path fill="#7fde30" stroke="#7fde30" stroke-width="1" opacity="0.7607843137254902" d="M 214.5 452 L 217 452.5 L 214.5 453 L 214.5 452 Z " /><path fill="#7fde30" stroke="#7fde30" stroke-width="1" opacity="0.7607843137254902" d="M 320.5 452 L 323 452.5 L 320.5 453 L 320.5 452 Z " /><path fill="#7fde30" stroke="#7fde30" stroke-width="1" opacity="0.7607843137254902" d="M 220.5 453 L 223 453.5 L 220.5 454 L 220.5 453 Z " /><path fill="#7fde30" stroke="#7fde30" stroke-width="1" opacity="0.7607843137254902" d="M 314.5 453 L 317 453.5 L 314.5 454 L 314.5 453 Z " /><path fill="#7fde30" stroke="#7fde30" stroke-width="1" opacity="0.7607843137254902" d="M 226.5 454 L 230 454.5 L 226.5 455 L 226.5 454 Z " /><path fill="#7fde30" stroke="#7fde30" stroke-width="1" opacity="0.7607843137254902" d="M 307.5 454 L 311 454.5 L 307.5 455 L 307.5 454 Z " /><path fill="#7fde30" stroke="#7fde30" stroke-width="1" opacity="0.7607843137254902" d="M 234.5 455 L 238 455.5 L 234.5 456 L 234.5 455 Z " /><path fill="#7fde30" stroke="#7fde30" stroke-width="1" opacity="0.7607843137254902" d="M 299.5 455 L 303 455.5 L 299.5 456 L 299.5 455 Z " /><path fill="#7fde30" stroke="#7fde30" stroke-width="1" opacity="0.7607843137254902" d="M 244.5 456 L 250 456.5 L 244.5 457 L 244.5 456 Z " /><path fill="#7fde30" stroke="#7fde30" stroke-width="1" opacity="0.7607843137254902" d="M 286.5 456 L 293 456.5 L 286.5 457 L 286.5 456 Z " /><path fill="#7fde30" stroke="#7fde30" stroke-width="1" opacity="0.7607843137254902" d="M 262.5 457 L 275 457.5 L 262.5 458 L 262.5 457 Z " /><path fill="#7fde30" stroke="#7fde30" stroke-width="1" opacity="0.7607843137254902" d="M 201.5 471 L 204 471.5 L 201.5 472 L 201.5 471 Z " /><path fill="#7fde30" stroke="#7fde30" stroke-width="1" opacity="0.7607843137254902" d="M 333.5 471 L 336 471.5 L 333.5 472 L 333.5 471 Z " /><path fill="#7fde30" stroke="#7fde30" stroke-width="1" opacity="0.7607843137254902" d="M 206.5 472 L 209 472.5 L 206.5 473 L 206.5 472 Z " /><path fill="#7fde30" stroke="#7fde30" stroke-width="1" opacity="0.7607843137254902" d="M 328.5 472 L 331 472.5 L 328.5 473 L 328.5 472 Z " /><path fill="#7fde30" stroke="#7fde30" stroke-width="1" opacity="0.7607843137254902" d="M 211.5 473 L 214 473.5 L 211.5 474 L 211.5 473 Z " /><path fill="#7fde30" stroke="#7fde30" stroke-width="1" opacity="0.7607843137254902" d="M 323.5 473 L 326 473.5 L 323.5 474 L 323.5 473 Z " /><path fill="#7fde30" stroke="#7fde30" stroke-width="1" opacity="0.7607843137254902" d="M 217.5 474 L 220 474.5 L 217.5 475 L 217.5 474 Z " /><path fill="#7fde30" stroke="#7fde30" stroke-width="1" opacity="0.7607843137254902" d="M 317.5 474 L 320 474.5 L 317.5 475 L 317.5 474 Z " /><path fill="#7fde30" stroke="#7fde30" stroke-width="1" opacity="0.7607843137254902" d="M 224.5 475 L 227 475.5 L 224.5 476 L 224.5 475 Z " /><path fill="#7fde30" stroke="#7fde30" stroke-width="1" opacity="0.7607843137254902" d="M 310.5 475 L 313 475.5 L 310.5 476 L 310.5 475 Z " /><path fill="#7fde30" stroke="#7fde30" stroke-width="1" opacity="0.7607843137254902" d="M 231.5 476 L 236 476.5 L 231.5 477 L 231.5 476 Z " /><path fill="#7fde30" stroke="#7fde30" stroke-width="1" opacity="0.7607843137254902" d="M 301.5 476 L 305 476.5 L 301.5 477 L 301.5 476 Z " /><path fill="#7fde30" stroke="#7fde30" stroke-width="1" opacity="0.7607843137254902" d="M 241.5 477 L 248 477.5 L 241.5 478 L 241.5 477 Z " /><path fill="#7fde30" stroke="#7fde30" stroke-width="1" opacity="0.7607843137254902" d="M 289.5 477 L 295 477.5 L 289.5 478 L 289.5 477 Z " /><path fill="#7fde30" stroke="#7fde30" stroke-width="1" opacity="0.7607843137254902" d="M 258.5 478 L 278 478.5 L 258.5 479 L 258.5 478 Z " /><path fill="#7fde30" stroke="#7fde30" stroke-width="1" opacity="0" d="M 0 0 L 512 0 L 512 366.5 L 511 366.5 Q 507.9 348.1 495.5 339 L 481.5 331 L 473.5 329 L 459.5 329 L 406 345 L 405 331.5 L 403 325.5 Q 397.8 313.3 387.5 306 L 371.5 299 L 249.5 299 Q 236.8 289.7 220.5 284 L 194.5 278 L 185.5 278 L 184.5 277 L 107 277 L 107 264.5 L 101.5 257 L 98.5 256 L 7.5 256 L 1 261.5 L 0.5 263 L 0 0 Z M 320 32 L 299 36 L 285 41 Q 264 50 250 64 Q 233 80 223 102 L 215 127 L 214 141 L 213 142 L 214 167 L 217 181 Q 225 206 240 225 Q 255 243 277 254 L 300 263 L 314 266 L 323 266 L 324 267 L 348 266 L 369 261 Q 395 252 413 234 Q 429 218 439 196 L 444 182 L 448 161 L 448 139 L 444 118 Q 436 90 419 72 Q 400 49 370 38 L 343 32 L 320 32 Z " /><path fill="#7fde30" stroke="#7fde30" stroke-width="1" opacity="0" d="M 329.5 53 Q 335 55.5 344.5 54 L 366.5 60 Q 390.8 70.2 406 89.5 Q 414.5 100 420 113.5 L 424 125.5 L 426 136.5 L 426 146.5 L 427 147.5 L 426 148.5 L 425 168.5 L 419 187.5 Q 409.4 208.9 392.5 223 Q 377.8 235.8 356.5 242 L 341.5 245 L 319.5 245 Q 280.2 238.3 259 213.5 Q 245 198 238 175.5 L 235 159.5 L 235 138.5 L 238 123.5 L 246 103.5 Q 255.3 86.8 269.5 75 Q 281.5 65 297.5 59 L 316.5 54 L 328.5 54 L 329.5 53 Z M 327 75 L 324 77 L 320 83 L 320 96 Q 307 96 300 103 Q 291 110 288 123 Q 287 140 295 149 Q 301 156 311 159 L 315 160 L 344 160 L 348 162 L 352 169 L 351 176 L 345 181 L 297 181 L 293 183 L 288 190 L 289 198 L 297 203 L 320 203 L 320 217 L 321 219 L 328 224 Q 335 225 338 222 L 341 218 L 341 203 Q 354 203 362 196 Q 370 189 373 178 L 373 164 Q 371 154 365 149 Q 359 142 349 139 L 321 139 L 316 138 L 310 133 L 310 124 L 316 118 L 320 117 L 367 117 L 369 116 L 373 111 Q 375 102 371 100 L 366 96 L 341 96 L 341 82 L 340 80 Q 337 73 327 75 Z " /><path fill="#7fde30" stroke="#7fde30" stroke-width="1" opacity="0" d="M 22.5 277 L 85 277 L 85 427 L 22.5 427 L 21 425.5 L 21 278.5 L 22.5 277 Z M 51 384 L 47 386 L 43 391 Q 42 397 44 401 L 50 405 Q 58 407 61 403 L 64 398 L 63 390 Q 61 383 51 384 Z " /><path fill="#7fde30" stroke="#7fde30" stroke-width="1" opacity="0" d="M 145.5 298 L 187.5 299 L 188.5 300 L 195.5 300 L 205.5 302 L 222.5 308 L 238.5 318 L 244.5 320 L 365.5 320 Q 374.5 321.5 379 327.5 Q 384.5 333 384 344.5 Q 381.7 355.2 373.5 360 L 360.5 363 L 241.5 363 L 236 367.5 Q 233.7 370.7 235 377.5 L 238.5 382 L 242.5 384 L 316.5 384 L 317.5 385 L 342.5 385 L 343.5 384 L 365.5 384 L 376.5 382 Q 386.5 379 392.5 372 L 398.5 370 L 447.5 356 L 457.5 352 L 471.5 351 Q 481.1 353.4 486 360.5 Q 492 366.5 490 380.5 Q 487.8 388.3 482.5 393 L 478.5 396 L 473.5 397 L 371.5 439 L 346.5 447 L 325.5 452 L 307.5 454 L 306.5 455 L 299.5 455 L 298.5 456 L 286.5 456 L 285.5 457 L 250.5 457 L 249.5 456 L 238.5 456 L 237.5 455 L 230.5 455 L 229.5 454 L 211.5 452 L 183.5 445 Q 140.5 432 107 409.5 L 107 299 L 144.5 299 L 145.5 298 Z " /><path fill="#7fde30" stroke="#7fde30" stroke-width="1" opacity="0" d="M 511.5 381 L 512 512 L 0.5 512 L 0 511.5 L 0 441.5 L 1 441.5 L 5.5 447 L 7.5 448 L 98.5 448 L 105 443.5 L 107.5 435 L 144.5 454 L 181.5 467 L 201.5 472 L 224.5 476 L 230.5 476 L 231.5 477 L 257.5 478 L 258.5 479 L 277.5 479 L 278.5 478 L 294.5 478 L 295.5 477 L 304.5 477 L 305.5 476 L 325.5 474 L 371.5 462 L 483.5 417 Q 493.9 412.4 501 404.5 Q 509.5 396 511.5 381 Z " /><path fill="#7fde30" stroke="#7fde30" stroke-width="1" opacity="0.996078431372549" d="M 333.5 32 L 336 32.5 L 333.5 33 L 333.5 32 Z " /><path fill="#7fde30" stroke="#7fde30" stroke-width="1" opacity="0.996078431372549" d="M 259.5 56 L 258.5 58 L 259.5 56 Z " /><path fill="#7fde30" stroke="#7fde30" stroke-width="1" opacity="0.996078431372549" d="M 405.5 59 L 407.5 62 L 405.5 59 Z " /><path fill="#7fde30" stroke="#7fde30" stroke-width="1" opacity="0.996078431372549" d="M 253.5 61 L 242.5 73 L 253.5 61 Z " /><path fill="#7fde30" stroke="#7fde30" stroke-width="1" opacity="0.996078431372549" d="M 273.5 71 L 272.5 73 L 273.5 71 Z " /><path fill="#7fde30" stroke="#7fde30" stroke-width="1" opacity="0.996078431372549" d="M 418.5 72 L 420.5 75 L 418.5 72 Z " /><path fill="#7fde30" stroke="#7fde30" stroke-width="1" opacity="0.996078431372549" d="M 390.5 73 L 392.5 76 L 390.5 73 Z " /><path fill="#7fde30" stroke="#7fde30" stroke-width="1" opacity="0.996078431372549" d="M 269.5 74 L 267.5 77 L 269.5 74 Z " /><path fill="#7fde30" stroke="#7fde30" stroke-width="1" opacity="0.996078431372549" d="M 239.5 76 L 238.5 78 L 239.5 76 Z " /><path fill="#7fde30" stroke="#7fde30" stroke-width="1" opacity="0.996078431372549" d="M 325.5 76 L 324.5 78 L 325.5 76 Z " /><path fill="#7fde30" stroke="#7fde30" stroke-width="1" opacity="0.996078431372549" d="M 258.5 85 L 256.5 88 L 258.5 85 Z " /><path fill="#7fde30" stroke="#7fde30" stroke-width="1" opacity="0.996078431372549" d="M 405.5 88 L 406.5 90 L 405.5 88 Z " /><path fill="#7fde30" stroke="#7fde30" stroke-width="1" opacity="0.996078431372549" d="M 253.5 91 L 252.5 93 L 253.5 91 Z " /><path fill="#7fde30" stroke="#7fde30" stroke-width="1" opacity="0.996078431372549" d="M 408.5 92 L 409.5 94 L 408.5 92 Z " /><path fill="#7fde30" stroke="#7fde30" stroke-width="1" opacity="0.996078431372549" d="M 370.5 100 L 371.5 102 L 370.5 100 Z " /><path fill="#7fde30" stroke="#7fde30" stroke-width="1" opacity="0.996078431372549" d="M 288.5 126 L 289 129.5 L 288 129.5 L 288.5 126 Z " /><path fill="#7fde30" stroke="#7fde30" stroke-width="1" opacity="0.996078431372549" d="M 447.5 144 L 448 153.5 L 447 153.5 L 447.5 144 Z " /><path fill="#7fde30" stroke="#7fde30" stroke-width="1" opacity="0.996078431372549" d="M 361.5 146 L 365.5 151 L 361.5 146 Z " /><path fill="#7fde30" stroke="#7fde30" stroke-width="1" opacity="0.996078431372549" d="M 360.5 195 L 359.5 197 L 360.5 195 Z " /><path fill="#7fde30" stroke="#7fde30" stroke-width="1" opacity="0.996078431372549" d="M 408.5 206 L 407.5 208 L 408.5 206 Z " /><path fill="#7fde30" stroke="#7fde30" stroke-width="1" opacity="0.996078431372549" d="M 404.5 211 L 402.5 214 L 404.5 211 Z " /><path fill="#7fde30" stroke="#7fde30" stroke-width="1" opacity="0.996078431372549" d="M 258.5 213 L 266.5 222 L 258.5 213 Z " /><path fill="#7fde30" stroke="#7fde30" stroke-width="1" opacity="0.996078431372549" d="M 339.5 218 L 338.5 220 L 339.5 218 Z " /><path fill="#7fde30" stroke="#7fde30" stroke-width="1" opacity="0.996078431372549" d="M 322.5 219 L 324.5 222 L 322.5 219 Z " /><path fill="#7fde30" stroke="#7fde30" stroke-width="1" opacity="0.996078431372549" d="M 394.5 221 L 392.5 224 L 394.5 221 Z " /><path fill="#7fde30" stroke="#7fde30" stroke-width="1" opacity="0.996078431372549" d="M 239.5 222 L 240.5 224 L 239.5 222 Z " /><path fill="#7fde30" stroke="#7fde30" stroke-width="1" opacity="0.996078431372549" d="M 329.5 223 L 332 223.5 L 329.5 224 L 329.5 223 Z " /><path fill="#7fde30" stroke="#7fde30" stroke-width="1" opacity="0.996078431372549" d="M 418.5 226 L 408.5 237 L 418.5 226 Z " /><path fill="#7fde30" stroke="#7fde30" stroke-width="1" opacity="0.996078431372549" d="M 385.5 228 L 384.5 230 L 385.5 228 Z " /><path fill="#7fde30" stroke="#7fde30" stroke-width="1" opacity="0.996078431372549" d="M 246.5 230 L 249.5 234 L 246.5 230 Z " /><path fill="#7fde30" stroke="#7fde30" stroke-width="1" opacity="0.996078431372549" d="M 256.5 239 L 257.5 241 L 256.5 239 Z " /><path fill="#7fde30" stroke="#7fde30" stroke-width="1" opacity="0.996078431372549" d="M 403.5 240 L 402.5 242 L 403.5 240 Z " /><path fill="#7fde30" stroke="#7fde30" stroke-width="1" opacity="0.996078431372549" d="M 4.5 258 L 2.5 261 L 4.5 258 Z " /><path fill="#7fde30" stroke="#7fde30" stroke-width="1" opacity="0.996078431372549" d="M 133.5 277 L 138 277.5 L 133.5 278 L 133.5 277 Z " /><path fill="#7fde30" stroke="#7fde30" stroke-width="1" opacity="0.996078431372549" d="M 389.5 308 L 395.5 315 L 389.5 308 Z " /><path fill="#7fde30" stroke="#7fde30" stroke-width="1" opacity="0.996078431372549" d="M 376.5 324 L 379.5 328 L 376.5 324 Z " /><path fill="#7fde30" stroke="#7fde30" stroke-width="1" opacity="0.996078431372549" d="M 464.5 329 L 469 329.5 L 464.5 330 L 464.5 329 Z " /><path fill="#7fde30" stroke="#7fde30" stroke-width="1" opacity="0.996078431372549" d="M 493.5 338 L 494.5 340 L 493.5 338 Z " /><path fill="#7fde30" stroke="#7fde30" stroke-width="1" opacity="0.996078431372549" d="M 501.5 346 L 502.5 348 L 501.5 346 Z " /><path fill="#7fde30" stroke="#7fde30" stroke-width="1" opacity="0.996078431372549" d="M 480.5 354 L 481.5 356 L 480.5 354 Z " /><path fill="#7fde30" stroke="#7fde30" stroke-width="1" opacity="0.996078431372549" d="M 339.5 363 L 344 363.5 L 339.5 364 L 339.5 363 Z " /><path fill="#7fde30" stroke="#7fde30" stroke-width="1" opacity="0.996078431372549" d="M 511.5 372 L 512 374.5 L 511 374.5 L 511.5 372 Z " /><path fill="#7fde30" stroke="#7fde30" stroke-width="1" opacity="0.996078431372549" d="M 388.5 374 L 387.5 376 L 388.5 374 Z " /><path fill="#7fde30" stroke="#7fde30" stroke-width="1" opacity="0.996078431372549" d="M 236.5 378 L 237.5 380 L 236.5 378 Z " /><path fill="#7fde30" stroke="#7fde30" stroke-width="1" opacity="0.996078431372549" d="M 59.5 386 L 61.5 389 L 59.5 386 Z " /><path fill="#7fde30" stroke="#7fde30" stroke-width="1" opacity="0.996078431372549" d="M 485.5 390 L 482.5 394 L 485.5 390 Z " /><path fill="#7fde30" stroke="#7fde30" stroke-width="1" opacity="0.996078431372549" d="M 63.5 393 L 64 395.5 L 63 395.5 L 63.5 393 Z " /><path fill="#7fde30" stroke="#7fde30" stroke-width="1" opacity="0.996078431372549" d="M 501.5 402 L 500.5 404 L 501.5 402 Z " /><path fill="#7fde30" stroke="#7fde30" stroke-width="1" opacity="0.996078431372549" d="M 495.5 408 L 494.5 410 L 495.5 408 Z " /><path fill="#7fde30" stroke="#7fde30" stroke-width="1" opacity="0.996078431372549" d="M 2.5 443 L 4.5 446 L 2.5 443 Z " /><path fill="#7fde30" stroke="#7fde30" stroke-width="1" opacity="0.996078431372549" d="M 259.5 457 L 262 457.5 L 259.5 458 L 259.5 457 Z " /><path fill="#7fde30" stroke="#7fde30" stroke-width="1" opacity="0.996078431372549" d="M 275.5 457 L 278 457.5 L 275.5 458 L 275.5 457 Z " /><path fill="#7fde30" stroke="#7fde30" stroke-width="1" opacity="1" d="M 328.5 32 L 345.5 33 L 356.5 35 L 377.5 42 Q 401.6 52.9 418 71.5 Q 435.7 90.8 444 119.5 L 447 134.5 L 447 163.5 L 443 182.5 L 435 202.5 Q 423.4 224.9 404.5 240 Q 387 254.5 362.5 262 L 342.5 266 L 318.5 266 L 298.5 262 L 274.5 252 Q 254.9 241.1 241 224.5 Q 225.8 206.7 218 181.5 L 214 161.5 L 214 137.5 L 218 117.5 L 230 89.5 Q 241.3 71.3 257.5 58 Q 272 46 291.5 39 L 309.5 34 L 327.5 33 L 328.5 32 Z M 320 53 L 305 56 L 291 61 L 270 74 Q 257 84 248 99 L 238 121 L 234 142 L 235 165 L 240 184 Q 247 201 258 214 Q 272 229 292 238 L 306 243 L 316 245 L 323 245 L 324 246 L 338 246 L 339 245 L 346 245 L 356 243 Q 377 237 393 224 Q 407 212 416 196 L 424 176 L 427 161 L 427 139 L 423 120 L 415 102 L 401 82 L 384 68 L 361 57 L 342 53 L 320 53 Z " /><path fill="#7fde30" stroke="#7fde30" stroke-width="1" opacity="1" d="M 329.5 75 L 332.5 75 L 339 79.5 L 341 83.5 L 341 96 L 362.5 96 L 370 99 Q 372.7 102 373 108.5 L 368.5 115 L 364.5 117 L 316.5 117 L 310 122.5 L 309 131.5 L 314.5 138 L 316.5 139 L 344.5 139 L 349.5 140 Q 361.8 143.7 368 153.5 Q 373.5 161 373 174.5 Q 370.2 187.7 361.5 195 Q 354.3 202 341 202 L 341 214.5 L 338 221 L 334.5 223 L 327.5 223 L 322 218.5 Q 318.6 212.2 320 202 L 295.5 202 L 290 197.5 L 289 188.5 L 293.5 183 L 295.5 182 L 343.5 182 Q 349.6 180.6 352 175.5 Q 354 164 347.5 161 L 345.5 160 L 320.5 160 L 309.5 158 Q 300.5 154.5 295 147.5 L 289 134.5 L 289 121.5 Q 292 109.5 300.5 103 Q 307.2 96.4 320 97 Q 318.6 84.7 323 78 L 329.5 75 Z " /><path fill="#7fde30" stroke="#7fde30" stroke-width="1" opacity="1" d="M 11.5 256 L 95.5 256 Q 102.1 256.9 105 261.5 L 106 263.5 L 106 278 L 172.5 277 L 173.5 278 L 196.5 279 L 218.5 284 L 240.5 294 L 247.5 299 L 367.5 299 Q 387.4 302.6 397 316.5 L 404 330.5 L 405 346 L 408.5 346 L 458.5 330 L 474.5 330 Q 491.8 333.7 501 345.5 Q 513 357 511 382.5 Q 507.3 398.8 496.5 408 L 491.5 412 L 474.5 420 L 380.5 458 L 356.5 466 L 321.5 474 L 300.5 476 L 299.5 477 L 287.5 477 L 286.5 478 L 250.5 478 L 249.5 477 L 237.5 477 L 236.5 476 L 215.5 474 L 180.5 466 L 139.5 451 L 106 434 Q 107.6 443.2 101.5 446 L 95.5 448 L 11.5 448 Q 4.9 447.1 2 442.5 L 0 436.5 L 0 267.5 Q 0.9 260.9 5.5 258 L 11.5 256 Z M 21 277 L 21 427 L 86 427 L 86 277 L 21 277 Z M 106 298 L 106 410 Q 136 430 175 443 L 214 453 L 232 455 L 233 456 L 259 457 L 260 458 L 278 458 L 279 457 L 295 457 L 296 456 L 312 455 L 353 446 Q 420 422 483 394 Q 489 389 491 380 L 491 370 L 487 361 Q 482 352 470 350 L 459 351 L 394 371 L 378 381 L 369 383 L 359 383 L 358 384 L 246 384 L 238 381 L 235 375 L 237 368 L 244 363 L 339 363 L 340 364 L 345 363 L 367 363 L 375 360 Q 381 356 384 348 Q 386 334 380 328 Q 376 322 369 320 L 255 320 L 254 319 L 243 319 Q 230 310 215 304 L 193 299 L 184 299 L 183 298 L 106 298 Z " /><path fill="#7fde30" stroke="#7fde30" stroke-width="1" opacity="1" d="M 53.5 384 Q 59.3 385.3 62 389.5 L 63 398.5 L 61 402 Q 58 404.7 51.5 405 L 45 400.5 Q 42.3 398.2 43 392.5 L 46.5 387 L 53.5 384 Z " /></svg>