<svg width="512" height="512" version="1.1" xmlns="http://www.w3.org/2000/svg" desc="Created with imagetracer.js version 1.2.6" ><path fill="#7fde30" stroke="#7fde30" stroke-width="1" opacity="0.8392156862745098" d="M 324.5 4 L 421.5 102 L 324.5 4 Z " /><path fill="#7fde30" stroke="#7fde30" stroke-width="1" opacity="0.8392156862745098" d="M 225.5 34 L 228 34.5 L 225.5 35 L 225.5 34 Z " /><path fill="#7fde30" stroke="#7fde30" stroke-width="1" opacity="0.8392156862745098" d="M 328.5 37 L 327.5 39 L 328.5 37 Z " /><path fill="#7fde30" stroke="#7fde30" stroke-width="1" opacity="0.8392156862745098" d="M 256.5 45 L 257.5 47 L 256.5 45 Z " /><path fill="#7fde30" stroke="#7fde30" stroke-width="1" opacity="0.8392156862745098" d="M 6.5 46 L 3.5 50 L 6.5 46 Z " /><path fill="#7fde30" stroke="#7fde30" stroke-width="1" opacity="0.8392156862745098" d="M 342.5 47 L 340.5 50 L 342.5 47 Z " /><path fill="#7fde30" stroke="#7fde30" stroke-width="1" opacity="0.8392156862745098" d="M 337.5 51 L 336.5 53 L 337.5 51 Z " /><path fill="#7fde30" stroke="#7fde30" stroke-width="1" opacity="0.8392156862745098" d="M 241.5 54 L 242.5 56 L 241.5 54 Z " /><path fill="#7fde30" stroke="#7fde30" stroke-width="1" opacity="0.8392156862745098" d="M 135.5 56 L 138 56.5 L 135.5 57 L 135.5 56 Z " /><path fill="#7fde30" stroke="#7fde30" stroke-width="1" opacity="0.8392156862745098" d="M 116.5 57 L 117.5 59 L 116.5 57 Z " /><path fill="#7fde30" stroke="#7fde30" stroke-width="1" opacity="0.8392156862745098" d="M 126.5 57 L 129 57.5 L 126.5 58 L 126.5 57 Z " /><path fill="#7fde30" stroke="#7fde30" stroke-width="1" opacity="0.8392156862745098" d="M 247.5 59 L 249.5 62 L 247.5 59 Z " /><path fill="#7fde30" stroke="#7fde30" stroke-width="1" opacity="0.8392156862745098" d="M 99.5 61 L 100.5 63 L 99.5 61 Z " /><path fill="#7fde30" stroke="#7fde30" stroke-width="1" opacity="0.8392156862745098" d="M 276.5 62 L 277.5 64 L 276.5 62 Z " /><path fill="#7fde30" stroke="#7fde30" stroke-width="1" opacity="0.8392156862745098" d="M 253.5 64 L 255.5 67 L 253.5 64 Z " /><path fill="#7fde30" stroke="#7fde30" stroke-width="1" opacity="0.8392156862745098" d="M 102.5 66 L 103 70.5 L 102 70.5 L 102.5 66 Z " /><path fill="#7fde30" stroke="#7fde30" stroke-width="1" opacity="0.8392156862745098" d="M 282.5 67 L 284.5 70 L 282.5 67 Z " /><path fill="#7fde30" stroke="#7fde30" stroke-width="1" opacity="0.8392156862745098" d="M 260.5 70 L 262.5 73 L 260.5 70 Z " /><path fill="#7fde30" stroke="#7fde30" stroke-width="1" opacity="0.8392156862745098" d="M 132.5 73 L 135 73.5 L 132.5 74 L 132.5 73 Z " /><path fill="#7fde30" stroke="#7fde30" stroke-width="1" opacity="0.8392156862745098" d="M 289.5 73 L 290.5 75 L 289.5 73 Z " /><path fill="#7fde30" stroke="#7fde30" stroke-width="1" opacity="0.8392156862745098" d="M 122.5 74 L 125 74.5 L 122.5 75 L 122.5 74 Z " /><path fill="#7fde30" stroke="#7fde30" stroke-width="1" opacity="0.8392156862745098" d="M 266.5 75 L 268.5 78 L 266.5 75 Z " /><path fill="#7fde30" stroke="#7fde30" stroke-width="1" opacity="0.8392156862745098" d="M 101.5 77 L 102 79.5 L 101 79.5 L 101.5 77 Z " /><path fill="#7fde30" stroke="#7fde30" stroke-width="1" opacity="0.8392156862745098" d="M 295.5 78 L 296.5 80 L 295.5 78 Z " /><path fill="#7fde30" stroke="#7fde30" stroke-width="1" opacity="0.8392156862745098" d="M 273.5 81 L 275.5 84 L 273.5 81 Z " /><path fill="#7fde30" stroke="#7fde30" stroke-width="1" opacity="0.8392156862745098" d="M 301.5 83 L 303.5 86 L 301.5 83 Z " /><path fill="#7fde30" stroke="#7fde30" stroke-width="1" opacity="0.8392156862745098" d="M 279.5 86 L 281.5 89 L 279.5 86 Z " /><path fill="#7fde30" stroke="#7fde30" stroke-width="1" opacity="0.8392156862745098" d="M 308.5 89 L 312.5 94 L 308.5 89 Z " /><path fill="#7fde30" stroke="#7fde30" stroke-width="1" opacity="0.8392156862745098" d="M 116.5 91 L 117 93.5 L 116 93.5 L 116.5 91 Z " /><path fill="#7fde30" stroke="#7fde30" stroke-width="1" opacity="0.8392156862745098" d="M 286.5 92 L 287.5 94 L 286.5 92 Z " /><path fill="#7fde30" stroke="#7fde30" stroke-width="1" opacity="0.8392156862745098" d="M 99.5 94 L 100 96.5 L 99 96.5 L 99.5 94 Z " /><path fill="#7fde30" stroke="#7fde30" stroke-width="1" opacity="0.8392156862745098" d="M 246.5 96 L 249.5 100 L 246.5 96 Z " /><path fill="#7fde30" stroke="#7fde30" stroke-width="1" opacity="0.8392156862745098" d="M 292.5 97 L 294.5 100 L 292.5 97 Z " /><path fill="#7fde30" stroke="#7fde30" stroke-width="1" opacity="0.8392156862745098" d="M 389.5 97 L 388.5 99 L 389.5 97 Z " /><path fill="#7fde30" stroke="#7fde30" stroke-width="1" opacity="0.8392156862745098" d="M 254.5 103 L 256.5 106 L 254.5 103 Z " /><path fill="#7fde30" stroke="#7fde30" stroke-width="1" opacity="0.8392156862745098" d="M 226.5 105 L 230 105.5 L 226.5 106 L 226.5 105 Z " /><path fill="#7fde30" stroke="#7fde30" stroke-width="1" opacity="0.8392156862745098" d="M 223.5 106 L 222.5 108 L 223.5 106 Z " /><path fill="#7fde30" stroke="#7fde30" stroke-width="1" opacity="0.8392156862745098" d="M 232.5 106 L 233.5 108 L 232.5 106 Z " /><path fill="#7fde30" stroke="#7fde30" stroke-width="1" opacity="0.8392156862745098" d="M 114.5 108 L 115 110.5 L 114 110.5 L 114.5 108 Z " /><path fill="#7fde30" stroke="#7fde30" stroke-width="1" opacity="0.8392156862745098" d="M 367.5 108 L 368 110.5 L 367 110.5 L 367.5 108 Z " /><path fill="#7fde30" stroke="#7fde30" stroke-width="1" opacity="0.8392156862745098" d="M 261.5 109 L 264.5 113 L 261.5 109 Z " /><path fill="#7fde30" stroke="#7fde30" stroke-width="1" opacity="0.8392156862745098" d="M 319.5 110 L 320 116.5 L 319 116.5 L 319.5 110 Z " /><path fill="#7fde30" stroke="#7fde30" stroke-width="1" opacity="0.8392156862745098" d="M 97.5 111 L 98 113.5 L 97 113.5 L 97.5 111 Z " /><path fill="#7fde30" stroke="#7fde30" stroke-width="1" opacity="0.8392156862745098" d="M 239.5 112 L 240.5 114 L 239.5 112 Z " /><path fill="#7fde30" stroke="#7fde30" stroke-width="1" opacity="0.8392156862745098" d="M 238.5 116 L 237.5 118 L 238.5 116 Z " /><path fill="#7fde30" stroke="#7fde30" stroke-width="1" opacity="0.8392156862745098" d="M 269.5 116 L 271.5 119 L 269.5 116 Z " /><path fill="#7fde30" stroke="#7fde30" stroke-width="1" opacity="0.8392156862745098" d="M 367.5 116 L 368 118.5 L 367 118.5 L 367.5 116 Z " /><path fill="#7fde30" stroke="#7fde30" stroke-width="1" opacity="0.8392156862745098" d="M 232.5 122 L 230.5 125 L 232.5 122 Z " /><path fill="#7fde30" stroke="#7fde30" stroke-width="1" opacity="0.8392156862745098" d="M 276.5 122 L 278.5 125 L 276.5 122 Z " /><path fill="#7fde30" stroke="#7fde30" stroke-width="1" opacity="0.8392156862745098" d="M 422.5 124 L 352 195.5 L 351.5 197 L 351 195.5 L 422.5 124 Z " /><path fill="#7fde30" stroke="#7fde30" stroke-width="1" opacity="0.8392156862745098" d="M 112.5 125 L 113 127.5 L 112 127.5 L 112.5 125 Z " /><path fill="#7fde30" stroke="#7fde30" stroke-width="1" opacity="0.8392156862745098" d="M 255.5 126 L 256.5 128 L 255.5 126 Z " /><path fill="#7fde30" stroke="#7fde30" stroke-width="1" opacity="0.8392156862745098" d="M 95.5 128 L 96 130.5 L 95 130.5 L 95.5 128 Z " /><path fill="#7fde30" stroke="#7fde30" stroke-width="1" opacity="0.8392156862745098" d="M 388.5 128 L 389.5 130 L 388.5 128 Z " /><path fill="#7fde30" stroke="#7fde30" stroke-width="1" opacity="0.8392156862745098" d="M 248.5 129 L 245.5 133 L 248.5 129 Z " /><path fill="#7fde30" stroke="#7fde30" stroke-width="1" opacity="0.8392156862745098" d="M 261.5 131 L 263.5 134 L 261.5 131 Z " /><path fill="#7fde30" stroke="#7fde30" stroke-width="1" opacity="0.8392156862745098" d="M 268.5 137 L 269.5 139 L 268.5 137 Z " /><path fill="#7fde30" stroke="#7fde30" stroke-width="1" opacity="0.8392156862745098" d="M 374.5 137 L 375.5 139 L 374.5 137 Z " /><path fill="#7fde30" stroke="#7fde30" stroke-width="1" opacity="0.8392156862745098" d="M 110.5 142 L 111 144.5 L 110 144.5 L 110.5 142 Z " /><path fill="#7fde30" stroke="#7fde30" stroke-width="1" opacity="0.8392156862745098" d="M 378.5 142 L 379.5 144 L 378.5 142 Z " /><path fill="#7fde30" stroke="#7fde30" stroke-width="1" opacity="0.8392156862745098" d="M 284.5 144 L 292 144.5 L 284.5 145 L 284.5 144 Z " /><path fill="#7fde30" stroke="#7fde30" stroke-width="1" opacity="0.8392156862745098" d="M 93.5 145 L 94 147.5 L 93 147.5 L 93.5 145 Z " /><path fill="#7fde30" stroke="#7fde30" stroke-width="1" opacity="0.8392156862745098" d="M 321.5 151 L 322 160.5 L 321 160.5 L 321.5 151 Z " /><path fill="#7fde30" stroke="#7fde30" stroke-width="1" opacity="0.8392156862745098" d="M 108.5 159 L 109 161.5 L 108 161.5 L 108.5 159 Z " /><path fill="#7fde30" stroke="#7fde30" stroke-width="1" opacity="0.8392156862745098" d="M 91.5 162 L 92 164.5 L 91 164.5 L 91.5 162 Z " /><path fill="#7fde30" stroke="#7fde30" stroke-width="1" opacity="0.8392156862745098" d="M 108.5 166 L 109.5 168 L 108.5 166 Z " /><path fill="#7fde30" stroke="#7fde30" stroke-width="1" opacity="0.8392156862745098" d="M 162.5 168 L 164.5 171 L 162.5 168 Z " /><path fill="#7fde30" stroke="#7fde30" stroke-width="1" opacity="0.8392156862745098" d="M 166.5 173 L 167.5 175 L 166.5 173 Z " /><path fill="#7fde30" stroke="#7fde30" stroke-width="1" opacity="0.8392156862745098" d="M 297.5 177 L 292.5 183 L 297.5 177 Z " /><path fill="#7fde30" stroke="#7fde30" stroke-width="1" opacity="0.8392156862745098" d="M 311.5 186 L 310.5 188 L 311.5 186 Z " /><path fill="#7fde30" stroke="#7fde30" stroke-width="1" opacity="0.8392156862745098" d="M 231.5 188 L 233.5 191 L 231.5 188 Z " /><path fill="#7fde30" stroke="#7fde30" stroke-width="1" opacity="0.8392156862745098" d="M 266.5 189 L 269 189.5 L 266.5 190 L 266.5 189 Z " /><path fill="#7fde30" stroke="#7fde30" stroke-width="1" opacity="0.8392156862745098" d="M 235.5 192 L 238.5 196 L 235.5 192 Z " /><path fill="#7fde30" stroke="#7fde30" stroke-width="1" opacity="0.8392156862745098" d="M 115.5 195 L 116 200.5 L 115 200.5 L 115.5 195 Z " /><path fill="#7fde30" stroke="#7fde30" stroke-width="1" opacity="0.8392156862745098" d="M 302.5 195 L 301.5 197 L 302.5 195 Z " /><path fill="#7fde30" stroke="#7fde30" stroke-width="1" opacity="0.8392156862745098" d="M 3.5 197 L 4.5 199 L 3.5 197 Z " /><path fill="#7fde30" stroke="#7fde30" stroke-width="1" opacity="0.8392156862745098" d="M 241.5 197 L 242.5 199 L 241.5 197 Z " /><path fill="#7fde30" stroke="#7fde30" stroke-width="1" opacity="0.8392156862745098" d="M 6.5 200 L 7.5 202 L 6.5 200 Z " /><path fill="#7fde30" stroke="#7fde30" stroke-width="1" opacity="0.8392156862745098" d="M 16.5 204 L 82 204.5 L 16.5 205 L 16.5 204 Z " /><path fill="#7fde30" stroke="#7fde30" stroke-width="1" opacity="0.8392156862745098" d="M 275.5 206 L 278 206.5 L 275.5 207 L 275.5 206 Z " /><path fill="#7fde30" stroke="#7fde30" stroke-width="1" opacity="0.8392156862745098" d="M 164.5 225 L 162.5 228 L 164.5 225 Z " /><path fill="#7fde30" stroke="#7fde30" stroke-width="1" opacity="0.8392156862745098" d="M 169.5 235 L 191.5 258 L 169.5 235 Z " /><path fill="#7fde30" stroke="#7fde30" stroke-width="1" opacity="0.8392156862745098" d="M 194.5 256 L 193.5 258 L 194.5 256 Z " /><path fill="#7fde30" stroke="#7fde30" stroke-width="1" opacity="0.8392156862745098" d="M 505.5 256 L 508.5 260 L 505.5 256 Z " /><path fill="#7fde30" stroke="#7fde30" stroke-width="1" opacity="0.8392156862745098" d="M 371.5 257 L 373.5 260 L 371.5 257 Z " /><path fill="#7fde30" stroke="#7fde30" stroke-width="1" opacity="0.8392156862745098" d="M 511.5 266 L 512 268.5 L 511 268.5 L 511.5 266 Z " /><path fill="#7fde30" stroke="#7fde30" stroke-width="1" opacity="0.8392156862745098" d="M 325.5 268 L 326.5 270 L 325.5 268 Z " /><path fill="#7fde30" stroke="#7fde30" stroke-width="1" opacity="0.8392156862745098" d="M 373.5 269 L 372.5 271 L 373.5 269 Z " /><path fill="#7fde30" stroke="#7fde30" stroke-width="1" opacity="0.8392156862745098" d="M 204.5 270 L 205 298.5 L 204 298.5 L 204.5 270 Z " /><path fill="#7fde30" stroke="#7fde30" stroke-width="1" opacity="0.8392156862745098" d="M 508.5 308 L 507.5 310 L 508.5 308 Z " /><path fill="#7fde30" stroke="#7fde30" stroke-width="1" opacity="0.8392156862745098" d="M 505.5 311 L 504.5 313 L 505.5 311 Z " /><path fill="#7fde30" stroke="#7fde30" stroke-width="1" opacity="0.8392156862745098" d="M 324.5 315 L 325 411.5 L 324 411.5 L 324.5 315 Z " /><path fill="#7fde30" stroke="#7fde30" stroke-width="1" opacity="0.8392156862745098" d="M 341.5 315 L 359 315.5 L 341.5 316 L 341.5 315 Z " /><path fill="#7fde30" stroke="#7fde30" stroke-width="1" opacity="0.8392156862745098" d="M 461.5 315 L 478 315.5 L 461 316 L 460.5 410 L 460 316.5 L 461.5 315 Z " /><path fill="#7fde30" stroke="#7fde30" stroke-width="1" opacity="0.8392156862745098" d="M 221.5 316 L 222 408.5 L 221 408.5 L 221.5 316 Z " /><path fill="#7fde30" stroke="#7fde30" stroke-width="1" opacity="0.8392156862745098" d="M 377.5 413 L 379.5 416 L 377.5 413 Z " /><path fill="#7fde30" stroke="#7fde30" stroke-width="1" opacity="0.8392156862745098" d="M 320.5 415 L 319.5 417 L 320.5 415 Z " /><path fill="#7fde30" stroke="#7fde30" stroke-width="1" opacity="0.8392156862745098" d="M 435.5 424 L 436 443.5 L 435 443.5 L 435.5 424 Z " /><path fill="#7fde30" stroke="#7fde30" stroke-width="1" opacity="0.8392156862745098" d="M 196.5 425 L 197 445.5 L 196 445.5 L 196.5 425 Z " /><path fill="#7fde30" stroke="#7fde30" stroke-width="1" opacity="0.8392156862745098" d="M 332.5 427 L 333 443.5 L 332 443.5 L 332.5 427 Z " /><path fill="#7fde30" stroke="#7fde30" stroke-width="1" opacity="0.8392156862745098" d="M 194.5 447 L 191.5 451 L 194.5 447 Z " /><path fill="#7fde30" stroke="#7fde30" stroke-width="1" opacity="0.8392156862745098" d="M 506.5 448 L 507.5 450 L 506.5 448 Z " /><path fill="#7fde30" stroke="#7fde30" stroke-width="1" opacity="0.8392156862745098" d="M 511.5 457 L 512 459.5 L 511 459.5 L 511.5 457 Z " /><path fill="#7fde30" stroke="#7fde30" stroke-width="1" opacity="0.8392156862745098" d="M 205.5 460 L 495 460.5 L 205 461 L 204.5 495 L 204 461.5 L 205.5 460 Z " /><path fill="#7fde30" stroke="#7fde30" stroke-width="1" opacity="0.8392156862745098" d="M 202.5 511 L 205 511.5 L 202.5 512 L 202.5 511 Z " /><path fill="#7fde30" stroke="#7fde30" stroke-width="1" opacity="0.8392156862745098" d="M 495.5 511 L 498 511.5 L 495.5 512 L 495.5 511 Z " /><path fill="#7fde30" stroke="#7fde30" stroke-width="1" opacity="0.996078431372549" d="M 313.5 16 L 332 35.5 L 330 36.5 L 331 34.5 L 313.5 16 Z " /><path fill="#7fde30" stroke="#7fde30" stroke-width="1" opacity="0.996078431372549" d="M 252.5 42 L 253.5 44 L 252.5 42 Z " /><path fill="#7fde30" stroke="#7fde30" stroke-width="1" opacity="0.996078431372549" d="M 344.5 47 L 358.5 62 L 344.5 47 Z " /><path fill="#7fde30" stroke="#7fde30" stroke-width="1" opacity="0.996078431372549" d="M 109.5 48 L 113.5 53 L 109.5 48 Z " /><path fill="#7fde30" stroke="#7fde30" stroke-width="1" opacity="0.996078431372549" d="M 245.5 57 L 246.5 59 L 245.5 57 Z " /><path fill="#7fde30" stroke="#7fde30" stroke-width="1" opacity="0.996078431372549" d="M 271.5 58 L 273.5 61 L 271.5 58 Z " /><path fill="#7fde30" stroke="#7fde30" stroke-width="1" opacity="0.996078431372549" d="M 251.5 62 L 252.5 64 L 251.5 62 Z " /><path fill="#7fde30" stroke="#7fde30" stroke-width="1" opacity="0.996078431372549" d="M 278.5 64 L 279.5 66 L 278.5 64 Z " /><path fill="#7fde30" stroke="#7fde30" stroke-width="1" opacity="0.996078431372549" d="M 258.5 68 L 259.5 70 L 258.5 68 Z " /><path fill="#7fde30" stroke="#7fde30" stroke-width="1" opacity="0.996078431372549" d="M 285.5 70 L 286.5 72 L 285.5 70 Z " /><path fill="#7fde30" stroke="#7fde30" stroke-width="1" opacity="0.996078431372549" d="M 264.5 73 L 265.5 75 L 264.5 73 Z " /><path fill="#7fde30" stroke="#7fde30" stroke-width="1" opacity="0.996078431372549" d="M 291.5 75 L 292.5 77 L 291.5 75 Z " /><path fill="#7fde30" stroke="#7fde30" stroke-width="1" opacity="0.996078431372549" d="M 271.5 79 L 272.5 81 L 271.5 79 Z " /><path fill="#7fde30" stroke="#7fde30" stroke-width="1" opacity="0.996078431372549" d="M 297.5 80 L 299.5 83 L 297.5 80 Z " /><path fill="#7fde30" stroke="#7fde30" stroke-width="1" opacity="0.996078431372549" d="M 277.5 84 L 278.5 86 L 277.5 84 Z " /><path fill="#7fde30" stroke="#7fde30" stroke-width="1" opacity="0.996078431372549" d="M 304.5 86 L 305.5 88 L 304.5 86 Z " /><path fill="#7fde30" stroke="#7fde30" stroke-width="1" opacity="0.996078431372549" d="M 377.5 86 L 376.5 88 L 377.5 86 Z " /><path fill="#7fde30" stroke="#7fde30" stroke-width="1" opacity="0.996078431372549" d="M 284.5 90 L 285.5 92 L 284.5 90 Z " /><path fill="#7fde30" stroke="#7fde30" stroke-width="1" opacity="0.996078431372549" d="M 290.5 95 L 291.5 97 L 290.5 95 Z " /><path fill="#7fde30" stroke="#7fde30" stroke-width="1" opacity="0.996078431372549" d="M 392.5 95 L 409.5 113 L 392.5 95 Z " /><path fill="#7fde30" stroke="#7fde30" stroke-width="1" opacity="0.996078431372549" d="M 250.5 100 L 251.5 102 L 250.5 100 Z " /><path fill="#7fde30" stroke="#7fde30" stroke-width="1" opacity="0.996078431372549" d="M 297.5 101 L 299.5 104 L 297.5 101 Z " /><path fill="#7fde30" stroke="#7fde30" stroke-width="1" opacity="0.996078431372549" d="M 257.5 106 L 258.5 108 L 257.5 106 Z " /><path fill="#7fde30" stroke="#7fde30" stroke-width="1" opacity="0.996078431372549" d="M 236.5 109 L 238.5 112 L 236.5 109 Z " /><path fill="#7fde30" stroke="#7fde30" stroke-width="1" opacity="0.996078431372549" d="M 265.5 113 L 266.5 115 L 265.5 113 Z " /><path fill="#7fde30" stroke="#7fde30" stroke-width="1" opacity="0.996078431372549" d="M 409.5 114 L 392.5 132 L 409.5 114 Z " /><path fill="#7fde30" stroke="#7fde30" stroke-width="1" opacity="0.996078431372549" d="M 236.5 118 L 233.5 122 L 236.5 118 Z " /><path fill="#7fde30" stroke="#7fde30" stroke-width="1" opacity="0.996078431372549" d="M 272.5 119 L 273.5 121 L 272.5 119 Z " /><path fill="#7fde30" stroke="#7fde30" stroke-width="1" opacity="0.996078431372549" d="M 298.5 124 L 297.5 126 L 298.5 124 Z " /><path fill="#7fde30" stroke="#7fde30" stroke-width="1" opacity="0.996078431372549" d="M 259.5 129 L 260.5 131 L 259.5 129 Z " /><path fill="#7fde30" stroke="#7fde30" stroke-width="1" opacity="0.996078431372549" d="M 244.5 133 L 243.5 135 L 244.5 133 Z " /><path fill="#7fde30" stroke="#7fde30" stroke-width="1" opacity="0.996078431372549" d="M 266.5 135 L 267.5 137 L 266.5 135 Z " /><path fill="#7fde30" stroke="#7fde30" stroke-width="1" opacity="0.996078431372549" d="M 379.5 144 L 315.5 209 L 379.5 144 Z " /><path fill="#7fde30" stroke="#7fde30" stroke-width="1" opacity="0.996078431372549" d="M 110.5 168 L 111.5 170 L 110.5 168 Z " /><path fill="#7fde30" stroke="#7fde30" stroke-width="1" opacity="0.996078431372549" d="M 244.5 177 L 248.5 182 L 244.5 177 Z " /><path fill="#7fde30" stroke="#7fde30" stroke-width="1" opacity="0.996078431372549" d="M 150.5 179 L 152.5 182 L 150.5 179 Z " /><path fill="#7fde30" stroke="#7fde30" stroke-width="1" opacity="0.996078431372549" d="M 309.5 188 L 308.5 190 L 309.5 188 Z " /><path fill="#7fde30" stroke="#7fde30" stroke-width="1" opacity="0.996078431372549" d="M 304.5 193 L 303.5 195 L 304.5 193 Z " /><path fill="#7fde30" stroke="#7fde30" stroke-width="1" opacity="0.996078431372549" d="M 100.5 194 L 99.5 196 L 100.5 194 Z " /><path fill="#7fde30" stroke="#7fde30" stroke-width="1" opacity="0.996078431372549" d="M 118.5 207 L 119.5 209 L 118.5 207 Z " /><path fill="#7fde30" stroke="#7fde30" stroke-width="1" opacity="0.996078431372549" d="M 151.5 215 L 150.5 217 L 151.5 215 Z " /><path fill="#7fde30" stroke="#7fde30" stroke-width="1" opacity="0.996078431372549" d="M 327.5 258 L 326.5 260 L 327.5 258 Z " /><path fill="#7fde30" stroke="#7fde30" stroke-width="1" opacity="0.996078431372549" d="M 333.5 272 L 367 272.5 L 333.5 273 L 333.5 272 Z " /><path fill="#7fde30" stroke="#7fde30" stroke-width="1" opacity="0.996078431372549" d="M 191.5 308 L 194.5 312 L 191.5 308 Z " /><path fill="#7fde30" stroke="#7fde30" stroke-width="1" opacity="0.996078431372549" d="M 494.5 315 L 495 411.5 L 494 411.5 L 494.5 315 Z " /><path fill="#7fde30" stroke="#7fde30" stroke-width="1" opacity="0.996078431372549" d="M 257.5 413 L 260.5 417 L 257.5 413 Z " /><path fill="#7fde30" stroke="#7fde30" stroke-width="1" opacity="0.996078431372549" d="M 496.5 413 L 499.5 417 L 496.5 413 Z " /><path fill="#7fde30" stroke="#7fde30" stroke-width="1" opacity="0.996078431372549" d="M 507.5 505 L 505.5 508 L 507.5 505 Z " /><path fill="#7fde30" stroke="#7fde30" stroke-width="1" opacity="0.996078431372549" d="M 205.5 511 L 495 511.5 L 205.5 512 L 205.5 511 Z " /><path fill="#7fde30" stroke="#7fde30" stroke-width="1" opacity="1" d="M 311.5 0 Q 318.5 0 322.5 3 L 423 103.5 L 426 109.5 L 426 117.5 L 423 123.5 L 351 195.5 L 351 197 L 362.5 200 L 498.5 253 Q 505.3 255.3 509 260.5 L 512 270.5 L 512 297.5 L 509 307.5 L 503.5 313 L 494 315 L 494 411.5 Q 500.7 415.3 503 423.5 L 503 447 L 508 450.5 L 511 455.5 Q 509.7 460.2 512 461.5 L 512 494.5 L 509 503.5 L 503.5 509 L 499.5 511 L 200.5 511 L 192 505.5 L 188 496.5 L 188 458.5 Q 189.8 450.8 195.5 447 L 197 446.5 L 197 422.5 L 202.5 414 L 205 412.5 L 205 315.5 L 201.5 315 Q 193.6 312.9 190 306.5 L 188 300.5 L 188 277.5 L 120 209.5 L 116 202.5 L 116 192.5 L 113.5 190 L 105 185 Q 103.1 192.9 97.5 198 L 85.5 204 L 13.5 204 Q 6.3 202.2 3 196.5 L 0 186.5 L 0 60.5 L 3 50.5 L 7.5 46 L 14.5 43 L 97.5 43 Q 109.9 45.1 115 54.5 L 117.5 59 L 119.5 58 L 129.5 58 L 130.5 57 L 145.5 56 L 167.5 52 L 204.5 42 L 222.5 35 L 230.5 34 L 241.5 36 Q 252 40 258.5 48 L 302.5 4 L 311.5 0 Z M 314 16 L 295 36 Q 299 41 309 43 L 319 43 Q 327 41 332 36 L 314 16 Z M 283 47 L 271 59 L 307 88 Q 316 95 319 108 Q 321 122 315 129 L 315 133 L 319 140 L 321 148 L 321 165 L 319 173 L 308 191 L 293 202 L 285 205 L 274 207 L 257 205 L 240 196 Q 224 185 220 163 L 220 150 L 224 136 Q 230 122 241 114 L 231 105 L 224 106 L 162 168 L 172 184 L 174 192 L 173 210 L 168 221 L 162 228 L 193 259 L 199 254 L 316 209 L 380 145 L 370 129 L 367 114 L 370 99 Q 373 89 380 84 L 345 47 L 343 47 L 330 56 L 320 59 Q 309 60 303 58 Q 291 54 283 47 Z M 225 51 L 207 58 L 174 67 L 147 72 L 122 74 L 118 75 L 113 124 L 112 125 L 112 133 L 110 142 L 110 150 L 108 159 L 108 167 L 127 180 L 212 95 Q 216 90 225 89 L 232 89 L 242 93 L 280 126 L 284 128 Q 293 129 298 126 Q 302 123 303 118 Q 304 108 300 104 L 241 53 Q 235 49 225 51 Z M 17 59 L 17 188 L 84 188 L 86 187 L 90 182 L 92 158 L 94 149 L 94 141 L 96 132 L 96 124 L 98 115 L 98 107 L 100 98 L 100 90 L 102 81 L 102 73 L 103 72 L 102 64 L 97 59 L 17 59 Z M 392 95 Q 386 99 384 107 Q 382 121 387 128 L 393 132 L 410 115 L 410 113 L 392 95 Z M 253 126 L 250 128 Q 240 135 237 148 L 237 163 L 244 178 Q 252 187 267 190 L 277 190 Q 286 189 292 184 Q 301 177 305 164 Q 307 148 302 141 L 295 144 Q 282 146 276 142 L 256 126 L 253 126 Z M 151 179 L 132 198 L 151 217 Q 156 212 158 204 L 158 193 Q 156 184 151 179 Z M 349 213 L 206 269 L 204 270 L 204 299 L 495 299 L 495 299 L 495 270 L 368 219 L 352 213 L 349 213 Z M 221 315 L 221 410 L 222 410 L 239 410 L 239 316 L 239 315 L 221 315 Z M 256 315 L 256 413 Q 262 416 264 424 L 264 444 L 316 444 L 316 425 L 319 418 L 325 413 L 325 315 L 256 315 Z M 341 315 L 341 410 L 342 410 L 359 410 L 359 316 L 359 315 L 341 315 Z M 375 315 L 375 413 L 377 413 L 381 418 L 384 428 L 384 444 L 385 444 L 436 444 L 436 423 L 439 417 L 444 413 L 444 315 L 375 315 Z M 460 315 L 460 410 L 461 410 L 478 410 L 478 316 L 478 315 L 460 315 Z M 213 426 L 213 444 L 248 444 L 248 426 L 213 426 Z M 332 426 L 332 444 L 367 444 L 367 426 L 332 426 Z M 452 426 L 452 444 L 487 444 L 487 426 L 452 426 Z M 204 460 L 204 495 L 205 495 L 495 495 L 495 461 L 495 460 L 204 460 Z " /><path fill="#7fde30" stroke="#7fde30" stroke-width="1" opacity="1" d="M 332.5 256 L 367.5 256 L 374 260.5 L 375 266.5 L 371.5 271 L 369.5 272 L 329.5 272 Q 323.9 270.1 325 261.5 L 332.5 256 Z " /><path fill="#7fde30" stroke="#7fde30" stroke-width="1" opacity="0" d="M 0 0 L 308 0.5 L 302.5 3 L 258.5 47 Q 252.8 39.7 243.5 36 Q 236.3 32.3 223.5 34 L 201.5 42 L 172.5 50 L 146.5 55 L 117 58 Q 115.9 51.7 110.5 48 L 97.5 42 L 14.5 42 Q 6.1 44.2 2 50.5 L 0.5 54 L 0 0 Z " /><path fill="#7fde30" stroke="#7fde30" stroke-width="1" opacity="0" d="M 319.5 0 L 512 0 L 512 264.5 L 511 264.5 Q 510.1 257.4 504.5 255 L 352 195.5 L 424 123.5 Q 427.9 119.4 427 110.5 L 424 103.5 L 322.5 2 Q 318.7 1.7 319.5 0 Z " /><path fill="#7fde30" stroke="#7fde30" stroke-width="1" opacity="0" d="M 312.5 18 L 330 34.5 L 327.5 38 Q 321.2 43.7 307.5 42 L 296 35.5 L 312.5 18 Z " /><path fill="#7fde30" stroke="#7fde30" stroke-width="1" opacity="0" d="M 282.5 48 L 296.5 57 L 307.5 60 L 318.5 60 Q 334.3 57.3 343.5 48 L 379 83.5 L 376 86.5 L 368 101.5 Q 365.4 109.4 367 121.5 Q 370 135.5 379 143.5 L 313.5 209 L 201.5 252 L 192.5 258 L 163 227.5 Q 175.8 216.8 175 192.5 Q 172.3 176.7 163 167.5 L 223.5 107 L 230.5 106 L 240 113.5 L 236.5 118 L 233 120.5 Q 219 133.5 219 160.5 Q 223.1 185.9 240.5 198 Q 249.2 204.3 261.5 207 L 279.5 207 Q 300.3 202.8 311 188.5 L 321 168.5 L 322 163.5 L 322 148.5 L 319 137.5 L 316 132.5 L 316 128.5 Q 321.7 122.2 320 108.5 Q 316.6 93.4 305.5 86 L 272 58.5 L 282.5 48 Z " /><path fill="#7fde30" stroke="#7fde30" stroke-width="1" opacity="0" d="M 228.5 51 Q 236.8 51.2 241.5 55 L 301 106.5 Q 303.7 110.3 302 118.5 L 299 124 L 293.5 127 L 288.5 128 L 279.5 125 L 241.5 92 Q 235.9 87.6 225.5 88 L 212.5 93 L 126.5 179 L 108 165.5 L 110 156.5 L 110 148.5 L 111 147.5 L 112 131.5 L 113 130.5 L 114 114.5 L 115 113.5 L 119 75 L 145.5 73 L 172.5 68 L 199.5 61 L 228.5 51 Z " /><path fill="#7fde30" stroke="#7fde30" stroke-width="1" opacity="0" d="M 17 60 L 96.5 60 L 101 63.5 Q 103.3 66.7 102 73.5 L 100 82.5 L 100 90.5 L 99 91.5 L 96 124.5 L 94 133.5 L 94 141.5 L 92 150.5 L 92 158.5 L 90 167.5 L 90 175.5 Q 87.8 176.8 89 181.5 L 85.5 186 L 83.5 187 L 17 187 L 17 60 Z " /><path fill="#7fde30" stroke="#7fde30" stroke-width="1" opacity="0" d="M 391.5 96 L 409 113.5 L 391.5 131 Q 384 125 384 111.5 L 386 103.5 L 391.5 96 Z " /><path fill="#7fde30" stroke="#7fde30" stroke-width="1" opacity="0" d="M 252.5 127 L 255.5 127 L 273.5 142 L 282.5 145 L 294.5 145 L 301.5 142 L 304 147.5 L 305 157.5 L 303 167.5 L 300 173.5 L 292.5 182 L 281.5 188 L 265.5 189 Q 250.1 185.9 243 174.5 L 238 163.5 L 237 154.5 L 240 141.5 L 248.5 130 L 252.5 127 Z " /><path fill="#7fde30" stroke="#7fde30" stroke-width="1" opacity="0" d="M 149.5 181 L 154 184.5 Q 158.9 191 157 204.5 Q 155.4 211.5 150.5 215 L 133 198.5 L 149.5 181 Z " /><path fill="#7fde30" stroke="#7fde30" stroke-width="1" opacity="0" d="M 105 186 L 115 192.5 Q 113.3 203.7 118 208.5 L 187 277.5 L 187 299.5 L 189 306.5 L 193.5 312 Q 197.8 316 205 316 L 205 411.5 L 203.5 412 Q 197.8 415.8 196 423.5 L 196 445.5 L 190 451.5 L 187 460.5 L 187 495.5 L 190 504.5 L 194.5 509 L 200 511.5 L 0 512 L 0.5 193 Q 2.7 199.8 8.5 203 L 13.5 205 L 84.5 205 Q 95.5 203 101 195.5 L 105 186 Z " /><path fill="#7fde30" stroke="#7fde30" stroke-width="1" opacity="0" d="M 347.5 214 L 357.5 216 L 495 270.5 L 495 297.5 L 494.5 298 L 205 298 L 205 270.5 L 206.5 269 L 347.5 214 Z M 330 256 L 328 257 L 324 263 Q 324 271 330 273 L 370 273 L 372 272 L 376 266 L 375 261 L 371 256 L 330 256 Z " /><path fill="#7fde30" stroke="#7fde30" stroke-width="1" opacity="0" d="M 511.5 304 L 512 455.5 L 511 455.5 Q 510.1 448 504 445.5 L 504 424.5 Q 502.6 416.9 497.5 413 L 495 411.5 L 495 316.5 L 498.5 316 Q 506.4 313.9 510 307.5 L 511.5 304 Z " /><path fill="#7fde30" stroke="#7fde30" stroke-width="1" opacity="0" d="M 222 316 L 238.5 316 L 239 316.5 L 239 409 L 222.5 409 L 222 408.5 L 222 316 Z " /><path fill="#7fde30" stroke="#7fde30" stroke-width="1" opacity="0" d="M 256 316 L 324 316 L 324 411.5 L 320 414 L 316 421.5 L 315 426.5 L 315 443 L 265 443 L 265 424.5 Q 263.6 416.9 258.5 413 L 256 411.5 L 256 316 Z " /><path fill="#7fde30" stroke="#7fde30" stroke-width="1" opacity="0" d="M 342 316 L 357.5 316 L 358 316.5 L 358 409 L 342.5 409 L 342 408.5 L 342 316 Z " /><path fill="#7fde30" stroke="#7fde30" stroke-width="1" opacity="0" d="M 376 316 L 443 316 L 443 411.5 Q 437.4 415.4 435 422.5 L 435 443 L 384 443 L 384 422.5 Q 382 415 376 411.5 L 376 316 Z " /><path fill="#7fde30" stroke="#7fde30" stroke-width="1" opacity="0" d="M 461 316 L 477.5 316 L 478 316.5 L 478 409 L 461.5 409 L 461 408.5 L 461 316 Z " /><path fill="#7fde30" stroke="#7fde30" stroke-width="1" opacity="0" d="M 214 427 L 247 427 L 247 443 L 214 443 L 214 427 Z " /><path fill="#7fde30" stroke="#7fde30" stroke-width="1" opacity="0" d="M 333 427 L 367 427 L 367 443 L 333 443 L 333 427 Z " /><path fill="#7fde30" stroke="#7fde30" stroke-width="1" opacity="0" d="M 453 427 L 486 427 L 486 443 L 453 443 L 453 427 Z " /><path fill="#7fde30" stroke="#7fde30" stroke-width="1" opacity="0" d="M 205 461 L 494.5 461 L 495 461.5 L 495 495 L 205.5 495 L 205 494.5 L 205 461 Z " /><path fill="#7fde30" stroke="#7fde30" stroke-width="1" opacity="0" d="M 511.5 500 L 512 512 L 500 511.5 L 509 505.5 L 511.5 500 Z " /><path fill="#7fde30" stroke="#7fde30" stroke-width="1" opacity="0.43529411764705883" d="M 322.5 2 L 323.5 4 L 322.5 2 Z " /><path fill="#7fde30" stroke="#7fde30" stroke-width="1" opacity="0.43529411764705883" d="M 302.5 3 L 259.5 47 L 302.5 3 Z " /><path fill="#7fde30" stroke="#7fde30" stroke-width="1" opacity="0.43529411764705883" d="M 312.5 17 L 331 34.5 L 329.5 37 L 330 35.5 L 313.5 18 L 296 34.5 L 297 36.5 L 295 35.5 L 312.5 17 Z " /><path fill="#7fde30" stroke="#7fde30" stroke-width="1" opacity="0.43529411764705883" d="M 235.5 34 L 238 34.5 L 235.5 35 L 235.5 34 Z " /><path fill="#7fde30" stroke="#7fde30" stroke-width="1" opacity="0.43529411764705883" d="M 249.5 39 L 250.5 41 L 249.5 39 Z " /><path fill="#7fde30" stroke="#7fde30" stroke-width="1" opacity="0.43529411764705883" d="M 14.5 42 L 98 42.5 L 14.5 43 L 14.5 42 Z " /><path fill="#7fde30" stroke="#7fde30" stroke-width="1" opacity="0.43529411764705883" d="M 253.5 42 L 255.5 45 L 253.5 42 Z " /><path fill="#7fde30" stroke="#7fde30" stroke-width="1" opacity="0.43529411764705883" d="M 310.5 42 L 316 42.5 L 310.5 43 L 310.5 42 Z " /><path fill="#7fde30" stroke="#7fde30" stroke-width="1" opacity="0.43529411764705883" d="M 282.5 47 L 272.5 58 L 282.5 47 Z " /><path fill="#7fde30" stroke="#7fde30" stroke-width="1" opacity="0.43529411764705883" d="M 343.5 47 L 378.5 83 L 343.5 47 Z " /><path fill="#7fde30" stroke="#7fde30" stroke-width="1" opacity="0.43529411764705883" d="M 110.5 48 L 113.5 52 L 110.5 48 Z " /><path fill="#7fde30" stroke="#7fde30" stroke-width="1" opacity="0.43529411764705883" d="M 284.5 48 L 286.5 51 L 284.5 48 Z " /><path fill="#7fde30" stroke="#7fde30" stroke-width="1" opacity="0.43529411764705883" d="M 339.5 50 L 338.5 52 L 339.5 50 Z " /><path fill="#7fde30" stroke="#7fde30" stroke-width="1" opacity="0.43529411764705883" d="M 163.5 51 L 166 51.5 L 163.5 52 L 163.5 51 Z " /><path fill="#7fde30" stroke="#7fde30" stroke-width="1" opacity="0.43529411764705883" d="M 140.5 55 L 143 55.5 L 140.5 56 L 140.5 55 Z " /><path fill="#7fde30" stroke="#7fde30" stroke-width="1" opacity="0.43529411764705883" d="M 132.5 56 L 135 56.5 L 132.5 57 L 132.5 56 Z " /><path fill="#7fde30" stroke="#7fde30" stroke-width="1" opacity="0.43529411764705883" d="M 243.5 56 L 245.5 59 L 243.5 56 Z " /><path fill="#7fde30" stroke="#7fde30" stroke-width="1" opacity="0.43529411764705883" d="M 121.5 57 L 126 57.5 L 121.5 58 L 121.5 57 Z " /><path fill="#7fde30" stroke="#7fde30" stroke-width="1" opacity="0.43529411764705883" d="M 17.5 59 L 94 59.5 L 17.5 60 L 17.5 59 Z " /><path fill="#7fde30" stroke="#7fde30" stroke-width="1" opacity="0.43529411764705883" d="M 273.5 59 L 275.5 62 L 273.5 59 Z " /><path fill="#7fde30" stroke="#7fde30" stroke-width="1" opacity="0.43529411764705883" d="M 307.5 59 L 319 59.5 L 307.5 60 L 307.5 59 Z " /><path fill="#7fde30" stroke="#7fde30" stroke-width="1" opacity="0.43529411764705883" d="M 250.5 62 L 252.5 65 L 250.5 62 Z " /><path fill="#7fde30" stroke="#7fde30" stroke-width="1" opacity="0.43529411764705883" d="M 279.5 64 L 281.5 67 L 279.5 64 Z " /><path fill="#7fde30" stroke="#7fde30" stroke-width="1" opacity="0.43529411764705883" d="M 256.5 67 L 258.5 70 L 256.5 67 Z " /><path fill="#7fde30" stroke="#7fde30" stroke-width="1" opacity="0.43529411764705883" d="M 155.5 70 L 158 70.5 L 155.5 71 L 155.5 70 Z " /><path fill="#7fde30" stroke="#7fde30" stroke-width="1" opacity="0.43529411764705883" d="M 286.5 70 L 288.5 73 L 286.5 70 Z " /><path fill="#7fde30" stroke="#7fde30" stroke-width="1" opacity="0.43529411764705883" d="M 149.5 71 L 152 71.5 L 149.5 72 L 149.5 71 Z " /><path fill="#7fde30" stroke="#7fde30" stroke-width="1" opacity="0.43529411764705883" d="M 142.5 72 L 146 72.5 L 142.5 73 L 142.5 72 Z " /><path fill="#7fde30" stroke="#7fde30" stroke-width="1" opacity="0.43529411764705883" d="M 135.5 73 L 138 73.5 L 135.5 74 L 135.5 73 Z " /><path fill="#7fde30" stroke="#7fde30" stroke-width="1" opacity="0.43529411764705883" d="M 263.5 73 L 265.5 76 L 263.5 73 Z " /><path fill="#7fde30" stroke="#7fde30" stroke-width="1" opacity="0.43529411764705883" d="M 101.5 74 L 102 76.5 L 101 76.5 L 101.5 74 Z " /><path fill="#7fde30" stroke="#7fde30" stroke-width="1" opacity="0.43529411764705883" d="M 125.5 74 L 130 74.5 L 125.5 75 L 125.5 74 Z " /><path fill="#7fde30" stroke="#7fde30" stroke-width="1" opacity="0.43529411764705883" d="M 292.5 75 L 294.5 78 L 292.5 75 Z " /><path fill="#7fde30" stroke="#7fde30" stroke-width="1" opacity="0.43529411764705883" d="M 118.5 77 L 119 79.5 L 118 79.5 L 118.5 77 Z " /><path fill="#7fde30" stroke="#7fde30" stroke-width="1" opacity="0.43529411764705883" d="M 269.5 78 L 271.5 81 L 269.5 78 Z " /><path fill="#7fde30" stroke="#7fde30" stroke-width="1" opacity="0.43529411764705883" d="M 298.5 80 L 300.5 83 L 298.5 80 Z " /><path fill="#7fde30" stroke="#7fde30" stroke-width="1" opacity="0.43529411764705883" d="M 100.5 82 L 101 85.5 L 100 85.5 L 100.5 82 Z " /><path fill="#7fde30" stroke="#7fde30" stroke-width="1" opacity="0.43529411764705883" d="M 276.5 84 L 277.5 86 L 276.5 84 Z " /><path fill="#7fde30" stroke="#7fde30" stroke-width="1" opacity="0.43529411764705883" d="M 378.5 84 L 376.5 87 L 378.5 84 Z " /><path fill="#7fde30" stroke="#7fde30" stroke-width="1" opacity="0.43529411764705883" d="M 117.5 85 L 118 88.5 L 117 88.5 L 117.5 85 Z " /><path fill="#7fde30" stroke="#7fde30" stroke-width="1" opacity="0.43529411764705883" d="M 305.5 86 L 307.5 89 L 305.5 86 Z " /><path fill="#7fde30" stroke="#7fde30" stroke-width="1" opacity="0.43529411764705883" d="M 225.5 88 L 231 88.5 L 225.5 89 L 225.5 88 Z " /><path fill="#7fde30" stroke="#7fde30" stroke-width="1" opacity="0.43529411764705883" d="M 282.5 89 L 284.5 92 L 282.5 89 Z " /><path fill="#7fde30" stroke="#7fde30" stroke-width="1" opacity="0.43529411764705883" d="M 374.5 89 L 373.5 91 L 374.5 89 Z " /><path fill="#7fde30" stroke="#7fde30" stroke-width="1" opacity="0.43529411764705883" d="M 99.5 91 L 100 93.5 L 99 93.5 L 99.5 91 Z " /><path fill="#7fde30" stroke="#7fde30" stroke-width="1" opacity="0.43529411764705883" d="M 212.5 93 L 127.5 179 L 212.5 93 Z " /><path fill="#7fde30" stroke="#7fde30" stroke-width="1" opacity="0.43529411764705883" d="M 116.5 94 L 117 96.5 L 116 96.5 L 116.5 94 Z " /><path fill="#7fde30" stroke="#7fde30" stroke-width="1" opacity="0.43529411764705883" d="M 244.5 94 L 245.5 96 L 244.5 94 Z " /><path fill="#7fde30" stroke="#7fde30" stroke-width="1" opacity="0.43529411764705883" d="M 288.5 94 L 290.5 97 L 288.5 94 Z " /><path fill="#7fde30" stroke="#7fde30" stroke-width="1" opacity="0.43529411764705883" d="M 392.5 96 L 408.5 113 L 392.5 96 Z " /><path fill="#7fde30" stroke="#7fde30" stroke-width="1" opacity="0.43529411764705883" d="M 98.5 99 L 99 102.5 L 98 102.5 L 98.5 99 Z " /><path fill="#7fde30" stroke="#7fde30" stroke-width="1" opacity="0.43529411764705883" d="M 250.5 99 L 253.5 103 L 250.5 99 Z " /><path fill="#7fde30" stroke="#7fde30" stroke-width="1" opacity="0.43529411764705883" d="M 295.5 100 L 299.5 105 L 295.5 100 Z " /><path fill="#7fde30" stroke="#7fde30" stroke-width="1" opacity="0.43529411764705883" d="M 115.5 102 L 116 105.5 L 115 105.5 L 115.5 102 Z " /><path fill="#7fde30" stroke="#7fde30" stroke-width="1" opacity="0.43529411764705883" d="M 422.5 102 L 423.5 104 L 422.5 102 Z " /><path fill="#7fde30" stroke="#7fde30" stroke-width="1" opacity="0.43529411764705883" d="M 367.5 105 L 368 107.5 L 367 107.5 L 367.5 105 Z " /><path fill="#7fde30" stroke="#7fde30" stroke-width="1" opacity="0.43529411764705883" d="M 258.5 106 L 260.5 109 L 258.5 106 Z " /><path fill="#7fde30" stroke="#7fde30" stroke-width="1" opacity="0.43529411764705883" d="M 97.5 108 L 98 110.5 L 97 110.5 L 97.5 108 Z " /><path fill="#7fde30" stroke="#7fde30" stroke-width="1" opacity="0.43529411764705883" d="M 221.5 108 L 162.5 168 L 221.5 108 Z " /><path fill="#7fde30" stroke="#7fde30" stroke-width="1" opacity="0.43529411764705883" d="M 234.5 108 L 237.5 112 L 234.5 108 Z " /><path fill="#7fde30" stroke="#7fde30" stroke-width="1" opacity="0.43529411764705883" d="M 384.5 108 L 385 110.5 L 384 110.5 L 384.5 108 Z " /><path fill="#7fde30" stroke="#7fde30" stroke-width="1" opacity="0.43529411764705883" d="M 302.5 110 L 303 116.5 L 302 116.5 L 302.5 110 Z " /><path fill="#7fde30" stroke="#7fde30" stroke-width="1" opacity="0.43529411764705883" d="M 426.5 110 L 427 112.5 L 426 112.5 L 426.5 110 Z " /><path fill="#7fde30" stroke="#7fde30" stroke-width="1" opacity="0.43529411764705883" d="M 114.5 111 L 115 113.5 L 114 113.5 L 114.5 111 Z " /><path fill="#7fde30" stroke="#7fde30" stroke-width="1" opacity="0.43529411764705883" d="M 266.5 113 L 268.5 116 L 266.5 113 Z " /><path fill="#7fde30" stroke="#7fde30" stroke-width="1" opacity="0.43529411764705883" d="M 240.5 114 L 239.5 116 L 240.5 114 Z " /><path fill="#7fde30" stroke="#7fde30" stroke-width="1" opacity="0.43529411764705883" d="M 408.5 114 L 392.5 131 L 408.5 114 Z " /><path fill="#7fde30" stroke="#7fde30" stroke-width="1" opacity="0.43529411764705883" d="M 426.5 114 L 427 116.5 L 426 116.5 L 426.5 114 Z " /><path fill="#7fde30" stroke="#7fde30" stroke-width="1" opacity="0.43529411764705883" d="M 96.5 116 L 97 119.5 L 96 119.5 L 96.5 116 Z " /><path fill="#7fde30" stroke="#7fde30" stroke-width="1" opacity="0.43529411764705883" d="M 384.5 116 L 385 118.5 L 384 118.5 L 384.5 116 Z " /><path fill="#7fde30" stroke="#7fde30" stroke-width="1" opacity="0.43529411764705883" d="M 319.5 117 L 320 119.5 L 319 119.5 L 319.5 117 Z " /><path fill="#7fde30" stroke="#7fde30" stroke-width="1" opacity="0.43529411764705883" d="M 235.5 118 L 233.5 121 L 235.5 118 Z " /><path fill="#7fde30" stroke="#7fde30" stroke-width="1" opacity="0.43529411764705883" d="M 113.5 119 L 114 122.5 L 113 122.5 L 113.5 119 Z " /><path fill="#7fde30" stroke="#7fde30" stroke-width="1" opacity="0.43529411764705883" d="M 273.5 119 L 275.5 122 L 273.5 119 Z " /><path fill="#7fde30" stroke="#7fde30" stroke-width="1" opacity="0.43529411764705883" d="M 367.5 119 L 368 121.5 L 367 121.5 L 367.5 119 Z " /><path fill="#7fde30" stroke="#7fde30" stroke-width="1" opacity="0.43529411764705883" d="M 300.5 121 L 299.5 123 L 300.5 121 Z " /><path fill="#7fde30" stroke="#7fde30" stroke-width="1" opacity="0.43529411764705883" d="M 297.5 124 L 296.5 126 L 297.5 124 Z " /><path fill="#7fde30" stroke="#7fde30" stroke-width="1" opacity="0.43529411764705883" d="M 95.5 125 L 96 127.5 L 95 127.5 L 95.5 125 Z " /><path fill="#7fde30" stroke="#7fde30" stroke-width="1" opacity="0.43529411764705883" d="M 387.5 126 L 388.5 128 L 387.5 126 Z " /><path fill="#7fde30" stroke="#7fde30" stroke-width="1" opacity="0.43529411764705883" d="M 285.5 127 L 288 127.5 L 285.5 128 L 285.5 127 Z " /><path fill="#7fde30" stroke="#7fde30" stroke-width="1" opacity="0.43529411764705883" d="M 289.5 127 L 292 127.5 L 289.5 128 L 289.5 127 Z " /><path fill="#7fde30" stroke="#7fde30" stroke-width="1" opacity="0.43529411764705883" d="M 112.5 128 L 113 130.5 L 112 130.5 L 112.5 128 Z " /><path fill="#7fde30" stroke="#7fde30" stroke-width="1" opacity="0.43529411764705883" d="M 250.5 128 L 249.5 130 L 250.5 128 Z " /><path fill="#7fde30" stroke="#7fde30" stroke-width="1" opacity="0.43529411764705883" d="M 257.5 128 L 259.5 131 L 257.5 128 Z " /><path fill="#7fde30" stroke="#7fde30" stroke-width="1" opacity="0.43529411764705883" d="M 94.5 133 L 95 136.5 L 94 136.5 L 94.5 133 Z " /><path fill="#7fde30" stroke="#7fde30" stroke-width="1" opacity="0.43529411764705883" d="M 244.5 134 L 243.5 136 L 244.5 134 Z " /><path fill="#7fde30" stroke="#7fde30" stroke-width="1" opacity="0.43529411764705883" d="M 264.5 134 L 266.5 137 L 264.5 134 Z " /><path fill="#7fde30" stroke="#7fde30" stroke-width="1" opacity="0.43529411764705883" d="M 111.5 136 L 112 139.5 L 111 139.5 L 111.5 136 Z " /><path fill="#7fde30" stroke="#7fde30" stroke-width="1" opacity="0.43529411764705883" d="M 375.5 139 L 377.5 142 L 375.5 139 Z " /><path fill="#7fde30" stroke="#7fde30" stroke-width="1" opacity="0.43529411764705883" d="M 93.5 142 L 94 144.5 L 93 144.5 L 93.5 142 Z " /><path fill="#7fde30" stroke="#7fde30" stroke-width="1" opacity="0.43529411764705883" d="M 292.5 144 L 295 144.5 L 292.5 145 L 292.5 144 Z " /><path fill="#7fde30" stroke="#7fde30" stroke-width="1" opacity="0.43529411764705883" d="M 378.5 144 L 314.5 209 L 378.5 144 Z " /><path fill="#7fde30" stroke="#7fde30" stroke-width="1" opacity="0.43529411764705883" d="M 110.5 145 L 111 147.5 L 110 147.5 L 110.5 145 Z " /><path fill="#7fde30" stroke="#7fde30" stroke-width="1" opacity="0.43529411764705883" d="M 321.5 148 L 322 150.5 L 321 150.5 L 321.5 148 Z " /><path fill="#7fde30" stroke="#7fde30" stroke-width="1" opacity="0.43529411764705883" d="M 92.5 150 L 93 153.5 L 92 153.5 L 92.5 150 Z " /><path fill="#7fde30" stroke="#7fde30" stroke-width="1" opacity="0.43529411764705883" d="M 237.5 150 L 238 153.5 L 237 153.5 L 237.5 150 Z " /><path fill="#7fde30" stroke="#7fde30" stroke-width="1" opacity="0.43529411764705883" d="M 304.5 150 L 305 152.5 L 304 152.5 L 304.5 150 Z " /><path fill="#7fde30" stroke="#7fde30" stroke-width="1" opacity="0.43529411764705883" d="M 219.5 151 L 220 160.5 L 219 160.5 L 219.5 151 Z " /><path fill="#7fde30" stroke="#7fde30" stroke-width="1" opacity="0.43529411764705883" d="M 109.5 153 L 110 156.5 L 109 156.5 L 109.5 153 Z " /><path fill="#7fde30" stroke="#7fde30" stroke-width="1" opacity="0.43529411764705883" d="M 237.5 157 L 238 160.5 L 237 160.5 L 237.5 157 Z " /><path fill="#7fde30" stroke="#7fde30" stroke-width="1" opacity="0.43529411764705883" d="M 304.5 158 L 305 161.5 L 304 161.5 L 304.5 158 Z " /><path fill="#7fde30" stroke="#7fde30" stroke-width="1" opacity="0.43529411764705883" d="M 91.5 159 L 92 161.5 L 91 161.5 L 91.5 159 Z " /><path fill="#7fde30" stroke="#7fde30" stroke-width="1" opacity="0.43529411764705883" d="M 321.5 161 L 322 163.5 L 321 163.5 L 321.5 161 Z " /><path fill="#7fde30" stroke="#7fde30" stroke-width="1" opacity="0.43529411764705883" d="M 108.5 162 L 109 164.5 L 108 164.5 L 108.5 162 Z " /><path fill="#7fde30" stroke="#7fde30" stroke-width="1" opacity="0.43529411764705883" d="M 90.5 167 L 91 170.5 L 90 170.5 L 90.5 167 Z " /><path fill="#7fde30" stroke="#7fde30" stroke-width="1" opacity="0.43529411764705883" d="M 111.5 168 L 112.5 170 L 111.5 168 Z " /><path fill="#7fde30" stroke="#7fde30" stroke-width="1" opacity="0.43529411764705883" d="M 115.5 171 L 116.5 173 L 115.5 171 Z " /><path fill="#7fde30" stroke="#7fde30" stroke-width="1" opacity="0.43529411764705883" d="M 165.5 171 L 166.5 173 L 165.5 171 Z " /><path fill="#7fde30" stroke="#7fde30" stroke-width="1" opacity="0.43529411764705883" d="M 89.5 176 L 90 178.5 L 89 178.5 L 89.5 176 Z " /><path fill="#7fde30" stroke="#7fde30" stroke-width="1" opacity="0.43529411764705883" d="M 244.5 176 L 250.5 183 L 244.5 176 Z " /><path fill="#7fde30" stroke="#7fde30" stroke-width="1" opacity="0.43529411764705883" d="M 124.5 177 L 125.5 179 L 124.5 177 Z " /><path fill="#7fde30" stroke="#7fde30" stroke-width="1" opacity="0.43529411764705883" d="M 149.5 180 L 153 182.5 L 150.5 181 L 133 197.5 L 149.5 215 L 152.5 213 L 150.5 216 L 132 198.5 L 149.5 180 Z " /><path fill="#7fde30" stroke="#7fde30" stroke-width="1" opacity="0.43529411764705883" d="M 291.5 182 L 290.5 184 L 291.5 182 Z " /><path fill="#7fde30" stroke="#7fde30" stroke-width="1" opacity="0.43529411764705883" d="M 87.5 184 L 86.5 186 L 87.5 184 Z " /><path fill="#7fde30" stroke="#7fde30" stroke-width="1" opacity="0.43529411764705883" d="M 229.5 186 L 230.5 188 L 229.5 186 Z " /><path fill="#7fde30" stroke="#7fde30" stroke-width="1" opacity="0.43529411764705883" d="M 17.5 187 L 83 187.5 L 17.5 188 L 17.5 187 Z " /><path fill="#7fde30" stroke="#7fde30" stroke-width="1" opacity="0.43529411764705883" d="M 108.5 187 L 109.5 189 L 108.5 187 Z " /><path fill="#7fde30" stroke="#7fde30" stroke-width="1" opacity="0.43529411764705883" d="M 310.5 188 L 303.5 196 L 310.5 188 Z " /><path fill="#7fde30" stroke="#7fde30" stroke-width="1" opacity="0.43529411764705883" d="M 269.5 189 L 274 189.5 L 269.5 190 L 269.5 189 Z " /><path fill="#7fde30" stroke="#7fde30" stroke-width="1" opacity="0.43529411764705883" d="M 115.5 192 L 116 194.5 L 115 194.5 L 115.5 192 Z " /><path fill="#7fde30" stroke="#7fde30" stroke-width="1" opacity="0.43529411764705883" d="M 174.5 192 L 175 196.5 L 174 196.5 L 174.5 192 Z " /><path fill="#7fde30" stroke="#7fde30" stroke-width="1" opacity="0.43529411764705883" d="M 157.5 194 L 158 201.5 L 157 201.5 L 157.5 194 Z " /><path fill="#7fde30" stroke="#7fde30" stroke-width="1" opacity="0.43529411764705883" d="M 100.5 195 L 96.5 200 L 100.5 195 Z " /><path fill="#7fde30" stroke="#7fde30" stroke-width="1" opacity="0.43529411764705883" d="M 239.5 196 L 240.5 198 L 239.5 196 Z " /><path fill="#7fde30" stroke="#7fde30" stroke-width="1" opacity="0.43529411764705883" d="M 300.5 197 L 299.5 199 L 300.5 197 Z " /><path fill="#7fde30" stroke="#7fde30" stroke-width="1" opacity="0.43529411764705883" d="M 174.5 199 L 175 203.5 L 174 203.5 L 174.5 199 Z " /><path fill="#7fde30" stroke="#7fde30" stroke-width="1" opacity="0.43529411764705883" d="M 94.5 200 L 93.5 202 L 94.5 200 Z " /><path fill="#7fde30" stroke="#7fde30" stroke-width="1" opacity="0.43529411764705883" d="M 13.5 204 L 16 204.5 L 13.5 205 L 13.5 204 Z " /><path fill="#7fde30" stroke="#7fde30" stroke-width="1" opacity="0.43529411764705883" d="M 82.5 204 L 85 204.5 L 82.5 205 L 82.5 204 Z " /><path fill="#7fde30" stroke="#7fde30" stroke-width="1" opacity="0.43529411764705883" d="M 261.5 206 L 264 206.5 L 261.5 207 L 261.5 206 Z " /><path fill="#7fde30" stroke="#7fde30" stroke-width="1" opacity="0.43529411764705883" d="M 118.5 208 L 188 277.5 L 188 299.5 L 187 299.5 L 187 277.5 L 118.5 208 Z " /><path fill="#7fde30" stroke="#7fde30" stroke-width="1" opacity="0.43529411764705883" d="M 168.5 220 L 167.5 222 L 168.5 220 Z " /><path fill="#7fde30" stroke="#7fde30" stroke-width="1" opacity="0.43529411764705883" d="M 166.5 223 L 165.5 225 L 166.5 223 Z " /><path fill="#7fde30" stroke="#7fde30" stroke-width="1" opacity="0.43529411764705883" d="M 162.5 228 L 168.5 235 L 162.5 228 Z " /><path fill="#7fde30" stroke="#7fde30" stroke-width="1" opacity="0.43529411764705883" d="M 327.5 257 L 326.5 259 L 327.5 257 Z " /><path fill="#7fde30" stroke="#7fde30" stroke-width="1" opacity="0.43529411764705883" d="M 375.5 263 L 376 265.5 L 375 265.5 L 375.5 263 Z " /><path fill="#7fde30" stroke="#7fde30" stroke-width="1" opacity="0.43529411764705883" d="M 205.5 298 L 495 298.5 L 205.5 299 L 205.5 298 Z " /><path fill="#7fde30" stroke="#7fde30" stroke-width="1" opacity="0.43529411764705883" d="M 191.5 309 L 193.5 312 L 191.5 309 Z " /><path fill="#7fde30" stroke="#7fde30" stroke-width="1" opacity="0.43529411764705883" d="M 201.5 315 L 204 315.5 L 201.5 316 L 201.5 315 Z " /><path fill="#7fde30" stroke="#7fde30" stroke-width="1" opacity="0.43529411764705883" d="M 222.5 315 L 239 315.5 L 222.5 316 L 222.5 315 Z " /><path fill="#7fde30" stroke="#7fde30" stroke-width="1" opacity="0.43529411764705883" d="M 256.5 315 L 324 315.5 L 256.5 316 L 256.5 315 Z " /><path fill="#7fde30" stroke="#7fde30" stroke-width="1" opacity="0.43529411764705883" d="M 376.5 315 L 442.5 315 L 444 316.5 L 444 411.5 L 441.5 414 L 443 411.5 L 443 316 L 376 316 L 376 411.5 L 377 412.5 L 375 411.5 L 375 316.5 L 376.5 315 Z " /><path fill="#7fde30" stroke="#7fde30" stroke-width="1" opacity="0.43529411764705883" d="M 495.5 315 L 499 315.5 L 495.5 316 L 495.5 315 Z " /><path fill="#7fde30" stroke="#7fde30" stroke-width="1" opacity="0.43529411764705883" d="M 341.5 316 L 342 409 L 357.5 409 L 358 408.5 L 358 316.5 L 359 316.5 L 359 408.5 L 357.5 410 L 342.5 410 L 341 408.5 L 341.5 316 Z " /><path fill="#7fde30" stroke="#7fde30" stroke-width="1" opacity="0.43529411764705883" d="M 222.5 409 L 239 409.5 L 222.5 410 L 222.5 409 Z " /><path fill="#7fde30" stroke="#7fde30" stroke-width="1" opacity="0.43529411764705883" d="M 461.5 409 L 478 409.5 L 461.5 410 L 461.5 409 Z " /><path fill="#7fde30" stroke="#7fde30" stroke-width="1" opacity="0.43529411764705883" d="M 203.5 412 L 199.5 417 L 203.5 412 Z " /><path fill="#7fde30" stroke="#7fde30" stroke-width="1" opacity="0.43529411764705883" d="M 258.5 413 L 260.5 416 L 258.5 413 Z " /><path fill="#7fde30" stroke="#7fde30" stroke-width="1" opacity="0.43529411764705883" d="M 497.5 413 L 499.5 416 L 497.5 413 Z " /><path fill="#7fde30" stroke="#7fde30" stroke-width="1" opacity="0.43529411764705883" d="M 439.5 415 L 438.5 417 L 439.5 415 Z " /><path fill="#7fde30" stroke="#7fde30" stroke-width="1" opacity="0.43529411764705883" d="M 380.5 416 L 381.5 418 L 380.5 416 Z " /><path fill="#7fde30" stroke="#7fde30" stroke-width="1" opacity="0.43529411764705883" d="M 264.5 424 L 265 443 L 315 443 L 315 426.5 L 316 426.5 L 316 444 L 265.5 444 L 264 442.5 L 264.5 424 Z " /><path fill="#7fde30" stroke="#7fde30" stroke-width="1" opacity="0.43529411764705883" d="M 503.5 424 L 504 445.5 L 506 447.5 L 503 445.5 L 503.5 424 Z " /><path fill="#7fde30" stroke="#7fde30" stroke-width="1" opacity="0.43529411764705883" d="M 214.5 426 L 246.5 426 L 248 427.5 L 248 442.5 L 246.5 444 L 213 444 L 213 427.5 L 214.5 426 Z M 214 427 L 214 443 L 247 443 L 247 427 L 214 427 Z " /><path fill="#7fde30" stroke="#7fde30" stroke-width="1" opacity="0.43529411764705883" d="M 333.5 426 L 367 426.5 L 333.5 427 L 333.5 426 Z " /><path fill="#7fde30" stroke="#7fde30" stroke-width="1" opacity="0.43529411764705883" d="M 453.5 426 L 485.5 426 L 487 427.5 L 487 442.5 L 485.5 444 L 452 444 L 452 427.5 L 453.5 426 Z M 453 427 L 453 443 L 486 443 L 486 427 L 453 427 Z " /><path fill="#7fde30" stroke="#7fde30" stroke-width="1" opacity="0.43529411764705883" d="M 333.5 443 L 367 443.5 L 333.5 444 L 333.5 443 Z " /><path fill="#7fde30" stroke="#7fde30" stroke-width="1" opacity="0.43529411764705883" d="M 384.5 443 L 435 443.5 L 384.5 444 L 384.5 443 Z " /><path fill="#7fde30" stroke="#7fde30" stroke-width="1" opacity="0.43529411764705883" d="M 508.5 450 L 509.5 452 L 508.5 450 Z " /><path fill="#7fde30" stroke="#7fde30" stroke-width="1" opacity="0.43529411764705883" d="M 187.5 460 L 188 495.5 L 187 495.5 L 187.5 460 Z " /><path fill="#7fde30" stroke="#7fde30" stroke-width="1" opacity="0.43529411764705883" d="M 190.5 504 L 191.5 506 L 190.5 504 Z " /><path fill="#7fde30" stroke="#7fde30" stroke-width="1" opacity="0.43529411764705883" d="M 508.5 505 L 505.5 509 L 508.5 505 Z " /><path fill="#7fde30" stroke="#7fde30" stroke-width="1" opacity="0.43529411764705883" d="M 193.5 507 L 194.5 509 L 193.5 507 Z " /></svg>