<svg width="512" height="512" version="1.1" xmlns="http://www.w3.org/2000/svg" desc="Created with imagetracer.js version 1.2.6" ><path fill="#7fde30" stroke="#7fde30" stroke-width="1" opacity="0.9490196078431372" d="M 383.5 25 L 384.5 27 L 383.5 25 Z " /><path fill="#7fde30" stroke="#7fde30" stroke-width="1" opacity="0.9490196078431372" d="M 384.5 37 L 381.5 41 L 384.5 37 Z " /><path fill="#7fde30" stroke="#7fde30" stroke-width="1" opacity="0.9490196078431372" d="M 403.5 38 L 405 38.5 L 400.5 42 L 403.5 38 Z " /><path fill="#7fde30" stroke="#7fde30" stroke-width="1" opacity="0.9490196078431372" d="M 406.5 48 L 407.5 50 L 406.5 48 Z " /><path fill="#7fde30" stroke="#7fde30" stroke-width="1" opacity="0.9490196078431372" d="M 416.5 48 L 415.5 50 L 416.5 48 Z " /><path fill="#7fde30" stroke="#7fde30" stroke-width="1" opacity="0.9490196078431372" d="M 370.5 50 L 367.5 54 L 370.5 50 Z " /><path fill="#7fde30" stroke="#7fde30" stroke-width="1" opacity="0.9490196078431372" d="M 390.5 50 L 386.5 55 L 390.5 50 Z " /><path fill="#7fde30" stroke="#7fde30" stroke-width="1" opacity="0.9490196078431372" d="M 356.5 63 L 353.5 67 L 356.5 63 Z " /><path fill="#7fde30" stroke="#7fde30" stroke-width="1" opacity="0.9490196078431372" d="M 375.5 64 L 373.5 67 L 375.5 64 Z " /><path fill="#7fde30" stroke="#7fde30" stroke-width="1" opacity="0.9490196078431372" d="M 378.5 69 L 377.5 71 L 378.5 69 Z " /><path fill="#7fde30" stroke="#7fde30" stroke-width="1" opacity="0.9490196078431372" d="M 431.5 74 L 432 266.5 L 431 266.5 L 431.5 74 Z " /><path fill="#7fde30" stroke="#7fde30" stroke-width="1" opacity="0.9490196078431372" d="M 342.5 76 L 339.5 80 L 342.5 76 Z " /><path fill="#7fde30" stroke="#7fde30" stroke-width="1" opacity="0.9490196078431372" d="M 361.5 77 L 358.5 81 L 361.5 77 Z " /><path fill="#7fde30" stroke="#7fde30" stroke-width="1" opacity="0.9490196078431372" d="M 328.5 89 L 325.5 93 L 328.5 89 Z " /><path fill="#7fde30" stroke="#7fde30" stroke-width="1" opacity="0.9490196078431372" d="M 348.5 89 L 344.5 94 L 348.5 89 Z " /><path fill="#7fde30" stroke="#7fde30" stroke-width="1" opacity="0.9490196078431372" d="M 334.5 102 L 330.5 107 L 334.5 102 Z " /><path fill="#7fde30" stroke="#7fde30" stroke-width="1" opacity="0.9490196078431372" d="M 151.5 179 L 150.5 181 L 151.5 179 Z " /><path fill="#7fde30" stroke="#7fde30" stroke-width="1" opacity="0.9490196078431372" d="M 201.5 179 L 202.5 181 L 201.5 179 Z " /><path fill="#7fde30" stroke="#7fde30" stroke-width="1" opacity="0.9490196078431372" d="M 150.5 270 L 151.5 272 L 150.5 270 Z " /><path fill="#7fde30" stroke="#7fde30" stroke-width="1" opacity="0.9490196078431372" d="M 202.5 270 L 201.5 272 L 202.5 270 Z " /><path fill="#7fde30" stroke="#7fde30" stroke-width="1" opacity="0.9490196078431372" d="M 502.5 296 L 503.5 298 L 502.5 296 Z " /><path fill="#7fde30" stroke="#7fde30" stroke-width="1" opacity="0.9490196078431372" d="M 506.5 300 L 507.5 302 L 506.5 300 Z " /><path fill="#7fde30" stroke="#7fde30" stroke-width="1" opacity="0.9490196078431372" d="M 511.5 313 L 512 317.5 L 511 317.5 L 511.5 313 Z " /><path fill="#7fde30" stroke="#7fde30" stroke-width="1" opacity="0.9490196078431372" d="M 0.5 334 L 1 387.5 L 0 387.5 L 0.5 334 Z " /><path fill="#7fde30" stroke="#7fde30" stroke-width="1" opacity="0.9490196078431372" d="M 503.5 336 L 501.5 339 L 503.5 336 Z " /><path fill="#7fde30" stroke="#7fde30" stroke-width="1" opacity="0.9490196078431372" d="M 238.5 392 L 241 392.5 L 238.5 393 L 238.5 392 Z " /><path fill="#7fde30" stroke="#7fde30" stroke-width="1" opacity="0.9490196078431372" d="M 245.5 406 L 254 406.5 L 245.5 407 L 245.5 406 Z " /><path fill="#7fde30" stroke="#7fde30" stroke-width="1" opacity="0.9490196078431372" d="M 195.5 489 L 203 489.5 L 195.5 490 L 195.5 489 Z " /><path fill="#7fde30" stroke="#7fde30" stroke-width="1" opacity="1" d="M 386.5 15 L 413.5 15 L 417 17.5 L 418 19.5 L 418 46.5 Q 416.1 50.5 410.5 51 L 405 46.5 L 405 38.5 L 403.5 38 L 321.5 115 L 314.5 117 L 266.5 99 L 257.5 97 L 137.5 156 L 131.5 156 Q 126.7 154.7 128 147.5 L 130.5 144 L 244.5 88 L 255.5 83 L 261.5 83 L 312.5 102 L 315.5 102 L 394 28.5 L 386.5 28 L 383 24.5 L 382 20.5 L 386.5 15 Z " /><path fill="#7fde30" stroke="#7fde30" stroke-width="1" opacity="1" d="M 380.5 68 L 426.5 68 L 431 71.5 L 431 268.5 L 428.5 272 L 426.5 273 L 381.5 273 L 377 269.5 L 376 267.5 L 376 73.5 L 380.5 68 Z " /><path fill="#7fde30" stroke="#7fde30" stroke-width="1" opacity="1" d="M 228.5 126 L 275.5 126 L 278 127 L 280 130.5 L 280 267.5 L 276.5 272 L 274.5 273 L 229.5 273 L 226 271 L 225 268.5 L 225 129.5 L 228.5 126 Z " /><path fill="#7fde30" stroke="#7fde30" stroke-width="1" opacity="1" d="M 306.5 141 L 349.5 141 L 355 144.5 L 356 147.5 L 356 266.5 L 352.5 272 L 350.5 273 L 305.5 273 L 301 269.5 L 300 265.5 L 300 148.5 L 302 143 L 306.5 141 Z " /><path fill="#7fde30" stroke="#7fde30" stroke-width="1" opacity="1" d="M 154.5 178 L 198.5 178 L 204 182.5 L 204 268.5 L 200.5 272 L 198.5 273 L 154.5 273 L 149 268.5 L 149 182.5 L 152.5 179 L 154.5 178 Z " /><path fill="#7fde30" stroke="#7fde30" stroke-width="1" opacity="1" d="M 482.5 293 Q 500 290.5 506 299.5 Q 513.5 306 511 322.5 Q 507.7 334.7 498.5 341 L 364.5 432 L 326.5 457 L 299.5 472 L 277.5 480 L 240.5 487 L 222.5 488 L 221.5 489 L 178.5 489 L 177.5 488 L 168.5 488 L 167.5 487 L 154.5 486 L 106.5 477 L 78 474 L 78 487.5 L 77 490 L 72.5 492 L 64.5 492 L 63.5 493 L 52.5 493 L 51.5 494 L 5.5 497 L 2 494.5 L 1 492.5 L 1 334.5 L 0 333.5 L 0 322.5 L 1 318.5 L 3.5 316 L 13.5 314 L 59.5 311 L 63 313.5 L 65 320.5 L 65 327 L 100.5 313 L 125.5 308 L 145.5 307 L 146.5 308 L 158.5 309 L 167.5 312 Q 179.3 319.7 194.5 324 Q 199.3 322.8 200.5 325 L 223.5 325 L 224.5 324 L 237.5 324 L 238.5 323 L 277.5 321 L 278.5 320 L 290.5 320 L 291.5 319 L 309.5 319 Q 322.4 321.6 329 330.5 Q 334.5 337 335 348.5 L 331 361.5 L 324.5 369 L 316.5 373 L 298.5 378 L 273.5 383 L 226.5 390 L 225 391.5 L 237.5 392 L 238.5 393 L 260.5 393 L 261.5 392 L 281.5 391 L 307.5 386 L 464.5 300 L 482.5 293 Z M 487 306 L 473 311 L 314 398 L 293 403 L 281 404 L 280 405 L 271 405 L 270 406 L 230 406 L 229 405 L 221 405 L 191 399 Q 184 398 181 394 L 182 387 L 189 383 L 275 369 L 304 363 L 316 359 Q 320 356 321 351 Q 322 343 319 340 L 313 334 L 305 332 L 287 333 L 286 334 L 273 334 L 272 335 L 260 335 L 259 336 L 247 336 L 246 337 L 233 337 L 232 338 L 220 338 L 219 339 L 204 339 L 203 338 L 191 337 Q 175 333 164 325 L 150 321 L 130 321 L 101 327 L 74 338 L 66 343 L 67 345 L 67 356 L 68 357 L 68 368 L 69 369 L 69 379 L 70 380 L 70 391 L 71 392 L 71 403 L 72 404 L 72 415 L 73 416 L 73 427 L 74 428 L 74 439 L 75 440 L 76 460 L 118 465 L 160 473 L 174 474 L 175 475 L 187 475 L 188 476 L 211 476 L 212 475 L 226 475 L 227 474 L 244 473 L 274 467 L 294 460 L 330 439 L 490 331 Q 496 327 498 319 Q 499 311 496 308 L 491 306 L 487 306 Z M 36 424 L 34 425 L 30 430 L 30 439 L 31 440 Q 30 448 32 453 L 37 456 L 44 455 L 47 451 L 46 434 L 44 426 L 41 424 L 36 424 Z " /><path fill="#7fde30" stroke="#7fde30" stroke-width="1" opacity="0" d="M 0 0 L 512 0 L 512 308.5 L 511 308.5 Q 509.6 300.9 504.5 297 Q 498.3 290.2 483.5 292 L 468.5 297 L 307.5 385 L 289.5 389 L 283.5 389 L 275.5 391 L 266.5 391 L 265.5 392 L 234.5 392 L 230 390.5 L 277.5 383 L 309.5 376 L 324.5 370 L 330 364.5 L 335 353.5 L 335 341.5 Q 332.1 329.9 323.5 324 Q 317.5 319.5 308.5 318 L 294.5 318 L 293.5 319 L 281.5 319 L 280.5 320 L 268.5 320 L 267.5 321 L 254.5 321 L 253.5 322 L 241.5 322 L 240.5 323 L 208.5 325 L 207.5 324 L 193.5 323 L 157.5 308 L 152.5 307 L 126.5 307 L 97.5 313 L 66 326 Q 64.3 322.6 65 315.5 L 61.5 311 L 52.5 310 L 51.5 311 L 6.5 314 L 1 317.5 L 0.5 319 L 0 0 Z M 388 14 L 386 15 Q 381 17 382 25 Q 384 30 392 30 L 316 101 L 304 98 L 261 82 L 256 82 L 131 143 L 127 148 L 128 154 L 133 157 L 140 156 L 257 98 L 261 98 L 276 103 L 317 118 L 322 116 L 404 39 Q 402 49 409 51 Q 417 53 419 47 L 419 20 L 418 18 L 414 14 L 388 14 Z M 382 67 L 380 68 L 375 75 L 375 266 L 376 270 L 383 274 L 426 274 L 429 273 L 432 269 L 432 73 L 431 71 L 427 67 L 382 67 Z M 230 125 L 228 126 L 224 131 L 224 269 L 225 271 L 231 274 L 274 274 L 277 273 L 281 268 L 281 132 L 279 128 L 276 125 L 230 125 Z M 305 141 L 303 142 L 300 146 L 300 269 L 301 271 L 307 274 L 350 274 L 356 270 L 356 146 L 355 144 L 352 141 L 305 141 Z M 156 177 L 153 178 L 148 184 L 148 268 L 149 270 L 155 274 L 199 274 L 203 272 L 205 268 L 205 184 L 204 182 L 198 177 L 156 177 Z " /><path fill="#7fde30" stroke="#7fde30" stroke-width="1" opacity="0" d="M 485.5 307 L 492.5 307 L 496 309 Q 498 312 497 319.5 Q 494.8 326.3 489.5 330 L 323.5 442 L 291.5 460 L 266.5 468 L 237.5 473 L 217.5 474 L 216.5 475 L 182.5 475 L 181.5 474 L 157.5 472 L 109.5 463 L 88.5 461 L 87.5 460 L 79.5 460 L 77 459 L 76 452.5 L 76 442.5 L 75 441.5 L 75 430.5 L 74 429.5 L 74 418.5 L 73 417.5 L 73 406.5 L 72 405.5 L 72 394.5 L 71 393.5 L 71 382.5 L 70 381.5 L 70 371.5 L 69 370.5 L 69 359.5 L 68 358.5 L 68 347.5 L 67 342 L 94.5 330 L 111.5 325 L 127.5 322 L 150.5 322 L 161.5 325 L 187.5 337 L 197.5 339 L 205.5 339 L 206.5 340 L 215.5 340 L 216.5 339 L 228.5 339 L 229.5 338 L 241.5 338 L 242.5 337 L 255.5 337 L 256.5 336 L 306.5 333 Q 314.3 334.2 318 339.5 Q 321.3 343.2 320 351.5 L 315.5 358 L 295.5 364 L 270.5 369 L 189.5 382 L 183.5 384 L 181 386.5 L 180 392.5 L 184.5 398 L 222.5 406 L 231.5 406 L 232.5 407 L 266.5 407 L 267.5 406 L 276.5 406 L 277.5 405 L 296.5 403 L 313.5 399 L 468.5 314 L 485.5 307 Z " /><path fill="#7fde30" stroke="#7fde30" stroke-width="1" opacity="0" d="M 511.5 322 L 512 512 L 0.5 512 L 0 511.5 L 0 493.5 L 1 493.5 L 3.5 497 L 12.5 498 L 13.5 497 L 24.5 497 L 25.5 496 L 71.5 493 L 78 489.5 Q 80.7 485.7 79 477.5 L 78 475 L 101.5 477 L 170.5 489 L 180.5 489 L 181.5 490 L 217.5 490 L 218.5 489 L 229.5 489 L 230.5 488 L 246.5 487 L 268.5 483 Q 291.4 477.9 309.5 468 L 458.5 370 L 498.5 342 L 507 333.5 L 511.5 322 Z " /><path fill="#7fde30" stroke="#7fde30" stroke-width="1" opacity="0" d="M 34.5 425 Q 42.5 423.5 44 428.5 L 45 430.5 L 46 450.5 L 42.5 455 Q 35.3 456.3 33 452.5 L 31 441.5 L 31 428.5 L 34.5 425 Z " /><path fill="#7fde30" stroke="#7fde30" stroke-width="1" opacity="0.4470588235294118" d="M 392.5 29 L 390.5 32 L 392.5 29 Z " /><path fill="#7fde30" stroke="#7fde30" stroke-width="1" opacity="0.4470588235294118" d="M 381.5 39 L 376.5 45 L 381.5 39 Z " /><path fill="#7fde30" stroke="#7fde30" stroke-width="1" opacity="0.4470588235294118" d="M 395.5 46 L 390.5 52 L 395.5 46 Z " /><path fill="#7fde30" stroke="#7fde30" stroke-width="1" opacity="0.4470588235294118" d="M 367.5 52 L 362.5 58 L 367.5 52 Z " /><path fill="#7fde30" stroke="#7fde30" stroke-width="1" opacity="0.4470588235294118" d="M 381.5 59 L 376.5 65 L 381.5 59 Z " /><path fill="#7fde30" stroke="#7fde30" stroke-width="1" opacity="0.4470588235294118" d="M 353.5 65 L 348.5 71 L 353.5 65 Z " /><path fill="#7fde30" stroke="#7fde30" stroke-width="1" opacity="0.4470588235294118" d="M 367.5 72 L 362.5 78 L 367.5 72 Z " /><path fill="#7fde30" stroke="#7fde30" stroke-width="1" opacity="0.4470588235294118" d="M 375.5 74 L 376 265.5 L 375 265.5 L 375.5 74 Z " /><path fill="#7fde30" stroke="#7fde30" stroke-width="1" opacity="0.4470588235294118" d="M 339.5 78 L 334.5 84 L 339.5 78 Z " /><path fill="#7fde30" stroke="#7fde30" stroke-width="1" opacity="0.4470588235294118" d="M 353.5 85 L 348.5 91 L 353.5 85 Z " /><path fill="#7fde30" stroke="#7fde30" stroke-width="1" opacity="0.4470588235294118" d="M 325.5 91 L 320.5 97 L 325.5 91 Z " /><path fill="#7fde30" stroke="#7fde30" stroke-width="1" opacity="0.4470588235294118" d="M 339.5 98 L 334.5 104 L 339.5 98 Z " /><path fill="#7fde30" stroke="#7fde30" stroke-width="1" opacity="0.4470588235294118" d="M 325.5 111 L 321.5 116 L 325.5 111 Z " /><path fill="#7fde30" stroke="#7fde30" stroke-width="1" opacity="0.4470588235294118" d="M 277.5 126 L 278.5 128 L 277.5 126 Z " /><path fill="#7fde30" stroke="#7fde30" stroke-width="1" opacity="0.4470588235294118" d="M 280.5 131 L 281 267.5 L 280 267.5 L 280.5 131 Z " /><path fill="#7fde30" stroke="#7fde30" stroke-width="1" opacity="0.4470588235294118" d="M 302.5 142 L 301.5 144 L 302.5 142 Z " /><path fill="#7fde30" stroke="#7fde30" stroke-width="1" opacity="0.4470588235294118" d="M 353.5 142 L 354.5 144 L 353.5 142 Z " /><path fill="#7fde30" stroke="#7fde30" stroke-width="1" opacity="0.4470588235294118" d="M 130.5 143 L 128.5 146 L 130.5 143 Z " /><path fill="#7fde30" stroke="#7fde30" stroke-width="1" opacity="0.4470588235294118" d="M 155.5 177 L 198 177.5 L 155.5 178 L 155.5 177 Z " /><path fill="#7fde30" stroke="#7fde30" stroke-width="1" opacity="0.4470588235294118" d="M 148.5 183 L 149 267.5 L 148 267.5 L 148.5 183 Z " /><path fill="#7fde30" stroke="#7fde30" stroke-width="1" opacity="0.4470588235294118" d="M 225.5 270 L 226.5 272 L 225.5 270 Z " /><path fill="#7fde30" stroke="#7fde30" stroke-width="1" opacity="0.4470588235294118" d="M 301.5 270 L 303.5 273 L 301.5 270 Z " /><path fill="#7fde30" stroke="#7fde30" stroke-width="1" opacity="0.4470588235294118" d="M 430.5 270 L 428.5 273 L 430.5 270 Z " /><path fill="#7fde30" stroke="#7fde30" stroke-width="1" opacity="0.4470588235294118" d="M 154.5 273 L 199 273.5 L 154.5 274 L 154.5 273 Z " /><path fill="#7fde30" stroke="#7fde30" stroke-width="1" opacity="0.4470588235294118" d="M 230.5 273 L 274 273.5 L 230.5 274 L 230.5 273 Z " /><path fill="#7fde30" stroke="#7fde30" stroke-width="1" opacity="0.4470588235294118" d="M 306.5 273 L 350 273.5 L 306.5 274 L 306.5 273 Z " /><path fill="#7fde30" stroke="#7fde30" stroke-width="1" opacity="0.4470588235294118" d="M 382.5 273 L 426 273.5 L 382.5 274 L 382.5 273 Z " /><path fill="#7fde30" stroke="#7fde30" stroke-width="1" opacity="0.4470588235294118" d="M 504.5 297 L 506.5 300 L 504.5 297 Z " /><path fill="#7fde30" stroke="#7fde30" stroke-width="1" opacity="0.4470588235294118" d="M 126.5 307 L 130 307.5 L 126.5 308 L 126.5 307 Z " /><path fill="#7fde30" stroke="#7fde30" stroke-width="1" opacity="0.4470588235294118" d="M 150.5 307 L 153 307.5 L 150.5 308 L 150.5 307 Z " /><path fill="#7fde30" stroke="#7fde30" stroke-width="1" opacity="0.4470588235294118" d="M 52.5 310 L 56 310.5 L 52.5 311 L 52.5 310 Z " /><path fill="#7fde30" stroke="#7fde30" stroke-width="1" opacity="0.4470588235294118" d="M 40.5 311 L 44 311.5 L 40.5 312 L 40.5 311 Z " /><path fill="#7fde30" stroke="#7fde30" stroke-width="1" opacity="0.4470588235294118" d="M 28.5 312 L 33 312.5 L 28.5 313 L 28.5 312 Z " /><path fill="#7fde30" stroke="#7fde30" stroke-width="1" opacity="0.4470588235294118" d="M 16.5 313 L 21 313.5 L 16.5 314 L 16.5 313 Z " /><path fill="#7fde30" stroke="#7fde30" stroke-width="1" opacity="0.4470588235294118" d="M 6.5 314 L 9 314.5 L 6.5 315 L 6.5 314 Z " /><path fill="#7fde30" stroke="#7fde30" stroke-width="1" opacity="0.4470588235294118" d="M 294.5 318 L 297 318.5 L 294.5 319 L 294.5 318 Z " /><path fill="#7fde30" stroke="#7fde30" stroke-width="1" opacity="0.4470588235294118" d="M 306.5 318 L 309 318.5 L 306.5 319 L 306.5 318 Z " /><path fill="#7fde30" stroke="#7fde30" stroke-width="1" opacity="0.4470588235294118" d="M 281.5 319 L 286 319.5 L 281.5 320 L 281.5 319 Z " /><path fill="#7fde30" stroke="#7fde30" stroke-width="1" opacity="0.4470588235294118" d="M 268.5 320 L 273 320.5 L 268.5 321 L 268.5 320 Z " /><path fill="#7fde30" stroke="#7fde30" stroke-width="1" opacity="0.4470588235294118" d="M 133.5 321 L 147 321.5 L 133.5 322 L 133.5 321 Z " /><path fill="#7fde30" stroke="#7fde30" stroke-width="1" opacity="0.4470588235294118" d="M 254.5 321 L 259 321.5 L 254.5 322 L 254.5 321 Z " /><path fill="#7fde30" stroke="#7fde30" stroke-width="1" opacity="0.4470588235294118" d="M 241.5 322 L 246 322.5 L 241.5 323 L 241.5 322 Z " /><path fill="#7fde30" stroke="#7fde30" stroke-width="1" opacity="0.4470588235294118" d="M 65.5 323 L 66 325.5 L 65 325.5 L 65.5 323 Z " /><path fill="#7fde30" stroke="#7fde30" stroke-width="1" opacity="0.4470588235294118" d="M 228.5 323 L 233 323.5 L 228.5 324 L 228.5 323 Z " /><path fill="#7fde30" stroke="#7fde30" stroke-width="1" opacity="0.4470588235294118" d="M 202.5 324 L 208 324.5 L 202.5 325 L 202.5 324 Z " /><path fill="#7fde30" stroke="#7fde30" stroke-width="1" opacity="0.4470588235294118" d="M 214.5 324 L 219 324.5 L 214.5 325 L 214.5 324 Z " /><path fill="#7fde30" stroke="#7fde30" stroke-width="1" opacity="0.4470588235294118" d="M 323.5 324 L 324.5 326 L 323.5 324 Z " /><path fill="#7fde30" stroke="#7fde30" stroke-width="1" opacity="0.4470588235294118" d="M 493.5 326 L 491.5 329 L 493.5 326 Z " /><path fill="#7fde30" stroke="#7fde30" stroke-width="1" opacity="0.4470588235294118" d="M 328.5 329 L 329.5 331 L 328.5 329 Z " /><path fill="#7fde30" stroke="#7fde30" stroke-width="1" opacity="0.4470588235294118" d="M 488.5 330 L 487.5 332 L 488.5 330 Z " /><path fill="#7fde30" stroke="#7fde30" stroke-width="1" opacity="0.4470588235294118" d="M 290.5 333 L 295 333.5 L 290.5 334 L 290.5 333 Z " /><path fill="#7fde30" stroke="#7fde30" stroke-width="1" opacity="0.4470588235294118" d="M 506.5 333 L 505.5 335 L 506.5 333 Z " /><path fill="#7fde30" stroke="#7fde30" stroke-width="1" opacity="0.4470588235294118" d="M 277.5 334 L 282 334.5 L 277.5 335 L 277.5 334 Z " /><path fill="#7fde30" stroke="#7fde30" stroke-width="1" opacity="0.4470588235294118" d="M 264.5 335 L 269 335.5 L 264.5 336 L 264.5 335 Z " /><path fill="#7fde30" stroke="#7fde30" stroke-width="1" opacity="0.4470588235294118" d="M 481.5 335 L 480.5 337 L 481.5 335 Z " /><path fill="#7fde30" stroke="#7fde30" stroke-width="1" opacity="0.4470588235294118" d="M 250.5 336 L 256 336.5 L 250.5 337 L 250.5 336 Z " /><path fill="#7fde30" stroke="#7fde30" stroke-width="1" opacity="0.4470588235294118" d="M 237.5 337 L 242 337.5 L 237.5 338 L 237.5 337 Z " /><path fill="#7fde30" stroke="#7fde30" stroke-width="1" opacity="0.4470588235294118" d="M 224.5 338 L 229 338.5 L 224.5 339 L 224.5 338 Z " /><path fill="#7fde30" stroke="#7fde30" stroke-width="1" opacity="0.4470588235294118" d="M 206.5 339 L 216 339.5 L 206.5 340 L 206.5 339 Z " /><path fill="#7fde30" stroke="#7fde30" stroke-width="1" opacity="0.4470588235294118" d="M 499.5 340 L 498.5 342 L 499.5 340 Z " /><path fill="#7fde30" stroke="#7fde30" stroke-width="1" opacity="0.4470588235294118" d="M 471.5 342 L 470.5 344 L 471.5 342 Z " /><path fill="#7fde30" stroke="#7fde30" stroke-width="1" opacity="0.4470588235294118" d="M 495.5 343 L 494.5 345 L 495.5 343 Z " /><path fill="#7fde30" stroke="#7fde30" stroke-width="1" opacity="0.4470588235294118" d="M 320.5 346 L 321 348.5 L 320 348.5 L 320.5 346 Z " /><path fill="#7fde30" stroke="#7fde30" stroke-width="1" opacity="0.4470588235294118" d="M 67.5 347 L 68 350.5 L 67 350.5 L 67.5 347 Z " /><path fill="#7fde30" stroke="#7fde30" stroke-width="1" opacity="0.4470588235294118" d="M 488.5 348 L 487.5 350 L 488.5 348 Z " /><path fill="#7fde30" stroke="#7fde30" stroke-width="1" opacity="0.4470588235294118" d="M 455.5 353 L 454.5 355 L 455.5 353 Z " /><path fill="#7fde30" stroke="#7fde30" stroke-width="1" opacity="0.4470588235294118" d="M 452.5 355 L 451.5 357 L 452.5 355 Z " /><path fill="#7fde30" stroke="#7fde30" stroke-width="1" opacity="0.4470588235294118" d="M 478.5 355 L 477.5 357 L 478.5 355 Z " /><path fill="#7fde30" stroke="#7fde30" stroke-width="1" opacity="0.4470588235294118" d="M 475.5 357 L 474.5 359 L 475.5 357 Z " /><path fill="#7fde30" stroke="#7fde30" stroke-width="1" opacity="0.4470588235294118" d="M 68.5 359 L 69 362.5 L 68 362.5 L 68.5 359 Z " /><path fill="#7fde30" stroke="#7fde30" stroke-width="1" opacity="0.4470588235294118" d="M 329.5 364 L 328.5 366 L 329.5 364 Z " /><path fill="#7fde30" stroke="#7fde30" stroke-width="1" opacity="0.4470588235294118" d="M 459.5 368 L 458.5 370 L 459.5 368 Z " /><path fill="#7fde30" stroke="#7fde30" stroke-width="1" opacity="0.4470588235294118" d="M 456.5 370 L 455.5 372 L 456.5 370 Z " /><path fill="#7fde30" stroke="#7fde30" stroke-width="1" opacity="0.4470588235294118" d="M 69.5 371 L 70 374.5 L 69 374.5 L 69.5 371 Z " /><path fill="#7fde30" stroke="#7fde30" stroke-width="1" opacity="0.4470588235294118" d="M 253.5 371 L 256 371.5 L 253.5 372 L 253.5 371 Z " /><path fill="#7fde30" stroke="#7fde30" stroke-width="1" opacity="0.4470588235294118" d="M 418.5 378 L 417.5 380 L 418.5 378 Z " /><path fill="#7fde30" stroke="#7fde30" stroke-width="1" opacity="0.4470588235294118" d="M 415.5 380 L 414.5 382 L 415.5 380 Z " /><path fill="#7fde30" stroke="#7fde30" stroke-width="1" opacity="0.4470588235294118" d="M 70.5 382 L 71 386.5 L 70 386.5 L 70.5 382 Z " /><path fill="#7fde30" stroke="#7fde30" stroke-width="1" opacity="0.4470588235294118" d="M 412.5 382 L 411.5 384 L 412.5 382 Z " /><path fill="#7fde30" stroke="#7fde30" stroke-width="1" opacity="0.4470588235294118" d="M 183.5 384 L 181.5 387 L 183.5 384 Z " /><path fill="#7fde30" stroke="#7fde30" stroke-width="1" opacity="0.4470588235294118" d="M 409.5 384 L 408.5 386 L 409.5 384 Z " /><path fill="#7fde30" stroke="#7fde30" stroke-width="1" opacity="0.4470588235294118" d="M 258.5 385 L 261 385.5 L 258.5 386 L 258.5 385 Z " /><path fill="#7fde30" stroke="#7fde30" stroke-width="1" opacity="0.4470588235294118" d="M 252.5 386 L 255 386.5 L 252.5 387 L 252.5 386 Z " /><path fill="#7fde30" stroke="#7fde30" stroke-width="1" opacity="0.4470588235294118" d="M 246.5 387 L 249 387.5 L 246.5 388 L 246.5 387 Z " /><path fill="#7fde30" stroke="#7fde30" stroke-width="1" opacity="0.4470588235294118" d="M 240.5 388 L 243 388.5 L 240.5 389 L 240.5 388 Z " /><path fill="#7fde30" stroke="#7fde30" stroke-width="1" opacity="0.4470588235294118" d="M 283.5 389 L 286 389.5 L 283.5 390 L 283.5 389 Z " /><path fill="#7fde30" stroke="#7fde30" stroke-width="1" opacity="0.4470588235294118" d="M 228.5 390 L 234 391.5 L 230.5 392 L 228.5 390 Z " /><path fill="#7fde30" stroke="#7fde30" stroke-width="1" opacity="0.4470588235294118" d="M 276.5 390 L 279 390.5 L 276.5 391 L 276.5 390 Z " /><path fill="#7fde30" stroke="#7fde30" stroke-width="1" opacity="0.4470588235294118" d="M 266.5 391 L 270 391.5 L 266.5 392 L 266.5 391 Z " /><path fill="#7fde30" stroke="#7fde30" stroke-width="1" opacity="0.4470588235294118" d="M 71.5 394 L 72 398.5 L 71 398.5 L 71.5 394 Z " /><path fill="#7fde30" stroke="#7fde30" stroke-width="1" opacity="0.4470588235294118" d="M 413.5 399 L 412.5 401 L 413.5 399 Z " /><path fill="#7fde30" stroke="#7fde30" stroke-width="1" opacity="0.4470588235294118" d="M 410.5 401 L 409.5 403 L 410.5 401 Z " /><path fill="#7fde30" stroke="#7fde30" stroke-width="1" opacity="0.4470588235294118" d="M 407.5 403 L 406.5 405 L 407.5 403 Z " /><path fill="#7fde30" stroke="#7fde30" stroke-width="1" opacity="0.4470588235294118" d="M 282.5 404 L 285 404.5 L 282.5 405 L 282.5 404 Z " /><path fill="#7fde30" stroke="#7fde30" stroke-width="1" opacity="0.4470588235294118" d="M 222.5 405 L 225 405.5 L 222.5 406 L 222.5 405 Z " /><path fill="#7fde30" stroke="#7fde30" stroke-width="1" opacity="0.4470588235294118" d="M 274.5 405 L 277 405.5 L 274.5 406 L 274.5 405 Z " /><path fill="#7fde30" stroke="#7fde30" stroke-width="1" opacity="0.4470588235294118" d="M 404.5 405 L 403.5 407 L 404.5 405 Z " /><path fill="#7fde30" stroke="#7fde30" stroke-width="1" opacity="0.4470588235294118" d="M 72.5 406 L 73 410.5 L 72 410.5 L 72.5 406 Z " /><path fill="#7fde30" stroke="#7fde30" stroke-width="1" opacity="0.4470588235294118" d="M 232.5 406 L 238 406.5 L 232.5 407 L 232.5 406 Z " /><path fill="#7fde30" stroke="#7fde30" stroke-width="1" opacity="0.4470588235294118" d="M 261.5 406 L 267 406.5 L 261.5 407 L 261.5 406 Z " /><path fill="#7fde30" stroke="#7fde30" stroke-width="1" opacity="0.4470588235294118" d="M 370.5 410 L 369.5 412 L 370.5 410 Z " /><path fill="#7fde30" stroke="#7fde30" stroke-width="1" opacity="0.4470588235294118" d="M 367.5 412 L 366.5 414 L 367.5 412 Z " /><path fill="#7fde30" stroke="#7fde30" stroke-width="1" opacity="0.4470588235294118" d="M 364.5 414 L 363.5 416 L 364.5 414 Z " /><path fill="#7fde30" stroke="#7fde30" stroke-width="1" opacity="0.4470588235294118" d="M 361.5 416 L 360.5 418 L 361.5 416 Z " /><path fill="#7fde30" stroke="#7fde30" stroke-width="1" opacity="0.4470588235294118" d="M 386.5 417 L 385.5 419 L 386.5 417 Z " /><path fill="#7fde30" stroke="#7fde30" stroke-width="1" opacity="0.4470588235294118" d="M 73.5 418 L 74 422.5 L 73 422.5 L 73.5 418 Z " /><path fill="#7fde30" stroke="#7fde30" stroke-width="1" opacity="0.4470588235294118" d="M 358.5 418 L 357.5 420 L 358.5 418 Z " /><path fill="#7fde30" stroke="#7fde30" stroke-width="1" opacity="0.4470588235294118" d="M 383.5 419 L 382.5 421 L 383.5 419 Z " /><path fill="#7fde30" stroke="#7fde30" stroke-width="1" opacity="0.4470588235294118" d="M 355.5 420 L 354.5 422 L 355.5 420 Z " /><path fill="#7fde30" stroke="#7fde30" stroke-width="1" opacity="0.4470588235294118" d="M 380.5 421 L 379.5 423 L 380.5 421 Z " /><path fill="#7fde30" stroke="#7fde30" stroke-width="1" opacity="0.4470588235294118" d="M 36.5 424 L 39 424.5 L 36.5 425 L 36.5 424 Z " /><path fill="#7fde30" stroke="#7fde30" stroke-width="1" opacity="0.4470588235294118" d="M 41.5 425 L 43.5 428 L 41.5 425 Z " /><path fill="#7fde30" stroke="#7fde30" stroke-width="1" opacity="0.4470588235294118" d="M 30.5 430 L 31 433.5 L 30 433.5 L 30.5 430 Z " /><path fill="#7fde30" stroke="#7fde30" stroke-width="1" opacity="0.4470588235294118" d="M 74.5 430 L 75 433.5 L 74 433.5 L 74.5 430 Z " /><path fill="#7fde30" stroke="#7fde30" stroke-width="1" opacity="0.4470588235294118" d="M 45.5 437 L 46 440.5 L 45 440.5 L 45.5 437 Z " /><path fill="#7fde30" stroke="#7fde30" stroke-width="1" opacity="0.4470588235294118" d="M 31.5 442 L 32 445.5 L 31 445.5 L 31.5 442 Z " /><path fill="#7fde30" stroke="#7fde30" stroke-width="1" opacity="0.4470588235294118" d="M 75.5 442 L 76 445.5 L 75 445.5 L 75.5 442 Z " /><path fill="#7fde30" stroke="#7fde30" stroke-width="1" opacity="0.4470588235294118" d="M 320.5 443 L 319.5 445 L 320.5 443 Z " /><path fill="#7fde30" stroke="#7fde30" stroke-width="1" opacity="0.4470588235294118" d="M 333.5 452 L 332.5 454 L 333.5 452 Z " /><path fill="#7fde30" stroke="#7fde30" stroke-width="1" opacity="0.4470588235294118" d="M 76.5 453 L 77 457.5 L 76 457.5 L 76.5 453 Z " /><path fill="#7fde30" stroke="#7fde30" stroke-width="1" opacity="0.4470588235294118" d="M 37.5 455 L 41 455.5 L 37.5 456 L 37.5 455 Z " /><path fill="#7fde30" stroke="#7fde30" stroke-width="1" opacity="0.4470588235294118" d="M 84.5 460 L 88 460.5 L 84.5 461 L 84.5 460 Z " /><path fill="#7fde30" stroke="#7fde30" stroke-width="1" opacity="0.4470588235294118" d="M 93.5 461 L 96 461.5 L 93.5 462 L 93.5 461 Z " /><path fill="#7fde30" stroke="#7fde30" stroke-width="1" opacity="0.4470588235294118" d="M 100.5 462 L 103 462.5 L 100.5 463 L 100.5 462 Z " /><path fill="#7fde30" stroke="#7fde30" stroke-width="1" opacity="0.4470588235294118" d="M 107.5 463 L 110 463.5 L 107.5 464 L 107.5 463 Z " /><path fill="#7fde30" stroke="#7fde30" stroke-width="1" opacity="0.4470588235294118" d="M 137.5 468 L 140 468.5 L 137.5 469 L 137.5 468 Z " /><path fill="#7fde30" stroke="#7fde30" stroke-width="1" opacity="0.4470588235294118" d="M 245.5 471 L 248 471.5 L 245.5 472 L 245.5 471 Z " /><path fill="#7fde30" stroke="#7fde30" stroke-width="1" opacity="0.4470588235294118" d="M 161.5 472 L 164 472.5 L 161.5 473 L 161.5 472 Z " /><path fill="#7fde30" stroke="#7fde30" stroke-width="1" opacity="0.4470588235294118" d="M 238.5 472 L 241 472.5 L 238.5 473 L 238.5 472 Z " /><path fill="#7fde30" stroke="#7fde30" stroke-width="1" opacity="0.4470588235294118" d="M 169.5 473 L 172 473.5 L 169.5 474 L 169.5 473 Z " /><path fill="#7fde30" stroke="#7fde30" stroke-width="1" opacity="0.4470588235294118" d="M 229.5 473 L 233 473.5 L 229.5 474 L 229.5 473 Z " /><path fill="#7fde30" stroke="#7fde30" stroke-width="1" opacity="0.4470588235294118" d="M 78.5 474 L 81 474.5 L 78.5 475 L 78.5 474 Z " /><path fill="#7fde30" stroke="#7fde30" stroke-width="1" opacity="0.4470588235294118" d="M 178.5 474 L 182 474.5 L 178.5 475 L 178.5 474 Z " /><path fill="#7fde30" stroke="#7fde30" stroke-width="1" opacity="0.4470588235294118" d="M 217.5 474 L 222 474.5 L 217.5 475 L 217.5 474 Z " /><path fill="#7fde30" stroke="#7fde30" stroke-width="1" opacity="0.4470588235294118" d="M 86.5 475 L 89 475.5 L 86.5 476 L 86.5 475 Z " /><path fill="#7fde30" stroke="#7fde30" stroke-width="1" opacity="0.4470588235294118" d="M 94.5 476 L 97 476.5 L 94.5 477 L 94.5 476 Z " /><path fill="#7fde30" stroke="#7fde30" stroke-width="1" opacity="0.4470588235294118" d="M 78.5 477 L 79 481.5 L 78 481.5 L 78.5 477 Z " /><path fill="#7fde30" stroke="#7fde30" stroke-width="1" opacity="0.4470588235294118" d="M 108.5 478 L 111 478.5 L 108.5 479 L 108.5 478 Z " /><path fill="#7fde30" stroke="#7fde30" stroke-width="1" opacity="0.4470588235294118" d="M 132.5 482 L 135 482.5 L 132.5 483 L 132.5 482 Z " /><path fill="#7fde30" stroke="#7fde30" stroke-width="1" opacity="0.4470588235294118" d="M 244.5 486 L 247 486.5 L 244.5 487 L 244.5 486 Z " /><path fill="#7fde30" stroke="#7fde30" stroke-width="1" opacity="0.4470588235294118" d="M 236.5 487 L 239 487.5 L 236.5 488 L 236.5 487 Z " /><path fill="#7fde30" stroke="#7fde30" stroke-width="1" opacity="0.4470588235294118" d="M 170.5 488 L 174 488.5 L 170.5 489 L 170.5 488 Z " /><path fill="#7fde30" stroke="#7fde30" stroke-width="1" opacity="0.4470588235294118" d="M 226.5 488 L 230 488.5 L 226.5 489 L 226.5 488 Z " /><path fill="#7fde30" stroke="#7fde30" stroke-width="1" opacity="0.4470588235294118" d="M 77.5 489 L 76.5 491 L 77.5 489 Z " /><path fill="#7fde30" stroke="#7fde30" stroke-width="1" opacity="0.4470588235294118" d="M 181.5 489 L 188 489.5 L 181.5 490 L 181.5 489 Z " /><path fill="#7fde30" stroke="#7fde30" stroke-width="1" opacity="0.4470588235294118" d="M 211.5 489 L 218 489.5 L 211.5 490 L 211.5 489 Z " /><path fill="#7fde30" stroke="#7fde30" stroke-width="1" opacity="0.4470588235294118" d="M 68.5 492 L 72 492.5 L 68.5 493 L 68.5 492 Z " /><path fill="#7fde30" stroke="#7fde30" stroke-width="1" opacity="0.4470588235294118" d="M 56.5 493 L 61 493.5 L 56.5 494 L 56.5 493 Z " /><path fill="#7fde30" stroke="#7fde30" stroke-width="1" opacity="0.4470588235294118" d="M 1.5 494 L 3.5 497 L 1.5 494 Z " /><path fill="#7fde30" stroke="#7fde30" stroke-width="1" opacity="0.4470588235294118" d="M 44.5 494 L 49 494.5 L 44.5 495 L 44.5 494 Z " /><path fill="#7fde30" stroke="#7fde30" stroke-width="1" opacity="0.4470588235294118" d="M 32.5 495 L 37 495.5 L 32.5 496 L 32.5 495 Z " /><path fill="#7fde30" stroke="#7fde30" stroke-width="1" opacity="0.4470588235294118" d="M 21.5 496 L 25 496.5 L 21.5 497 L 21.5 496 Z " /><path fill="#7fde30" stroke="#7fde30" stroke-width="1" opacity="0.4470588235294118" d="M 9.5 497 L 13 497.5 L 9.5 498 L 9.5 497 Z " /><path fill="#7fde30" stroke="#7fde30" stroke-width="1" opacity="0.7725490196078432" d="M 388.5 14 L 412 14.5 L 388.5 15 L 388.5 14 Z " /><path fill="#7fde30" stroke="#7fde30" stroke-width="1" opacity="0.7725490196078432" d="M 418.5 20 L 419 44.5 L 418 44.5 L 418.5 20 Z " /><path fill="#7fde30" stroke="#7fde30" stroke-width="1" opacity="0.7725490196078432" d="M 387.5 28 L 393 28.5 L 387.5 29 L 387.5 28 Z " /><path fill="#7fde30" stroke="#7fde30" stroke-width="1" opacity="0.7725490196078432" d="M 389.5 32 L 385.5 37 L 389.5 32 Z " /><path fill="#7fde30" stroke="#7fde30" stroke-width="1" opacity="0.7725490196078432" d="M 404.5 39 L 405 44.5 L 404 44.5 L 404.5 39 Z " /><path fill="#7fde30" stroke="#7fde30" stroke-width="1" opacity="0.7725490196078432" d="M 399.5 42 L 396.5 46 L 399.5 42 Z " /><path fill="#7fde30" stroke="#7fde30" stroke-width="1" opacity="0.7725490196078432" d="M 375.5 45 L 371.5 50 L 375.5 45 Z " /><path fill="#7fde30" stroke="#7fde30" stroke-width="1" opacity="0.7725490196078432" d="M 385.5 55 L 382.5 59 L 385.5 55 Z " /><path fill="#7fde30" stroke="#7fde30" stroke-width="1" opacity="0.7725490196078432" d="M 361.5 58 L 357.5 63 L 361.5 58 Z " /><path fill="#7fde30" stroke="#7fde30" stroke-width="1" opacity="0.7725490196078432" d="M 372.5 67 L 368.5 72 L 372.5 67 Z " /><path fill="#7fde30" stroke="#7fde30" stroke-width="1" opacity="0.7725490196078432" d="M 383.5 67 L 425 67.5 L 383.5 68 L 383.5 67 Z " /><path fill="#7fde30" stroke="#7fde30" stroke-width="1" opacity="0.7725490196078432" d="M 429.5 69 L 430.5 71 L 429.5 69 Z " /><path fill="#7fde30" stroke="#7fde30" stroke-width="1" opacity="0.7725490196078432" d="M 347.5 71 L 343.5 76 L 347.5 71 Z " /><path fill="#7fde30" stroke="#7fde30" stroke-width="1" opacity="0.7725490196078432" d="M 357.5 81 L 354.5 85 L 357.5 81 Z " /><path fill="#7fde30" stroke="#7fde30" stroke-width="1" opacity="0.7725490196078432" d="M 333.5 84 L 329.5 89 L 333.5 84 Z " /><path fill="#7fde30" stroke="#7fde30" stroke-width="1" opacity="0.7725490196078432" d="M 343.5 94 L 340.5 98 L 343.5 94 Z " /><path fill="#7fde30" stroke="#7fde30" stroke-width="1" opacity="0.7725490196078432" d="M 319.5 97 L 315.5 102 L 319.5 97 Z " /><path fill="#7fde30" stroke="#7fde30" stroke-width="1" opacity="0.7725490196078432" d="M 329.5 107 L 326.5 111 L 329.5 107 Z " /><path fill="#7fde30" stroke="#7fde30" stroke-width="1" opacity="0.7725490196078432" d="M 230.5 125 L 275 125.5 L 230.5 126 L 230.5 125 Z " /><path fill="#7fde30" stroke="#7fde30" stroke-width="1" opacity="0.7725490196078432" d="M 224.5 131 L 225 267.5 L 224 267.5 L 224.5 131 Z " /><path fill="#7fde30" stroke="#7fde30" stroke-width="1" opacity="0.7725490196078432" d="M 127.5 148 L 128 150.5 L 127 150.5 L 127.5 148 Z " /><path fill="#7fde30" stroke="#7fde30" stroke-width="1" opacity="0.7725490196078432" d="M 133.5 156 L 136 156.5 L 133.5 157 L 133.5 156 Z " /><path fill="#7fde30" stroke="#7fde30" stroke-width="1" opacity="0.7725490196078432" d="M 204.5 185 L 205 265.5 L 204 265.5 L 204.5 185 Z " /><path fill="#7fde30" stroke="#7fde30" stroke-width="1" opacity="0.7725490196078432" d="M 278.5 270 L 277.5 272 L 278.5 270 Z " /><path fill="#7fde30" stroke="#7fde30" stroke-width="1" opacity="0.7725490196078432" d="M 354.5 270 L 353.5 272 L 354.5 270 Z " /><path fill="#7fde30" stroke="#7fde30" stroke-width="1" opacity="0.7725490196078432" d="M 377.5 270 L 378.5 272 L 377.5 270 Z " /><path fill="#7fde30" stroke="#7fde30" stroke-width="1" opacity="0.7725490196078432" d="M 485.5 292 L 489 292.5 L 485.5 293 L 485.5 292 Z " /><path fill="#7fde30" stroke="#7fde30" stroke-width="1" opacity="0.7725490196078432" d="M 490.5 292 L 493 292.5 L 490.5 293 L 490.5 292 Z " /><path fill="#7fde30" stroke="#7fde30" stroke-width="1" opacity="0.7725490196078432" d="M 487.5 306 L 491 306.5 L 487.5 307 L 487.5 306 Z " /><path fill="#7fde30" stroke="#7fde30" stroke-width="1" opacity="0.7725490196078432" d="M 130.5 307 L 133 307.5 L 130.5 308 L 130.5 307 Z " /><path fill="#7fde30" stroke="#7fde30" stroke-width="1" opacity="0.7725490196078432" d="M 44.5 311 L 47 311.5 L 44.5 312 L 44.5 311 Z " /><path fill="#7fde30" stroke="#7fde30" stroke-width="1" opacity="0.7725490196078432" d="M 33.5 312 L 36 312.5 L 33.5 313 L 33.5 312 Z " /><path fill="#7fde30" stroke="#7fde30" stroke-width="1" opacity="0.7725490196078432" d="M 21.5 313 L 24 313.5 L 21.5 314 L 21.5 313 Z " /><path fill="#7fde30" stroke="#7fde30" stroke-width="1" opacity="0.7725490196078432" d="M 9.5 314 L 12 314.5 L 9.5 315 L 9.5 314 Z " /><path fill="#7fde30" stroke="#7fde30" stroke-width="1" opacity="0.7725490196078432" d="M 64.5 316 L 65 318.5 L 64 318.5 L 64.5 316 Z " /><path fill="#7fde30" stroke="#7fde30" stroke-width="1" opacity="0.7725490196078432" d="M 297.5 318 L 306 318.5 L 297.5 319 L 297.5 318 Z " /><path fill="#7fde30" stroke="#7fde30" stroke-width="1" opacity="0.7725490196078432" d="M 286.5 319 L 289 319.5 L 286.5 320 L 286.5 319 Z " /><path fill="#7fde30" stroke="#7fde30" stroke-width="1" opacity="0.7725490196078432" d="M 273.5 320 L 276 320.5 L 273.5 321 L 273.5 320 Z " /><path fill="#7fde30" stroke="#7fde30" stroke-width="1" opacity="0.7725490196078432" d="M 130.5 321 L 133 321.5 L 130.5 322 L 130.5 321 Z " /><path fill="#7fde30" stroke="#7fde30" stroke-width="1" opacity="0.7725490196078432" d="M 259.5 321 L 263 321.5 L 259.5 322 L 259.5 321 Z " /><path fill="#7fde30" stroke="#7fde30" stroke-width="1" opacity="0.7725490196078432" d="M 246.5 322 L 249 322.5 L 246.5 323 L 246.5 322 Z " /><path fill="#7fde30" stroke="#7fde30" stroke-width="1" opacity="0.7725490196078432" d="M 233.5 323 L 236 323.5 L 233.5 324 L 233.5 323 Z " /><path fill="#7fde30" stroke="#7fde30" stroke-width="1" opacity="0.7725490196078432" d="M 219.5 324 L 223 324.5 L 219.5 325 L 219.5 324 Z " /><path fill="#7fde30" stroke="#7fde30" stroke-width="1" opacity="0.7725490196078432" d="M 325.5 326 L 327.5 329 L 325.5 326 Z " /><path fill="#7fde30" stroke="#7fde30" stroke-width="1" opacity="0.7725490196078432" d="M 299.5 332 L 304 332.5 L 299.5 333 L 299.5 332 Z " /><path fill="#7fde30" stroke="#7fde30" stroke-width="1" opacity="0.7725490196078432" d="M 287.5 333 L 290 333.5 L 287.5 334 L 287.5 333 Z " /><path fill="#7fde30" stroke="#7fde30" stroke-width="1" opacity="0.7725490196078432" d="M 274.5 334 L 277 334.5 L 274.5 335 L 274.5 334 Z " /><path fill="#7fde30" stroke="#7fde30" stroke-width="1" opacity="0.7725490196078432" d="M 260.5 335 L 264 335.5 L 260.5 336 L 260.5 335 Z " /><path fill="#7fde30" stroke="#7fde30" stroke-width="1" opacity="0.7725490196078432" d="M 247.5 336 L 250 336.5 L 247.5 337 L 247.5 336 Z " /><path fill="#7fde30" stroke="#7fde30" stroke-width="1" opacity="0.7725490196078432" d="M 315.5 336 L 317.5 339 L 315.5 336 Z " /><path fill="#7fde30" stroke="#7fde30" stroke-width="1" opacity="0.7725490196078432" d="M 234.5 337 L 237 337.5 L 234.5 338 L 234.5 337 Z " /><path fill="#7fde30" stroke="#7fde30" stroke-width="1" opacity="0.7725490196078432" d="M 199.5 338 L 202 338.5 L 199.5 339 L 199.5 338 Z " /><path fill="#7fde30" stroke="#7fde30" stroke-width="1" opacity="0.7725490196078432" d="M 220.5 338 L 224 338.5 L 220.5 339 L 220.5 338 Z " /><path fill="#7fde30" stroke="#7fde30" stroke-width="1" opacity="0.7725490196078432" d="M 67.5 341 L 66.5 343 L 67.5 341 Z " /><path fill="#7fde30" stroke="#7fde30" stroke-width="1" opacity="0.7725490196078432" d="M 67.5 351 L 68 353.5 L 67 353.5 L 67.5 351 Z " /><path fill="#7fde30" stroke="#7fde30" stroke-width="1" opacity="0.7725490196078432" d="M 317.5 356 L 316.5 358 L 317.5 356 Z " /><path fill="#7fde30" stroke="#7fde30" stroke-width="1" opacity="0.7725490196078432" d="M 68.5 363 L 69 365.5 L 68 365.5 L 68.5 363 Z " /><path fill="#7fde30" stroke="#7fde30" stroke-width="1" opacity="0.7725490196078432" d="M 327.5 366 L 325.5 369 L 327.5 366 Z " /><path fill="#7fde30" stroke="#7fde30" stroke-width="1" opacity="0.7725490196078432" d="M 69.5 375 L 70 377.5 L 69 377.5 L 69.5 375 Z " /><path fill="#7fde30" stroke="#7fde30" stroke-width="1" opacity="0.7725490196078432" d="M 70.5 387 L 71 389.5 L 70 389.5 L 70.5 387 Z " /><path fill="#7fde30" stroke="#7fde30" stroke-width="1" opacity="0.7725490196078432" d="M 0.5 388 L 1 490.5 L 0 490.5 L 0.5 388 Z " /><path fill="#7fde30" stroke="#7fde30" stroke-width="1" opacity="0.7725490196078432" d="M 180.5 389 L 181 391.5 L 180 391.5 L 180.5 389 Z " /><path fill="#7fde30" stroke="#7fde30" stroke-width="1" opacity="0.7725490196078432" d="M 226.5 390 L 230 391.5 L 227.5 392 L 226.5 390 Z " /><path fill="#7fde30" stroke="#7fde30" stroke-width="1" opacity="0.7725490196078432" d="M 270.5 391 L 273 391.5 L 270.5 392 L 270.5 391 Z " /><path fill="#7fde30" stroke="#7fde30" stroke-width="1" opacity="0.7725490196078432" d="M 241.5 392 L 259 392.5 L 241.5 393 L 241.5 392 Z " /><path fill="#7fde30" stroke="#7fde30" stroke-width="1" opacity="0.7725490196078432" d="M 181.5 394 L 183.5 397 L 181.5 394 Z " /><path fill="#7fde30" stroke="#7fde30" stroke-width="1" opacity="0.7725490196078432" d="M 71.5 399 L 72 401.5 L 71 401.5 L 71.5 399 Z " /><path fill="#7fde30" stroke="#7fde30" stroke-width="1" opacity="0.7725490196078432" d="M 225.5 405 L 228 405.5 L 225.5 406 L 225.5 405 Z " /><path fill="#7fde30" stroke="#7fde30" stroke-width="1" opacity="0.7725490196078432" d="M 238.5 406 L 245 406.5 L 238.5 407 L 238.5 406 Z " /><path fill="#7fde30" stroke="#7fde30" stroke-width="1" opacity="0.7725490196078432" d="M 254.5 406 L 261 406.5 L 254.5 407 L 254.5 406 Z " /><path fill="#7fde30" stroke="#7fde30" stroke-width="1" opacity="0.7725490196078432" d="M 72.5 411 L 73 413.5 L 72 413.5 L 72.5 411 Z " /><path fill="#7fde30" stroke="#7fde30" stroke-width="1" opacity="0.7725490196078432" d="M 30.5 434 L 31 436.5 L 30 436.5 L 30.5 434 Z " /><path fill="#7fde30" stroke="#7fde30" stroke-width="1" opacity="0.7725490196078432" d="M 45.5 434 L 46 436.5 L 45 436.5 L 45.5 434 Z " /><path fill="#7fde30" stroke="#7fde30" stroke-width="1" opacity="0.7725490196078432" d="M 74.5 434 L 75 436.5 L 74 436.5 L 74.5 434 Z " /><path fill="#7fde30" stroke="#7fde30" stroke-width="1" opacity="0.7725490196078432" d="M 31.5 446 L 32 448.5 L 31 448.5 L 31.5 446 Z " /><path fill="#7fde30" stroke="#7fde30" stroke-width="1" opacity="0.7725490196078432" d="M 46.5 446 L 47 449.5 L 46 449.5 L 46.5 446 Z " /><path fill="#7fde30" stroke="#7fde30" stroke-width="1" opacity="0.7725490196078432" d="M 75.5 446 L 76 448.5 L 75 448.5 L 75.5 446 Z " /><path fill="#7fde30" stroke="#7fde30" stroke-width="1" opacity="0.7725490196078432" d="M 45.5 452 L 43.5 455 L 45.5 452 Z " /><path fill="#7fde30" stroke="#7fde30" stroke-width="1" opacity="0.7725490196078432" d="M 33.5 453 L 34.5 455 L 33.5 453 Z " /><path fill="#7fde30" stroke="#7fde30" stroke-width="1" opacity="0.7725490196078432" d="M 175.5 474 L 178 474.5 L 175.5 475 L 175.5 474 Z " /><path fill="#7fde30" stroke="#7fde30" stroke-width="1" opacity="0.7725490196078432" d="M 189.5 475 L 209 475.5 L 189.5 476 L 189.5 475 Z " /><path fill="#7fde30" stroke="#7fde30" stroke-width="1" opacity="0.7725490196078432" d="M 78.5 482 L 79 486.5 L 78 486.5 L 78.5 482 Z " /><path fill="#7fde30" stroke="#7fde30" stroke-width="1" opacity="0.7725490196078432" d="M 174.5 488 L 177 488.5 L 174.5 489 L 174.5 488 Z " /><path fill="#7fde30" stroke="#7fde30" stroke-width="1" opacity="0.7725490196078432" d="M 223.5 488 L 226 488.5 L 223.5 489 L 223.5 488 Z " /><path fill="#7fde30" stroke="#7fde30" stroke-width="1" opacity="0.7725490196078432" d="M 188.5 489 L 195 489.5 L 188.5 490 L 188.5 489 Z " /><path fill="#7fde30" stroke="#7fde30" stroke-width="1" opacity="0.7725490196078432" d="M 203.5 489 L 211 489.5 L 203.5 490 L 203.5 489 Z " /><path fill="#7fde30" stroke="#7fde30" stroke-width="1" opacity="0.7725490196078432" d="M 65.5 492 L 68 492.5 L 65.5 493 L 65.5 492 Z " /><path fill="#7fde30" stroke="#7fde30" stroke-width="1" opacity="0.7725490196078432" d="M 53.5 493 L 56 493.5 L 53.5 494 L 53.5 493 Z " /><path fill="#7fde30" stroke="#7fde30" stroke-width="1" opacity="0.7725490196078432" d="M 41.5 494 L 44 494.5 L 41.5 495 L 41.5 494 Z " /><path fill="#7fde30" stroke="#7fde30" stroke-width="1" opacity="0.7725490196078432" d="M 29.5 495 L 32 495.5 L 29.5 496 L 29.5 495 Z " /><path fill="#7fde30" stroke="#7fde30" stroke-width="1" opacity="0.7725490196078432" d="M 18.5 496 L 21 496.5 L 18.5 497 L 18.5 496 Z " /></svg>