<svg width="512" height="512" version="1.1" xmlns="http://www.w3.org/2000/svg" desc="Created with imagetracer.js version 1.2.6" ><path fill="#7fde30" stroke="#7fde30" stroke-width="1" opacity="0.7607843137254902" d="M 235.5 0 L 238 0.5 L 235.5 1 L 235.5 0 Z " /><path fill="#7fde30" stroke="#7fde30" stroke-width="1" opacity="0.7607843137254902" d="M 350.5 0 L 353 0.5 L 350.5 1 L 350.5 0 Z " /><path fill="#7fde30" stroke="#7fde30" stroke-width="1" opacity="0.7607843137254902" d="M 228.5 3 L 227.5 5 L 228.5 3 Z " /><path fill="#7fde30" stroke="#7fde30" stroke-width="1" opacity="0.7607843137254902" d="M 224.5 6 L 223.5 8 L 224.5 6 Z " /><path fill="#7fde30" stroke="#7fde30" stroke-width="1" opacity="0.7607843137254902" d="M 235.5 16 L 234.5 18 L 235.5 16 Z " /><path fill="#7fde30" stroke="#7fde30" stroke-width="1" opacity="0.7607843137254902" d="M 352.5 16 L 353.5 18 L 352.5 16 Z " /><path fill="#7fde30" stroke="#7fde30" stroke-width="1" opacity="0.7607843137254902" d="M 174.5 38 L 180 38.5 L 174.5 39 L 174.5 38 Z " /><path fill="#7fde30" stroke="#7fde30" stroke-width="1" opacity="0.7607843137254902" d="M 190.5 38 L 196 38.5 L 190.5 39 L 190.5 38 Z " /><path fill="#7fde30" stroke="#7fde30" stroke-width="1" opacity="0.7607843137254902" d="M 199.5 39 L 202 39.5 L 199.5 40 L 199.5 39 Z " /><path fill="#7fde30" stroke="#7fde30" stroke-width="1" opacity="0.7607843137254902" d="M 135.5 52 L 134.5 54 L 135.5 52 Z " /><path fill="#7fde30" stroke="#7fde30" stroke-width="1" opacity="0.7607843137254902" d="M 173.5 53 L 177 53.5 L 173.5 54 L 173.5 53 Z " /><path fill="#7fde30" stroke="#7fde30" stroke-width="1" opacity="0.7607843137254902" d="M 193.5 53 L 197 53.5 L 193.5 54 L 193.5 53 Z " /><path fill="#7fde30" stroke="#7fde30" stroke-width="1" opacity="0.7607843137254902" d="M 132.5 54 L 131.5 56 L 132.5 54 Z " /><path fill="#7fde30" stroke="#7fde30" stroke-width="1" opacity="0.7607843137254902" d="M 128.5 57 L 127.5 59 L 128.5 57 Z " /><path fill="#7fde30" stroke="#7fde30" stroke-width="1" opacity="0.7607843137254902" d="M 245.5 57 L 246.5 59 L 245.5 57 Z " /><path fill="#7fde30" stroke="#7fde30" stroke-width="1" opacity="0.7607843137254902" d="M 125.5 62 L 126 64.5 L 125 64.5 L 125.5 62 Z " /><path fill="#7fde30" stroke="#7fde30" stroke-width="1" opacity="0.7607843137254902" d="M 226.5 64 L 227.5 66 L 226.5 64 Z " /><path fill="#7fde30" stroke="#7fde30" stroke-width="1" opacity="0.7607843137254902" d="M 258.5 64 L 340 64.5 L 258.5 65 L 258.5 64 Z " /><path fill="#7fde30" stroke="#7fde30" stroke-width="1" opacity="0.7607843137254902" d="M 142.5 65 L 141.5 67 L 142.5 65 Z " /><path fill="#7fde30" stroke="#7fde30" stroke-width="1" opacity="0.7607843137254902" d="M 127.5 68 L 128.5 70 L 127.5 68 Z " /><path fill="#7fde30" stroke="#7fde30" stroke-width="1" opacity="0.7607843137254902" d="M 138.5 68 L 137.5 70 L 138.5 68 Z " /><path fill="#7fde30" stroke="#7fde30" stroke-width="1" opacity="0.7607843137254902" d="M 362.5 68 L 364.5 71 L 362.5 68 Z " /><path fill="#7fde30" stroke="#7fde30" stroke-width="1" opacity="0.7607843137254902" d="M 367.5 73 L 369.5 76 L 367.5 73 Z " /><path fill="#7fde30" stroke="#7fde30" stroke-width="1" opacity="0.7607843137254902" d="M 104.5 76 L 102.5 79 L 104.5 76 Z " /><path fill="#7fde30" stroke="#7fde30" stroke-width="1" opacity="0.7607843137254902" d="M 253.5 78 L 254.5 80 L 253.5 78 Z " /><path fill="#7fde30" stroke="#7fde30" stroke-width="1" opacity="0.7607843137254902" d="M 288 79 L 351 79.5 L 290 80.5 L 290.5 82 L 288 81 L 288 79 Z " /><path fill="#7fde30" stroke="#7fde30" stroke-width="1" opacity="0.7607843137254902" d="M 99.5 80 L 97.5 83 L 99.5 80 Z " /><path fill="#7fde30" stroke="#7fde30" stroke-width="1" opacity="0.7607843137254902" d="M 94.5 84 L 92.5 87 L 94.5 84 Z " /><path fill="#7fde30" stroke="#7fde30" stroke-width="1" opacity="0.7607843137254902" d="M 115.5 86 L 112.5 90 L 115.5 86 Z " /><path fill="#7fde30" stroke="#7fde30" stroke-width="1" opacity="0.7607843137254902" d="M 358.5 87 L 359 89.5 L 358 89.5 L 358.5 87 Z " /><path fill="#7fde30" stroke="#7fde30" stroke-width="1" opacity="0.7607843137254902" d="M 89.5 88 L 87.5 91 L 89.5 88 Z " /><path fill="#7fde30" stroke="#7fde30" stroke-width="1" opacity="0.7607843137254902" d="M 308.5 90 L 312.5 95 L 308.5 90 Z " /><path fill="#7fde30" stroke="#7fde30" stroke-width="1" opacity="0.7607843137254902" d="M 109.5 91 L 108.5 93 L 109.5 91 Z " /><path fill="#7fde30" stroke="#7fde30" stroke-width="1" opacity="0.7607843137254902" d="M 84.5 92 L 83.5 94 L 84.5 92 Z " /><path fill="#7fde30" stroke="#7fde30" stroke-width="1" opacity="0.7607843137254902" d="M 280.5 92 L 281.5 94 L 280.5 92 Z " /><path fill="#7fde30" stroke="#7fde30" stroke-width="1" opacity="0.7607843137254902" d="M 357.5 92 L 356.5 94 L 357.5 92 Z " /><path fill="#7fde30" stroke="#7fde30" stroke-width="1" opacity="0.7607843137254902" d="M 6.5 94 L 82 94.5 L 6.5 95 L 6.5 94 Z " /><path fill="#7fde30" stroke="#7fde30" stroke-width="1" opacity="0.7607843137254902" d="M 105.5 94 L 103.5 97 L 105.5 94 Z " /><path fill="#7fde30" stroke="#7fde30" stroke-width="1" opacity="0.7607843137254902" d="M 2.5 96 L 1.5 98 L 2.5 96 Z " /><path fill="#7fde30" stroke="#7fde30" stroke-width="1" opacity="0.7607843137254902" d="M 313.5 96 L 314.5 97 L 351 97.5 L 314.5 98 L 313.5 96 Z " /><path fill="#7fde30" stroke="#7fde30" stroke-width="1" opacity="0.7607843137254902" d="M 205.5 97 L 209 97.5 L 205.5 98 L 205.5 97 Z " /><path fill="#7fde30" stroke="#7fde30" stroke-width="1" opacity="0.7607843137254902" d="M 100.5 98 L 98.5 101 L 100.5 98 Z " /><path fill="#7fde30" stroke="#7fde30" stroke-width="1" opacity="0.7607843137254902" d="M 201.5 100 L 200.5 102 L 201.5 100 Z " /><path fill="#7fde30" stroke="#7fde30" stroke-width="1" opacity="0.7607843137254902" d="M 95.5 102 L 93.5 105 L 95.5 102 Z " /><path fill="#7fde30" stroke="#7fde30" stroke-width="1" opacity="0.7607843137254902" d="M 368.5 102 L 367.5 104 L 368.5 102 Z " /><path fill="#7fde30" stroke="#7fde30" stroke-width="1" opacity="0.7607843137254902" d="M 199.5 104 L 200 106.5 L 199 106.5 L 199.5 104 Z " /><path fill="#7fde30" stroke="#7fde30" stroke-width="1" opacity="0.7607843137254902" d="M 298.5 105 L 297.5 107 L 298.5 105 Z " /><path fill="#7fde30" stroke="#7fde30" stroke-width="1" opacity="0.7607843137254902" d="M 366.5 105 L 369.5 109 L 366.5 105 Z " /><path fill="#7fde30" stroke="#7fde30" stroke-width="1" opacity="0.7607843137254902" d="M 90.5 106 L 89.5 108 L 90.5 106 Z " /><path fill="#7fde30" stroke="#7fde30" stroke-width="1" opacity="0.7607843137254902" d="M 15.5 109 L 86 109.5 L 15.5 110 L 15.5 109 Z " /><path fill="#7fde30" stroke="#7fde30" stroke-width="1" opacity="0.7607843137254902" d="M 372.5 110 L 376.5 115 L 372.5 110 Z " /><path fill="#7fde30" stroke="#7fde30" stroke-width="1" opacity="0.7607843137254902" d="M 291.5 112 L 290.5 114 L 291.5 112 Z " /><path fill="#7fde30" stroke="#7fde30" stroke-width="1" opacity="0.7607843137254902" d="M 311.5 112 L 349 112.5 L 311.5 113 L 311.5 112 Z " /><path fill="#7fde30" stroke="#7fde30" stroke-width="1" opacity="0.7607843137254902" d="M 350.5 112 L 351.5 114 L 350.5 112 Z " /><path fill="#7fde30" stroke="#7fde30" stroke-width="1" opacity="0.7607843137254902" d="M 353.5 114 L 354.5 116 L 353.5 114 Z " /><path fill="#7fde30" stroke="#7fde30" stroke-width="1" opacity="0.7607843137254902" d="M 309.5 115 L 307.5 118 L 309.5 115 Z " /><path fill="#7fde30" stroke="#7fde30" stroke-width="1" opacity="0.7607843137254902" d="M 357.5 117 L 359.5 120 L 357.5 117 Z " /><path fill="#7fde30" stroke="#7fde30" stroke-width="1" opacity="0.7607843137254902" d="M 380.5 117 L 396.5 134 L 380.5 117 Z " /><path fill="#7fde30" stroke="#7fde30" stroke-width="1" opacity="0.7607843137254902" d="M 267.5 118 L 278 118.5 L 267.5 119 L 267.5 118 Z " /><path fill="#7fde30" stroke="#7fde30" stroke-width="1" opacity="0.7607843137254902" d="M 225.5 121 L 223.5 124 L 225.5 121 Z " /><path fill="#7fde30" stroke="#7fde30" stroke-width="1" opacity="0.7607843137254902" d="M 362.5 121 L 364.5 124 L 362.5 121 Z " /><path fill="#7fde30" stroke="#7fde30" stroke-width="1" opacity="0.7607843137254902" d="M 302.5 122 L 300.5 125 L 302.5 122 Z " /><path fill="#7fde30" stroke="#7fde30" stroke-width="1" opacity="0.7607843137254902" d="M 298.5 125 L 297.5 127 L 298.5 125 Z " /><path fill="#7fde30" stroke="#7fde30" stroke-width="1" opacity="0.7607843137254902" d="M 219.5 126 L 200.5 146 L 219.5 126 Z " /><path fill="#7fde30" stroke="#7fde30" stroke-width="1" opacity="0.7607843137254902" d="M 368.5 126 L 386.5 145 L 368.5 126 Z " /><path fill="#7fde30" stroke="#7fde30" stroke-width="1" opacity="0.7607843137254902" d="M 268.5 133 L 277 133.5 L 268.5 134 L 268.5 133 Z " /><path fill="#7fde30" stroke="#7fde30" stroke-width="1" opacity="0.7607843137254902" d="M 399.5 137 L 403.5 142 L 399.5 137 Z " /><path fill="#7fde30" stroke="#7fde30" stroke-width="1" opacity="0.7607843137254902" d="M 185.5 140 L 184.5 142 L 185.5 140 Z " /><path fill="#7fde30" stroke="#7fde30" stroke-width="1" opacity="0.7607843137254902" d="M 182.5 144 L 181.5 146 L 182.5 144 Z " /><path fill="#7fde30" stroke="#7fde30" stroke-width="1" opacity="0.7607843137254902" d="M 405.5 144 L 407.5 147 L 405.5 144 Z " /><path fill="#7fde30" stroke="#7fde30" stroke-width="1" opacity="0.7607843137254902" d="M 179.5 148 L 170.5 158 L 179.5 148 Z " /><path fill="#7fde30" stroke="#7fde30" stroke-width="1" opacity="0.7607843137254902" d="M 389.5 148 L 392.5 152 L 389.5 148 Z " /><path fill="#7fde30" stroke="#7fde30" stroke-width="1" opacity="0.7607843137254902" d="M 197.5 149 L 195.5 152 L 197.5 149 Z " /><path fill="#7fde30" stroke="#7fde30" stroke-width="1" opacity="0.7607843137254902" d="M 409.5 149 L 410.5 151 L 409.5 149 Z " /><path fill="#7fde30" stroke="#7fde30" stroke-width="1" opacity="0.7607843137254902" d="M 411.5 152 L 412.5 154 L 411.5 152 Z " /><path fill="#7fde30" stroke="#7fde30" stroke-width="1" opacity="0.7607843137254902" d="M 193.5 154 L 192.5 156 L 193.5 154 Z " /><path fill="#7fde30" stroke="#7fde30" stroke-width="1" opacity="0.7607843137254902" d="M 394.5 154 L 396.5 157 L 394.5 154 Z " /><path fill="#7fde30" stroke="#7fde30" stroke-width="1" opacity="0.7607843137254902" d="M 414.5 156 L 415.5 158 L 414.5 156 Z " /><path fill="#7fde30" stroke="#7fde30" stroke-width="1" opacity="0.7607843137254902" d="M 167.5 159 L 166.5 161 L 167.5 159 Z " /><path fill="#7fde30" stroke="#7fde30" stroke-width="1" opacity="0.7607843137254902" d="M 189.5 159 L 188.5 161 L 189.5 159 Z " /><path fill="#7fde30" stroke="#7fde30" stroke-width="1" opacity="0.7607843137254902" d="M 398.5 159 L 399.5 161 L 398.5 159 Z " /><path fill="#7fde30" stroke="#7fde30" stroke-width="1" opacity="0.7607843137254902" d="M 416.5 159 L 417.5 161 L 416.5 159 Z " /><path fill="#7fde30" stroke="#7fde30" stroke-width="1" opacity="0.7607843137254902" d="M 164.5 161 L 163.5 163 L 164.5 161 Z " /><path fill="#7fde30" stroke="#7fde30" stroke-width="1" opacity="0.7607843137254902" d="M 187.5 162 L 186.5 164 L 187.5 162 Z " /><path fill="#7fde30" stroke="#7fde30" stroke-width="1" opacity="0.7607843137254902" d="M 400.5 162 L 402.5 165 L 400.5 162 Z " /><path fill="#7fde30" stroke="#7fde30" stroke-width="1" opacity="0.7607843137254902" d="M 418.5 162 L 419.5 164 L 418.5 162 Z " /><path fill="#7fde30" stroke="#7fde30" stroke-width="1" opacity="0.7607843137254902" d="M 161.5 163 L 160.5 165 L 161.5 163 Z " /><path fill="#7fde30" stroke="#7fde30" stroke-width="1" opacity="0.7607843137254902" d="M 291.5 164 L 296 164.5 L 291.5 165 L 291.5 164 Z " /><path fill="#7fde30" stroke="#7fde30" stroke-width="1" opacity="0.7607843137254902" d="M 289.5 165 L 287.5 168 L 289.5 165 Z " /><path fill="#7fde30" stroke="#7fde30" stroke-width="1" opacity="0.7607843137254902" d="M 297.5 165 L 299.5 168 L 297.5 165 Z " /><path fill="#7fde30" stroke="#7fde30" stroke-width="1" opacity="0.7607843137254902" d="M 184.5 166 L 183.5 168 L 184.5 166 Z " /><path fill="#7fde30" stroke="#7fde30" stroke-width="1" opacity="0.7607843137254902" d="M 403.5 166 L 404.5 168 L 403.5 166 Z " /><path fill="#7fde30" stroke="#7fde30" stroke-width="1" opacity="0.7607843137254902" d="M 182.5 169 L 181.5 171 L 182.5 169 Z " /><path fill="#7fde30" stroke="#7fde30" stroke-width="1" opacity="0.7607843137254902" d="M 405.5 169 L 406.5 171 L 405.5 169 Z " /><path fill="#7fde30" stroke="#7fde30" stroke-width="1" opacity="0.7607843137254902" d="M 180.5 172 L 179.5 174 L 180.5 172 Z " /><path fill="#7fde30" stroke="#7fde30" stroke-width="1" opacity="0.7607843137254902" d="M 134.5 173 L 137 173.5 L 134.5 174 L 134.5 173 Z " /><path fill="#7fde30" stroke="#7fde30" stroke-width="1" opacity="0.7607843137254902" d="M 126.5 174 L 131 174.5 L 126.5 175 L 126.5 174 Z " /><path fill="#7fde30" stroke="#7fde30" stroke-width="1" opacity="0.7607843137254902" d="M 177.5 177 L 176.5 179 L 177.5 177 Z " /><path fill="#7fde30" stroke="#7fde30" stroke-width="1" opacity="0.7607843137254902" d="M 278.5 179 L 277.5 181 L 278.5 179 Z " /><path fill="#7fde30" stroke="#7fde30" stroke-width="1" opacity="0.7607843137254902" d="M 312.5 180 L 313.5 182 L 312.5 180 Z " /><path fill="#7fde30" stroke="#7fde30" stroke-width="1" opacity="0.7607843137254902" d="M 156.5 184 L 157 185.5 L 155.5 188 L 155 186.5 L 156.5 184 Z " /><path fill="#7fde30" stroke="#7fde30" stroke-width="1" opacity="0.7607843137254902" d="M 272.5 185 L 271.5 187 L 272.5 185 Z " /><path fill="#7fde30" stroke="#7fde30" stroke-width="1" opacity="0.7607843137254902" d="M 172.5 186 L 171.5 188 L 172.5 186 Z " /><path fill="#7fde30" stroke="#7fde30" stroke-width="1" opacity="0.7607843137254902" d="M 317.5 186 L 318 189.5 L 317 189.5 L 317.5 186 Z " /><path fill="#7fde30" stroke="#7fde30" stroke-width="1" opacity="0.7607843137254902" d="M 139.5 187 L 142 187.5 L 139.5 188 L 139.5 187 Z " /><path fill="#7fde30" stroke="#7fde30" stroke-width="1" opacity="0.7607843137254902" d="M 134.5 188 L 137 188.5 L 134.5 189 L 134.5 188 Z " /><path fill="#7fde30" stroke="#7fde30" stroke-width="1" opacity="0.7607843137254902" d="M 123.5 189 L 129 189.5 L 123.5 190 L 123.5 189 Z " /><path fill="#7fde30" stroke="#7fde30" stroke-width="1" opacity="0.7607843137254902" d="M 305.5 193 L 306.5 195 L 305.5 193 Z " /><path fill="#7fde30" stroke="#7fde30" stroke-width="1" opacity="0.7607843137254902" d="M 309.5 195 L 312 195.5 L 309.5 196 L 309.5 195 Z " /><path fill="#7fde30" stroke="#7fde30" stroke-width="1" opacity="0.7607843137254902" d="M 267.5 196 L 268 198.5 L 267 198.5 L 267.5 196 Z " /><path fill="#7fde30" stroke="#7fde30" stroke-width="1" opacity="0.7607843137254902" d="M 267.5 203 L 268 205.5 L 267 205.5 L 267.5 203 Z " /><path fill="#7fde30" stroke="#7fde30" stroke-width="1" opacity="0.7607843137254902" d="M 284.5 206 L 285.5 208 L 284.5 206 Z " /><path fill="#7fde30" stroke="#7fde30" stroke-width="1" opacity="0.7607843137254902" d="M 270.5 213 L 275.5 219 L 270.5 213 Z " /><path fill="#7fde30" stroke="#7fde30" stroke-width="1" opacity="0.7607843137254902" d="M 308.5 217 L 309.5 219 L 308.5 217 Z " /><path fill="#7fde30" stroke="#7fde30" stroke-width="1" opacity="0.7607843137254902" d="M 280.5 221 L 281.5 223 L 280.5 221 Z " /><path fill="#7fde30" stroke="#7fde30" stroke-width="1" opacity="0.7607843137254902" d="M 315.5 222 L 316.5 224 L 315.5 222 Z " /><path fill="#7fde30" stroke="#7fde30" stroke-width="1" opacity="0.7607843137254902" d="M 141.5 226 L 142 228.5 L 141 228.5 L 141.5 226 Z " /><path fill="#7fde30" stroke="#7fde30" stroke-width="1" opacity="0.7607843137254902" d="M 318.5 226 L 319.5 228 L 318.5 226 Z " /><path fill="#7fde30" stroke="#7fde30" stroke-width="1" opacity="0.7607843137254902" d="M 15.5 229 L 68 229.5 L 15.5 230 L 15.5 229 Z " /><path fill="#7fde30" stroke="#7fde30" stroke-width="1" opacity="0.7607843137254902" d="M 74.5 230 L 77 230.5 L 74.5 231 L 74.5 230 Z " /><path fill="#7fde30" stroke="#7fde30" stroke-width="1" opacity="0.7607843137254902" d="M 80.5 231 L 83 231.5 L 80.5 232 L 80.5 231 Z " /><path fill="#7fde30" stroke="#7fde30" stroke-width="1" opacity="0.7607843137254902" d="M 155.5 231 L 156 233.5 L 155 233.5 L 155.5 231 Z " /><path fill="#7fde30" stroke="#7fde30" stroke-width="1" opacity="0.7607843137254902" d="M 447.5 231 L 448 233.5 L 447 233.5 L 447.5 231 Z " /><path fill="#7fde30" stroke="#7fde30" stroke-width="1" opacity="0.7607843137254902" d="M 85.5 232 L 88 232.5 L 85.5 233 L 85.5 232 Z " /><path fill="#7fde30" stroke="#7fde30" stroke-width="1" opacity="0.7607843137254902" d="M 304.5 232 L 306.5 235 L 304.5 232 Z " /><path fill="#7fde30" stroke="#7fde30" stroke-width="1" opacity="0.7607843137254902" d="M 139.5 236 L 140 238.5 L 139 238.5 L 139.5 236 Z " /><path fill="#7fde30" stroke="#7fde30" stroke-width="1" opacity="0.7607843137254902" d="M 154.5 236 L 155 238.5 L 154 238.5 L 154.5 236 Z " /><path fill="#7fde30" stroke="#7fde30" stroke-width="1" opacity="0.7607843137254902" d="M 433.5 236 L 434 238.5 L 433 238.5 L 433.5 236 Z " /><path fill="#7fde30" stroke="#7fde30" stroke-width="1" opacity="0.7607843137254902" d="M 448.5 236 L 449 238.5 L 448 238.5 L 448.5 236 Z " /><path fill="#7fde30" stroke="#7fde30" stroke-width="1" opacity="0.7607843137254902" d="M 308.5 239 L 309 243.5 L 308 243.5 L 308.5 239 Z " /><path fill="#7fde30" stroke="#7fde30" stroke-width="1" opacity="0.7607843137254902" d="M 153.5 242 L 154 245.5 L 153 245.5 L 153.5 242 Z " /><path fill="#7fde30" stroke="#7fde30" stroke-width="1" opacity="0.7607843137254902" d="M 434.5 242 L 435 245.5 L 434 245.5 L 434.5 242 Z " /><path fill="#7fde30" stroke="#7fde30" stroke-width="1" opacity="0.7607843137254902" d="M 138.5 243 L 139 246.5 L 138 246.5 L 138.5 243 Z " /><path fill="#7fde30" stroke="#7fde30" stroke-width="1" opacity="0.7607843137254902" d="M 449.5 243 L 450 246.5 L 449 246.5 L 449.5 243 Z " /><path fill="#7fde30" stroke="#7fde30" stroke-width="1" opacity="0.7607843137254902" d="M 64.5 244 L 70 244.5 L 64.5 245 L 64.5 244 Z " /><path fill="#7fde30" stroke="#7fde30" stroke-width="1" opacity="0.7607843137254902" d="M 74.5 245 L 78 245.5 L 74.5 246 L 74.5 245 Z " /><path fill="#7fde30" stroke="#7fde30" stroke-width="1" opacity="0.7607843137254902" d="M 80.5 246 L 83 246.5 L 80.5 247 L 80.5 246 Z " /><path fill="#7fde30" stroke="#7fde30" stroke-width="1" opacity="0.7607843137254902" d="M 152.5 250 L 153 269.5 L 152 269.5 L 152.5 250 Z " /><path fill="#7fde30" stroke="#7fde30" stroke-width="1" opacity="0.7607843137254902" d="M 270.5 250 L 274 250.5 L 270.5 251 L 270.5 250 Z " /><path fill="#7fde30" stroke="#7fde30" stroke-width="1" opacity="0.7607843137254902" d="M 304.5 251 L 303.5 253 L 304.5 251 Z " /><path fill="#7fde30" stroke="#7fde30" stroke-width="1" opacity="0.7607843137254902" d="M 435.5 251 L 436 268.5 L 435 268.5 L 435.5 251 Z " /><path fill="#7fde30" stroke="#7fde30" stroke-width="1" opacity="0.7607843137254902" d="M 266.5 253 L 265.5 255 L 266.5 253 Z " /><path fill="#7fde30" stroke="#7fde30" stroke-width="1" opacity="0.7607843137254902" d="M 450.5 254 L 451 265.5 L 450 265.5 L 450.5 254 Z " /><path fill="#7fde30" stroke="#7fde30" stroke-width="1" opacity="0.7607843137254902" d="M 318.5 257 L 316.5 260 L 318.5 257 Z " /><path fill="#7fde30" stroke="#7fde30" stroke-width="1" opacity="0.7607843137254902" d="M 265.5 260 L 269 264.5 L 265 261.5 L 265.5 260 Z " /><path fill="#7fde30" stroke="#7fde30" stroke-width="1" opacity="0.7607843137254902" d="M 310.5 265 L 309.5 267 L 310.5 265 Z " /><path fill="#7fde30" stroke="#7fde30" stroke-width="1" opacity="0.7607843137254902" d="M 283.5 270 L 286 270.5 L 283.5 271 L 283.5 270 Z " /><path fill="#7fde30" stroke="#7fde30" stroke-width="1" opacity="0.7607843137254902" d="M 138.5 272 L 139 275.5 L 138 275.5 L 138.5 272 Z " /><path fill="#7fde30" stroke="#7fde30" stroke-width="1" opacity="0.7607843137254902" d="M 449.5 272 L 450 275.5 L 449 275.5 L 449.5 272 Z " /><path fill="#7fde30" stroke="#7fde30" stroke-width="1" opacity="0.7607843137254902" d="M 434.5 273 L 435 275.5 L 434 275.5 L 434.5 273 Z " /><path fill="#7fde30" stroke="#7fde30" stroke-width="1" opacity="0.7607843137254902" d="M 153.5 274 L 154 276.5 L 153 276.5 L 153.5 274 Z " /><path fill="#7fde30" stroke="#7fde30" stroke-width="1" opacity="0.7607843137254902" d="M 139.5 279 L 140 281.5 L 139 281.5 L 139.5 279 Z " /><path fill="#7fde30" stroke="#7fde30" stroke-width="1" opacity="0.7607843137254902" d="M 299.5 279 L 297.5 282 L 299.5 279 Z " /><path fill="#7fde30" stroke="#7fde30" stroke-width="1" opacity="0.7607843137254902" d="M 162.5 299 L 163.5 301 L 162.5 299 Z " /><path fill="#7fde30" stroke="#7fde30" stroke-width="1" opacity="0.7607843137254902" d="M 425.5 299 L 424.5 301 L 425.5 299 Z " /><path fill="#7fde30" stroke="#7fde30" stroke-width="1" opacity="0.7607843137254902" d="M 164.5 302 L 165.5 304 L 164.5 302 Z " /><path fill="#7fde30" stroke="#7fde30" stroke-width="1" opacity="0.7607843137254902" d="M 423.5 302 L 422.5 304 L 423.5 302 Z " /><path fill="#7fde30" stroke="#7fde30" stroke-width="1" opacity="0.7607843137254902" d="M 149.5 306 L 150.5 308 L 149.5 306 Z " /><path fill="#7fde30" stroke="#7fde30" stroke-width="1" opacity="0.7607843137254902" d="M 168.5 307 L 174.5 314 L 168.5 307 Z " /><path fill="#7fde30" stroke="#7fde30" stroke-width="1" opacity="0.7607843137254902" d="M 419.5 307 L 413.5 314 L 419.5 307 Z " /><path fill="#7fde30" stroke="#7fde30" stroke-width="1" opacity="0.7607843137254902" d="M 436.5 309 L 435.5 311 L 436.5 309 Z " /><path fill="#7fde30" stroke="#7fde30" stroke-width="1" opacity="0.7607843137254902" d="M 153.5 312 L 155.5 315 L 153.5 312 Z " /><path fill="#7fde30" stroke="#7fde30" stroke-width="1" opacity="0.7607843137254902" d="M 434.5 312 L 432.5 315 L 434.5 312 Z " /><path fill="#7fde30" stroke="#7fde30" stroke-width="1" opacity="0.7607843137254902" d="M 177.5 315 L 179.5 318 L 177.5 315 Z " /><path fill="#7fde30" stroke="#7fde30" stroke-width="1" opacity="0.7607843137254902" d="M 410.5 315 L 408.5 318 L 410.5 315 Z " /><path fill="#7fde30" stroke="#7fde30" stroke-width="1" opacity="0.7607843137254902" d="M 157.5 317 L 164.5 325 L 157.5 317 Z " /><path fill="#7fde30" stroke="#7fde30" stroke-width="1" opacity="0.7607843137254902" d="M 430.5 317 L 424.5 324 L 430.5 317 Z " /><path fill="#7fde30" stroke="#7fde30" stroke-width="1" opacity="0.7607843137254902" d="M 181.5 318 L 182.5 320 L 181.5 318 Z " /><path fill="#7fde30" stroke="#7fde30" stroke-width="1" opacity="0.7607843137254902" d="M 406.5 318 L 405.5 320 L 406.5 318 Z " /><path fill="#7fde30" stroke="#7fde30" stroke-width="1" opacity="0.7607843137254902" d="M 184.5 320 L 185.5 322 L 184.5 320 Z " /><path fill="#7fde30" stroke="#7fde30" stroke-width="1" opacity="0.7607843137254902" d="M 403.5 320 L 402.5 322 L 403.5 320 Z " /><path fill="#7fde30" stroke="#7fde30" stroke-width="1" opacity="0.7607843137254902" d="M 167.5 326 L 169.5 329 L 167.5 326 Z " /><path fill="#7fde30" stroke="#7fde30" stroke-width="1" opacity="0.7607843137254902" d="M 420.5 326 L 418.5 329 L 420.5 326 Z " /><path fill="#7fde30" stroke="#7fde30" stroke-width="1" opacity="0.7607843137254902" d="M 416.5 329 L 415.5 331 L 416.5 329 Z " /><path fill="#7fde30" stroke="#7fde30" stroke-width="1" opacity="0.7607843137254902" d="M 375.5 333 L 373.5 336 L 375.5 333 Z " /><path fill="#7fde30" stroke="#7fde30" stroke-width="1" opacity="0.7607843137254902" d="M 410.5 333 L 409.5 335 L 410.5 333 Z " /><path fill="#7fde30" stroke="#7fde30" stroke-width="1" opacity="0.7607843137254902" d="M 182.5 336 L 183.5 338 L 182.5 336 Z " /><path fill="#7fde30" stroke="#7fde30" stroke-width="1" opacity="0.7607843137254902" d="M 372.5 337 L 373 341.5 L 372 341.5 L 372.5 337 Z " /><path fill="#7fde30" stroke="#7fde30" stroke-width="1" opacity="0.7607843137254902" d="M 403.5 337 L 402.5 339 L 399.5 340 L 399.5 339 L 403.5 337 Z " /><path fill="#7fde30" stroke="#7fde30" stroke-width="1" opacity="0.7607843137254902" d="M 234.5 338 L 237 338.5 L 234.5 339 L 234.5 338 Z " /><path fill="#7fde30" stroke="#7fde30" stroke-width="1" opacity="0.7607843137254902" d="M 240.5 339 L 243 339.5 L 240.5 340 L 240.5 339 Z " /><path fill="#7fde30" stroke="#7fde30" stroke-width="1" opacity="0.7607843137254902" d="M 345.5 339 L 349 339.5 L 345.5 340 L 345.5 339 Z " /><path fill="#7fde30" stroke="#7fde30" stroke-width="1" opacity="0.7607843137254902" d="M 247.5 340 L 250 340.5 L 247.5 341 L 247.5 340 Z " /><path fill="#7fde30" stroke="#7fde30" stroke-width="1" opacity="0.7607843137254902" d="M 338.5 340 L 341 340.5 L 338.5 341 L 338.5 340 Z " /><path fill="#7fde30" stroke="#7fde30" stroke-width="1" opacity="0.7607843137254902" d="M 255.5 341 L 260 341.5 L 255.5 342 L 255.5 341 Z " /><path fill="#7fde30" stroke="#7fde30" stroke-width="1" opacity="0.7607843137254902" d="M 327.5 341 L 332 341.5 L 327.5 342 L 327.5 341 Z " /><path fill="#7fde30" stroke="#7fde30" stroke-width="1" opacity="0.7607843137254902" d="M 268.5 342 L 278 342.5 L 268.5 343 L 268.5 342 Z " /><path fill="#7fde30" stroke="#7fde30" stroke-width="1" opacity="0.7607843137254902" d="M 310.5 342 L 320 342.5 L 310.5 343 L 310.5 342 Z " /><path fill="#7fde30" stroke="#7fde30" stroke-width="1" opacity="0.7607843137254902" d="M 373.5 343 L 375.5 346 L 373.5 343 Z " /><path fill="#7fde30" stroke="#7fde30" stroke-width="1" opacity="0.7607843137254902" d="M 357.5 344 L 358 348.5 L 357 348.5 L 357.5 344 Z " /><path fill="#7fde30" stroke="#7fde30" stroke-width="1" opacity="0.7607843137254902" d="M 356.5 350 L 354.5 353 L 356.5 350 Z " /><path fill="#7fde30" stroke="#7fde30" stroke-width="1" opacity="0.7607843137254902" d="M 228.5 352 L 231 352.5 L 228.5 353 L 228.5 352 Z " /><path fill="#7fde30" stroke="#7fde30" stroke-width="1" opacity="0.7607843137254902" d="M 233.5 353 L 236 353.5 L 233.5 354 L 233.5 353 Z " /><path fill="#7fde30" stroke="#7fde30" stroke-width="1" opacity="0.7607843137254902" d="M 240.5 354 L 243 354.5 L 240.5 355 L 240.5 354 Z " /><path fill="#7fde30" stroke="#7fde30" stroke-width="1" opacity="0.7607843137254902" d="M 345.5 354 L 348 354.5 L 345.5 355 L 345.5 354 Z " /><path fill="#7fde30" stroke="#7fde30" stroke-width="1" opacity="0.7607843137254902" d="M 247.5 355 L 252 355.5 L 247.5 356 L 247.5 355 Z " /><path fill="#7fde30" stroke="#7fde30" stroke-width="1" opacity="0.7607843137254902" d="M 336.5 355 L 341 355.5 L 336.5 356 L 336.5 355 Z " /><path fill="#7fde30" stroke="#7fde30" stroke-width="1" opacity="0.7607843137254902" d="M 257.5 356 L 263 356.5 L 257.5 357 L 257.5 356 Z " /><path fill="#7fde30" stroke="#7fde30" stroke-width="1" opacity="0.7607843137254902" d="M 325.5 356 L 331 356.5 L 325.5 357 L 325.5 356 Z " /><path fill="#7fde30" stroke="#7fde30" stroke-width="1" opacity="0.7607843137254902" d="M 271.5 357 L 288 357.5 L 271.5 358 L 271.5 357 Z " /><path fill="#7fde30" stroke="#7fde30" stroke-width="1" opacity="0.7607843137254902" d="M 298.5 357 L 316 357.5 L 298.5 358 L 298.5 357 Z " /><path fill="#7fde30" stroke="#7fde30" stroke-width="1" opacity="0.7607843137254902" d="M 378.5 366 L 383 366.5 L 378.5 367 L 378.5 366 Z " /><path fill="#7fde30" stroke="#7fde30" stroke-width="1" opacity="0.7607843137254902" d="M 397.5 366 L 402 366.5 L 397.5 367 L 397.5 366 Z " /><path fill="#7fde30" stroke="#7fde30" stroke-width="1" opacity="0.7607843137254902" d="M 377.5 381 L 381 381.5 L 377.5 382 L 377.5 381 Z " /><path fill="#7fde30" stroke="#7fde30" stroke-width="1" opacity="0.7607843137254902" d="M 399.5 381 L 403 381.5 L 399.5 382 L 399.5 381 Z " /><path fill="#7fde30" stroke="#7fde30" stroke-width="1" opacity="0.7607843137254902" d="M 447.5 384 L 448.5 386 L 447.5 384 Z " /><path fill="#7fde30" stroke="#7fde30" stroke-width="1" opacity="0.7607843137254902" d="M 273.5 385 L 276 385.5 L 273.5 386 L 273.5 385 Z " /><path fill="#7fde30" stroke="#7fde30" stroke-width="1" opacity="0.7607843137254902" d="M 450.5 386 L 451.5 388 L 450.5 386 Z " /><path fill="#7fde30" stroke="#7fde30" stroke-width="1" opacity="0.7607843137254902" d="M 453.5 388 L 454.5 390 L 453.5 388 Z " /><path fill="#7fde30" stroke="#7fde30" stroke-width="1" opacity="0.7607843137254902" d="M 261.5 389 L 260.5 391 L 261.5 389 Z " /><path fill="#7fde30" stroke="#7fde30" stroke-width="1" opacity="0.7607843137254902" d="M 429.5 390 L 430.5 392 L 429.5 390 Z " /><path fill="#7fde30" stroke="#7fde30" stroke-width="1" opacity="0.7607843137254902" d="M 456.5 390 L 457.5 392 L 456.5 390 Z " /><path fill="#7fde30" stroke="#7fde30" stroke-width="1" opacity="0.7607843137254902" d="M 255.5 393 L 253.5 396 L 255.5 393 Z " /><path fill="#7fde30" stroke="#7fde30" stroke-width="1" opacity="0.7607843137254902" d="M 434.5 393 L 435.5 395 L 434.5 393 Z " /><path fill="#7fde30" stroke="#7fde30" stroke-width="1" opacity="0.7607843137254902" d="M 125.5 395 L 134 395.5 L 125.5 396 L 125.5 395 Z " /><path fill="#7fde30" stroke="#7fde30" stroke-width="1" opacity="0.7607843137254902" d="M 437.5 395 L 438.5 397 L 437.5 395 Z " /><path fill="#7fde30" stroke="#7fde30" stroke-width="1" opacity="0.7607843137254902" d="M 463.5 395 L 506 395.5 L 463.5 396 L 463.5 395 Z " /><path fill="#7fde30" stroke="#7fde30" stroke-width="1" opacity="0.7607843137254902" d="M 508.5 396 L 510.5 399 L 508.5 396 Z " /><path fill="#7fde30" stroke="#7fde30" stroke-width="1" opacity="0.7607843137254902" d="M 440.5 397 L 441.5 399 L 440.5 397 Z " /><path fill="#7fde30" stroke="#7fde30" stroke-width="1" opacity="0.7607843137254902" d="M 279.5 399 L 331 399.5 L 279.5 400 L 279.5 399 Z " /><path fill="#7fde30" stroke="#7fde30" stroke-width="1" opacity="0.7607843137254902" d="M 443.5 399 L 444.5 401 L 443.5 399 Z " /><path fill="#7fde30" stroke="#7fde30" stroke-width="1" opacity="0.7607843137254902" d="M 112.5 400 L 111.5 402 L 112.5 400 Z " /><path fill="#7fde30" stroke="#7fde30" stroke-width="1" opacity="0.7607843137254902" d="M 248.5 400 L 246.5 403 L 248.5 400 Z " /><path fill="#7fde30" stroke="#7fde30" stroke-width="1" opacity="0.7607843137254902" d="M 268.5 402 L 270 402.5 L 267.5 404 L 268.5 402 Z " /><path fill="#7fde30" stroke="#7fde30" stroke-width="1" opacity="0.7607843137254902" d="M 245.5 404 L 244.5 406 L 245.5 404 Z " /><path fill="#7fde30" stroke="#7fde30" stroke-width="1" opacity="0.7607843137254902" d="M 265.5 404 L 264.5 406 L 265.5 404 Z " /><path fill="#7fde30" stroke="#7fde30" stroke-width="1" opacity="0.7607843137254902" d="M 450.5 404 L 451.5 406 L 450.5 404 Z " /><path fill="#7fde30" stroke="#7fde30" stroke-width="1" opacity="0.7607843137254902" d="M 106.5 406 L 105.5 408 L 106.5 406 Z " /><path fill="#7fde30" stroke="#7fde30" stroke-width="1" opacity="0.7607843137254902" d="M 453.5 406 L 454.5 408 L 453.5 406 Z " /><path fill="#7fde30" stroke="#7fde30" stroke-width="1" opacity="0.7607843137254902" d="M 456.5 408 L 457.5 410 L 456.5 408 Z " /><path fill="#7fde30" stroke="#7fde30" stroke-width="1" opacity="0.7607843137254902" d="M 125.5 410 L 128 410.5 L 125.5 411 L 125.5 410 Z " /><path fill="#7fde30" stroke="#7fde30" stroke-width="1" opacity="0.7607843137254902" d="M 131.5 410 L 134 410.5 L 131.5 411 L 131.5 410 Z " /><path fill="#7fde30" stroke="#7fde30" stroke-width="1" opacity="0.7607843137254902" d="M 460.5 410 L 497 410.5 L 460.5 411 L 460.5 410 Z " /><path fill="#7fde30" stroke="#7fde30" stroke-width="1" opacity="0.7607843137254902" d="M 117.5 416 L 116.5 418 L 117.5 416 Z " /><path fill="#7fde30" stroke="#7fde30" stroke-width="1" opacity="0.7607843137254902" d="M 100.5 418 L 101 420.5 L 100 420.5 L 100.5 418 Z " /><path fill="#7fde30" stroke="#7fde30" stroke-width="1" opacity="0.7607843137254902" d="M 253.5 423 L 254 427 L 341 427.5 L 253 428 L 253.5 423 Z " /><path fill="#7fde30" stroke="#7fde30" stroke-width="1" opacity="0.7607843137254902" d="M 100.5 428 L 101 430.5 L 100 430.5 L 100.5 428 Z " /><path fill="#7fde30" stroke="#7fde30" stroke-width="1" opacity="0.7607843137254902" d="M 117.5 433 L 120.5 437 L 117.5 433 Z " /><path fill="#7fde30" stroke="#7fde30" stroke-width="1" opacity="0.7607843137254902" d="M 347.5 433 L 348 437.5 L 347 437.5 L 347.5 433 Z " /><path fill="#7fde30" stroke="#7fde30" stroke-width="1" opacity="0.7607843137254902" d="M 104.5 440 L 105.5 442 L 104.5 440 Z " /><path fill="#7fde30" stroke="#7fde30" stroke-width="1" opacity="0.7607843137254902" d="M 252.5 442 L 342 442.5 L 252.5 443 L 252.5 442 Z " /><path fill="#7fde30" stroke="#7fde30" stroke-width="1" opacity="0.7607843137254902" d="M 107.5 444 L 109.5 447 L 107.5 444 Z " /><path fill="#7fde30" stroke="#7fde30" stroke-width="1" opacity="0.7607843137254902" d="M 112.5 448 L 113.5 450 L 112.5 448 Z " /><path fill="#7fde30" stroke="#7fde30" stroke-width="1" opacity="0.7607843137254902" d="M 195.5 474 L 193.5 477 L 195.5 474 Z " /><path fill="#7fde30" stroke="#7fde30" stroke-width="1" opacity="0.7607843137254902" d="M 212.5 475 L 211.5 477 L 212.5 475 Z " /><path fill="#7fde30" stroke="#7fde30" stroke-width="1" opacity="0.7607843137254902" d="M 455.5 475 L 497 475.5 L 455.5 476 L 455.5 475 Z " /><path fill="#7fde30" stroke="#7fde30" stroke-width="1" opacity="0.7607843137254902" d="M 444.5 477 L 447 477.5 L 444.5 478 L 444.5 477 Z " /><path fill="#7fde30" stroke="#7fde30" stroke-width="1" opacity="0.7607843137254902" d="M 438.5 478 L 441 478.5 L 438.5 479 L 438.5 478 Z " /><path fill="#7fde30" stroke="#7fde30" stroke-width="1" opacity="0.7607843137254902" d="M 427.5 480 L 430 480.5 L 427.5 481 L 427.5 480 Z " /><path fill="#7fde30" stroke="#7fde30" stroke-width="1" opacity="0.7607843137254902" d="M 421.5 481 L 424 481.5 L 421.5 482 L 421.5 481 Z " /><path fill="#7fde30" stroke="#7fde30" stroke-width="1" opacity="0.7607843137254902" d="M 415.5 482 L 418 482.5 L 415.5 483 L 415.5 482 Z " /><path fill="#7fde30" stroke="#7fde30" stroke-width="1" opacity="0.7607843137254902" d="M 410.5 483 L 413 483.5 L 410.5 484 L 410.5 483 Z " /><path fill="#7fde30" stroke="#7fde30" stroke-width="1" opacity="0.7607843137254902" d="M 404.5 484 L 407 484.5 L 404.5 485 L 404.5 484 Z " /><path fill="#7fde30" stroke="#7fde30" stroke-width="1" opacity="0.7607843137254902" d="M 398.5 485 L 401 485.5 L 398.5 486 L 398.5 485 Z " /><path fill="#7fde30" stroke="#7fde30" stroke-width="1" opacity="0.7607843137254902" d="M 393.5 486 L 396 486.5 L 393.5 487 L 393.5 486 Z " /><path fill="#7fde30" stroke="#7fde30" stroke-width="1" opacity="0.7607843137254902" d="M 387.5 487 L 390 487.5 L 387.5 488 L 387.5 487 Z " /><path fill="#7fde30" stroke="#7fde30" stroke-width="1" opacity="0.7607843137254902" d="M 381.5 488 L 384 488.5 L 381.5 489 L 381.5 488 Z " /><path fill="#7fde30" stroke="#7fde30" stroke-width="1" opacity="0.7607843137254902" d="M 370.5 490 L 373 490.5 L 370.5 491 L 370.5 490 Z " /><path fill="#7fde30" stroke="#7fde30" stroke-width="1" opacity="0.7607843137254902" d="M 455.5 490 L 458 490.5 L 455.5 491 L 455.5 490 Z " /><path fill="#7fde30" stroke="#7fde30" stroke-width="1" opacity="0.7607843137254902" d="M 364.5 491 L 367 491.5 L 364.5 492 L 364.5 491 Z " /><path fill="#7fde30" stroke="#7fde30" stroke-width="1" opacity="0.7607843137254902" d="M 359.5 492 L 362 492.5 L 359.5 493 L 359.5 492 Z " /><path fill="#7fde30" stroke="#7fde30" stroke-width="1" opacity="0.7607843137254902" d="M 444.5 492 L 447 492.5 L 444.5 493 L 444.5 492 Z " /><path fill="#7fde30" stroke="#7fde30" stroke-width="1" opacity="0.7607843137254902" d="M 277.5 493 L 280 493.5 L 277.5 494 L 277.5 493 Z " /><path fill="#7fde30" stroke="#7fde30" stroke-width="1" opacity="0.7607843137254902" d="M 353.5 493 L 356 493.5 L 353.5 494 L 353.5 493 Z " /><path fill="#7fde30" stroke="#7fde30" stroke-width="1" opacity="0.7607843137254902" d="M 438.5 493 L 441 493.5 L 438.5 494 L 438.5 493 Z " /><path fill="#7fde30" stroke="#7fde30" stroke-width="1" opacity="0.7607843137254902" d="M 283.5 494 L 286 494.5 L 283.5 495 L 283.5 494 Z " /><path fill="#7fde30" stroke="#7fde30" stroke-width="1" opacity="0.7607843137254902" d="M 347.5 494 L 350 494.5 L 347.5 495 L 347.5 494 Z " /><path fill="#7fde30" stroke="#7fde30" stroke-width="1" opacity="0.7607843137254902" d="M 432.5 494 L 435 494.5 L 432.5 495 L 432.5 494 Z " /><path fill="#7fde30" stroke="#7fde30" stroke-width="1" opacity="0.7607843137254902" d="M 289.5 495 L 293 495.5 L 289.5 496 L 289.5 495 Z " /><path fill="#7fde30" stroke="#7fde30" stroke-width="1" opacity="0.7607843137254902" d="M 339.5 495 L 343 495.5 L 339.5 496 L 339.5 495 Z " /><path fill="#7fde30" stroke="#7fde30" stroke-width="1" opacity="0.7607843137254902" d="M 427.5 495 L 430 495.5 L 427.5 496 L 427.5 495 Z " /><path fill="#7fde30" stroke="#7fde30" stroke-width="1" opacity="0.7607843137254902" d="M 298.5 496 L 305 496.5 L 298.5 497 L 298.5 496 Z " /><path fill="#7fde30" stroke="#7fde30" stroke-width="1" opacity="0.7607843137254902" d="M 328.5 496 L 334 496.5 L 328.5 497 L 328.5 496 Z " /><path fill="#7fde30" stroke="#7fde30" stroke-width="1" opacity="0.7607843137254902" d="M 421.5 496 L 424 496.5 L 421.5 497 L 421.5 496 Z " /><path fill="#7fde30" stroke="#7fde30" stroke-width="1" opacity="0.7607843137254902" d="M 410.5 498 L 413 498.5 L 410.5 499 L 410.5 498 Z " /><path fill="#7fde30" stroke="#7fde30" stroke-width="1" opacity="0.7607843137254902" d="M 404.5 499 L 407 499.5 L 404.5 500 L 404.5 499 Z " /><path fill="#7fde30" stroke="#7fde30" stroke-width="1" opacity="0.7607843137254902" d="M 387.5 502 L 390 502.5 L 387.5 503 L 387.5 502 Z " /><path fill="#7fde30" stroke="#7fde30" stroke-width="1" opacity="0.7607843137254902" d="M 381.5 503 L 384 503.5 L 381.5 504 L 381.5 503 Z " /><path fill="#7fde30" stroke="#7fde30" stroke-width="1" opacity="0.7607843137254902" d="M 370.5 505 L 373 505.5 L 370.5 506 L 370.5 505 Z " /><path fill="#7fde30" stroke="#7fde30" stroke-width="1" opacity="0.7607843137254902" d="M 364.5 506 L 367 506.5 L 364.5 507 L 364.5 506 Z " /><path fill="#7fde30" stroke="#7fde30" stroke-width="1" opacity="0.7607843137254902" d="M 272.5 507 L 275 507.5 L 272.5 508 L 272.5 507 Z " /><path fill="#7fde30" stroke="#7fde30" stroke-width="1" opacity="0.7607843137254902" d="M 277.5 508 L 280 508.5 L 277.5 509 L 277.5 508 Z " /><path fill="#7fde30" stroke="#7fde30" stroke-width="1" opacity="0.7607843137254902" d="M 353.5 508 L 356 508.5 L 353.5 509 L 353.5 508 Z " /><path fill="#7fde30" stroke="#7fde30" stroke-width="1" opacity="0.7607843137254902" d="M 283.5 509 L 287 509.5 L 283.5 510 L 283.5 509 Z " /><path fill="#7fde30" stroke="#7fde30" stroke-width="1" opacity="0.7607843137254902" d="M 346.5 509 L 350 509.5 L 346.5 510 L 346.5 509 Z " /><path fill="#7fde30" stroke="#7fde30" stroke-width="1" opacity="0.7607843137254902" d="M 290.5 510 L 295 510.5 L 290.5 511 L 290.5 510 Z " /><path fill="#7fde30" stroke="#7fde30" stroke-width="1" opacity="0.7607843137254902" d="M 338.5 510 L 342 510.5 L 338.5 511 L 338.5 510 Z " /><path fill="#7fde30" stroke="#7fde30" stroke-width="1" opacity="0.7607843137254902" d="M 301.5 511 L 312 511.5 L 301.5 512 L 301.5 511 Z " /><path fill="#7fde30" stroke="#7fde30" stroke-width="1" opacity="0.7607843137254902" d="M 321.5 511 L 332 511.5 L 321.5 512 L 321.5 511 Z " /><path fill="#7fde30" stroke="#7fde30" stroke-width="1" opacity="0" d="M 0 0 L 235 0.5 Q 227.4 2.4 223 7.5 L 218 17.5 L 218 27.5 L 225 46.5 L 223.5 46 L 210.5 41 L 195.5 38 L 174.5 38 L 163.5 40 L 148.5 45 Q 136.3 50.3 127 58.5 L 125 64.5 L 128.5 70 L 135.5 71 Q 146.5 61 162.5 56 L 177.5 53 L 192.5 53 L 203.5 55 L 217.5 60 L 300 103.5 L 292.5 112 Q 284.2 120.2 265.5 118 L 217.5 100 L 205.5 97 L 200 101.5 Q 193.5 139.5 168.5 159 L 148.5 170 L 133.5 174 L 114.5 175 L 109 179.5 Q 107.5 188.5 113.5 190 L 136.5 189 L 156.5 183 L 156 184.5 L 143 218.5 L 139 236.5 L 138 253 L 135.5 253 L 103.5 237 L 82.5 231 L 68.5 230 L 67.5 229 L 15 229 L 15 110 L 85.5 110 L 116 86.5 L 117 79.5 Q 115.5 73.5 106.5 75 L 82.5 94 L 6.5 94 L 1 97.5 L 0.5 99 L 0 0 Z " /><path fill="#7fde30" stroke="#7fde30" stroke-width="1" opacity="0" d="M 353.5 0 L 512 0 L 512 399.5 L 511 399.5 L 508.5 396 L 505.5 395 L 462.5 395 Q 446.5 381 425.5 372 L 401.5 366 L 378.5 366 L 354.5 372 L 327.5 385 L 273.5 385 L 269.5 386 Q 254.4 390.9 246 402.5 Q 239.5 410.3 239 423 L 133.5 395 L 125.5 395 Q 111.6 397.6 105 407.5 L 100 418.5 L 100 430.5 Q 102.5 441 109.5 447 L 119.5 453 L 177.5 475 L 185.5 478 L 191.5 478 L 196 474.5 L 197 470.5 L 195 465 L 125.5 439 L 117 432.5 Q 114.1 428.9 115 421.5 L 120.5 413 L 130.5 410 L 252.5 443 L 341.5 443 L 346 441 L 348 437.5 L 348 433.5 L 343.5 428 L 340.5 427 L 254 427 Q 254.1 412.4 263.5 406 L 275.5 400 L 330.5 400 L 366.5 384 L 381.5 381 L 398.5 381 L 413.5 384 L 424.5 388 L 460.5 411 L 497 411 L 497 475 L 455.5 475 L 449.5 477 L 415.5 482 L 409.5 484 L 398.5 485 L 392.5 487 L 381.5 488 L 346.5 495 L 328.5 496 L 327.5 497 L 305.5 497 L 304.5 496 L 286.5 495 L 266.5 491 Q 241.8 484.2 220.5 474 L 214.5 474 L 211 476.5 L 210 484.5 L 217.5 490 L 256.5 504 L 277.5 509 L 301 511.5 L 0 512 L 0.5 240 L 4.5 244 L 63.5 244 L 64.5 245 L 73.5 245 L 84.5 247 L 102.5 253 L 138 271.5 L 139 281.5 L 143 294.5 Q 150.6 312.9 164.5 325 L 189.5 341 L 223.5 352 L 246.5 355 L 247.5 356 L 270.5 357 L 271.5 358 L 315.5 358 L 316.5 357 L 330.5 357 L 331.5 356 L 347.5 355 L 352.5 354 L 357 350.5 L 358 344.5 L 354.5 340 L 345.5 339 L 344.5 340 L 327.5 341 L 326.5 342 L 278.5 343 L 277.5 342 L 260.5 342 L 259.5 341 L 243.5 340 L 226.5 337 L 205.5 331 Q 181.1 322.4 166 304.5 Q 157.5 294 154 278.5 L 153 273.5 L 153 246.5 L 156 229.5 L 163 206.5 L 176 179.5 Q 194.9 147.4 222.5 124 L 227.5 120 L 258.5 132 L 268.5 134 L 276.5 134 L 286.5 132 L 297.5 127 L 310 115.5 L 311.5 113 L 348.5 113 L 349.5 112 Q 371.9 127.1 389 147.5 Q 412.4 173.5 426 209.5 L 434 239.5 Q 432.5 245 435 246.5 L 435 272.5 Q 430.2 300.7 411.5 315 L 401.5 322 Q 391.2 328.7 377.5 332 L 373 335.5 L 372 341.5 L 375.5 346 L 382.5 347 Q 412.3 337.8 431 317.5 Q 442.5 304.5 448 285.5 L 450 275.5 L 450 266.5 L 451 265.5 L 451 254.5 L 450 253.5 L 449 236.5 L 444 215.5 Q 437 192.5 426 173.5 Q 407.4 141.1 380.5 117 L 367 105.5 L 373 94.5 L 373 82.5 Q 370.2 72.8 362.5 68 L 356 66 L 370 27.5 L 370 17.5 L 364 6 L 353.5 1 L 353.5 0 Z M 292 164 L 290 165 Q 285 167 286 176 L 279 179 Q 270 185 267 197 Q 266 208 270 214 Q 276 221 286 226 L 286 256 L 274 250 L 269 251 Q 263 253 265 262 L 269 265 L 279 270 L 286 271 L 287 280 L 292 283 L 298 282 Q 303 279 301 270 L 310 267 Q 320 261 323 248 Q 325 230 317 224 L 304 215 L 301 215 L 301 192 L 310 196 L 314 195 L 318 190 L 317 185 Q 312 177 301 176 L 300 168 Q 298 163 292 164 Z " /><path fill="#7fde30" stroke="#7fde30" stroke-width="1" opacity="0" d="M 238.5 15 L 349.5 15 L 354 18.5 L 355 24.5 L 340 64 L 257.5 64 L 245 56.5 L 235 30.5 L 233 20.5 L 236.5 16 L 238.5 15 Z " /><path fill="#7fde30" stroke="#7fde30" stroke-width="1" opacity="0" d="M 290.5 80 L 352.5 80 L 357 83.5 L 358 91.5 L 354.5 96 L 352.5 97 L 314.5 97 L 308.5 90 L 291.5 82 L 290.5 80 Z " /><path fill="#7fde30" stroke="#7fde30" stroke-width="1" opacity="0" d="M 285.5 193 L 286 206.5 L 284.5 206 Q 281.9 206.8 283 203.5 L 282 198.5 L 285.5 193 Z " /><path fill="#7fde30" stroke="#7fde30" stroke-width="1" opacity="0" d="M 301.5 231 L 307 235.5 Q 309.3 238.7 308 245.5 L 301.5 254 L 301.5 231 Z " /><path fill="#7fde30" stroke="#7fde30" stroke-width="1" opacity="0" d="M 511.5 486 L 512 512 L 332 511.5 L 355.5 509 L 361.5 507 L 412.5 499 L 458.5 490 L 507.5 490 L 511.5 486 Z " /><path fill="#7fde30" stroke="#7fde30" stroke-width="1" opacity="0.996078431372549" d="M 360.5 4 L 365.5 10 L 360.5 4 Z " /><path fill="#7fde30" stroke="#7fde30" stroke-width="1" opacity="0.996078431372549" d="M 226.5 5 L 222.5 10 L 226.5 5 Z " /><path fill="#7fde30" stroke="#7fde30" stroke-width="1" opacity="0.996078431372549" d="M 232.5 21 L 233 23.5 L 232 23.5 L 232.5 21 Z " /><path fill="#7fde30" stroke="#7fde30" stroke-width="1" opacity="0.996078431372549" d="M 355.5 21 L 356 23.5 L 355 23.5 L 355.5 21 Z " /><path fill="#7fde30" stroke="#7fde30" stroke-width="1" opacity="0.996078431372549" d="M 130.5 56 L 129.5 58 L 130.5 56 Z " /><path fill="#7fde30" stroke="#7fde30" stroke-width="1" opacity="0.996078431372549" d="M 365.5 71 L 366.5 73 L 365.5 71 Z " /><path fill="#7fde30" stroke="#7fde30" stroke-width="1" opacity="0.996078431372549" d="M 113.5 76 L 115.5 79 L 113.5 76 Z " /><path fill="#7fde30" stroke="#7fde30" stroke-width="1" opacity="0.996078431372549" d="M 101.5 79 L 100.5 81 L 101.5 79 Z " /><path fill="#7fde30" stroke="#7fde30" stroke-width="1" opacity="0.996078431372549" d="M 355.5 81 L 356.5 83 L 355.5 81 Z " /><path fill="#7fde30" stroke="#7fde30" stroke-width="1" opacity="0.996078431372549" d="M 96.5 83 L 95.5 85 L 96.5 83 Z " /><path fill="#7fde30" stroke="#7fde30" stroke-width="1" opacity="0.996078431372549" d="M 91.5 87 L 90.5 89 L 91.5 87 Z " /><path fill="#7fde30" stroke="#7fde30" stroke-width="1" opacity="0.996078431372549" d="M 111.5 89 L 110.5 91 L 111.5 89 Z " /><path fill="#7fde30" stroke="#7fde30" stroke-width="1" opacity="0.996078431372549" d="M 356.5 94 L 355.5 96 L 356.5 94 Z " /><path fill="#7fde30" stroke="#7fde30" stroke-width="1" opacity="0.996078431372549" d="M 102.5 96 L 101.5 98 L 102.5 96 Z " /><path fill="#7fde30" stroke="#7fde30" stroke-width="1" opacity="0.996078431372549" d="M 97.5 100 L 96.5 102 L 97.5 100 Z " /><path fill="#7fde30" stroke="#7fde30" stroke-width="1" opacity="0.996078431372549" d="M 92.5 104 L 91.5 106 L 92.5 104 Z " /><path fill="#7fde30" stroke="#7fde30" stroke-width="1" opacity="0.996078431372549" d="M 297.5 107 L 293.5 112 L 297.5 107 Z " /><path fill="#7fde30" stroke="#7fde30" stroke-width="1" opacity="0.996078431372549" d="M 370.5 109 L 371.5 111 L 370.5 109 Z " /><path fill="#7fde30" stroke="#7fde30" stroke-width="1" opacity="0.996078431372549" d="M 355.5 115 L 356.5 117 L 355.5 115 Z " /><path fill="#7fde30" stroke="#7fde30" stroke-width="1" opacity="0.996078431372549" d="M 377.5 115 L 379.5 118 L 377.5 115 Z " /><path fill="#7fde30" stroke="#7fde30" stroke-width="1" opacity="0.996078431372549" d="M 306.5 118 L 303.5 122 L 306.5 118 Z " /><path fill="#7fde30" stroke="#7fde30" stroke-width="1" opacity="0.996078431372549" d="M 360.5 119 L 361.5 121 L 360.5 119 Z " /><path fill="#7fde30" stroke="#7fde30" stroke-width="1" opacity="0.996078431372549" d="M 222.5 123 L 220.5 126 L 222.5 123 Z " /><path fill="#7fde30" stroke="#7fde30" stroke-width="1" opacity="0.996078431372549" d="M 365.5 123 L 367.5 126 L 365.5 123 Z " /><path fill="#7fde30" stroke="#7fde30" stroke-width="1" opacity="0.996078431372549" d="M 211.5 133 L 207.5 138 L 211.5 133 Z " /><path fill="#7fde30" stroke="#7fde30" stroke-width="1" opacity="0.996078431372549" d="M 396.5 134 L 398.5 137 L 396.5 134 Z " /><path fill="#7fde30" stroke="#7fde30" stroke-width="1" opacity="0.996078431372549" d="M 184.5 142 L 183.5 144 L 184.5 142 Z " /><path fill="#7fde30" stroke="#7fde30" stroke-width="1" opacity="0.996078431372549" d="M 403.5 142 L 404.5 144 L 403.5 142 Z " /><path fill="#7fde30" stroke="#7fde30" stroke-width="1" opacity="0.996078431372549" d="M 387.5 145 L 389.5 148 L 387.5 145 Z " /><path fill="#7fde30" stroke="#7fde30" stroke-width="1" opacity="0.996078431372549" d="M 181.5 146 L 180.5 148 L 181.5 146 Z " /><path fill="#7fde30" stroke="#7fde30" stroke-width="1" opacity="0.996078431372549" d="M 199.5 146 L 197.5 149 L 199.5 146 Z " /><path fill="#7fde30" stroke="#7fde30" stroke-width="1" opacity="0.996078431372549" d="M 407.5 147 L 408.5 149 L 407.5 147 Z " /><path fill="#7fde30" stroke="#7fde30" stroke-width="1" opacity="0.996078431372549" d="M 393.5 152 L 394.5 154 L 393.5 152 Z " /><path fill="#7fde30" stroke="#7fde30" stroke-width="1" opacity="0.996078431372549" d="M 191.5 156 L 189.5 159 L 191.5 156 Z " /><path fill="#7fde30" stroke="#7fde30" stroke-width="1" opacity="0.996078431372549" d="M 169.5 158 L 168.5 160 L 169.5 158 Z " /><path fill="#7fde30" stroke="#7fde30" stroke-width="1" opacity="0.996078431372549" d="M 185.5 164 L 184.5 166 L 185.5 164 Z " /><path fill="#7fde30" stroke="#7fde30" stroke-width="1" opacity="0.996078431372549" d="M 300.5 171 L 301 175.5 L 300 175.5 L 300.5 171 Z " /><path fill="#7fde30" stroke="#7fde30" stroke-width="1" opacity="0.996078431372549" d="M 111.5 177 L 110.5 179 L 111.5 177 Z " /><path fill="#7fde30" stroke="#7fde30" stroke-width="1" opacity="0.996078431372549" d="M 276.5 181 L 273.5 185 L 276.5 181 Z " /><path fill="#7fde30" stroke="#7fde30" stroke-width="1" opacity="0.996078431372549" d="M 314.5 182 L 315.5 184 L 314.5 182 Z " /><path fill="#7fde30" stroke="#7fde30" stroke-width="1" opacity="0.996078431372549" d="M 110.5 186 L 112.5 189 L 110.5 186 Z " /><path fill="#7fde30" stroke="#7fde30" stroke-width="1" opacity="0.996078431372549" d="M 300.5 191 L 301 214.5 L 300 214.5 L 300.5 191 Z " /><path fill="#7fde30" stroke="#7fde30" stroke-width="1" opacity="0.996078431372549" d="M 285.5 192 L 283.5 195 L 285.5 192 Z " /><path fill="#7fde30" stroke="#7fde30" stroke-width="1" opacity="0.996078431372549" d="M 315.5 192 L 314.5 194 L 315.5 192 Z " /><path fill="#7fde30" stroke="#7fde30" stroke-width="1" opacity="0.996078431372549" d="M 267.5 199 L 268 202.5 L 267 202.5 L 267.5 199 Z " /><path fill="#7fde30" stroke="#7fde30" stroke-width="1" opacity="0.996078431372549" d="M 312.5 220 L 317.5 226 L 312.5 220 Z " /><path fill="#7fde30" stroke="#7fde30" stroke-width="1" opacity="0.996078431372549" d="M 300 230 L 302 230.5 L 301 231.5 L 301 253.5 L 303 253.5 Q 301.5 256.5 300 253.5 L 300 230 Z " /><path fill="#7fde30" stroke="#7fde30" stroke-width="1" opacity="0.996078431372549" d="M 1.5 240 L 3.5 243 L 1.5 240 Z " /><path fill="#7fde30" stroke="#7fde30" stroke-width="1" opacity="0.996078431372549" d="M 306.5 249 L 305.5 251 L 306.5 249 Z " /><path fill="#7fde30" stroke="#7fde30" stroke-width="1" opacity="0.996078431372549" d="M 315.5 260 L 311.5 265 L 315.5 260 Z " /><path fill="#7fde30" stroke="#7fde30" stroke-width="1" opacity="0.996078431372549" d="M 301.5 269 L 301 270.5 L 300.5 276 L 300 270.5 L 301.5 269 Z " /><path fill="#7fde30" stroke="#7fde30" stroke-width="1" opacity="0.996078431372549" d="M 166.5 305 L 167.5 307 L 166.5 305 Z " /><path fill="#7fde30" stroke="#7fde30" stroke-width="1" opacity="0.996078431372549" d="M 421.5 305 L 420.5 307 L 421.5 305 Z " /><path fill="#7fde30" stroke="#7fde30" stroke-width="1" opacity="0.996078431372549" d="M 437.5 307 L 436.5 309 L 437.5 307 Z " /><path fill="#7fde30" stroke="#7fde30" stroke-width="1" opacity="0.996078431372549" d="M 152.5 310 L 153.5 312 L 152.5 310 Z " /><path fill="#7fde30" stroke="#7fde30" stroke-width="1" opacity="0.996078431372549" d="M 175.5 314 L 176.5 316 L 175.5 314 Z " /><path fill="#7fde30" stroke="#7fde30" stroke-width="1" opacity="0.996078431372549" d="M 412.5 314 L 411.5 316 L 412.5 314 Z " /><path fill="#7fde30" stroke="#7fde30" stroke-width="1" opacity="0.996078431372549" d="M 156.5 315 L 157.5 317 L 156.5 315 Z " /><path fill="#7fde30" stroke="#7fde30" stroke-width="1" opacity="0.996078431372549" d="M 431.5 315 L 429.5 318 L 431.5 315 Z " /><path fill="#7fde30" stroke="#7fde30" stroke-width="1" opacity="0.996078431372549" d="M 423.5 323 L 421.5 326 L 423.5 323 Z " /><path fill="#7fde30" stroke="#7fde30" stroke-width="1" opacity="0.996078431372549" d="M 165.5 324 L 166.5 326 L 165.5 324 Z " /><path fill="#7fde30" stroke="#7fde30" stroke-width="1" opacity="0.996078431372549" d="M 170.5 328 L 171.5 330 L 170.5 328 Z " /><path fill="#7fde30" stroke="#7fde30" stroke-width="1" opacity="0.996078431372549" d="M 288.5 357 L 298 357.5 L 288.5 358 L 288.5 357 Z " /><path fill="#7fde30" stroke="#7fde30" stroke-width="1" opacity="0.996078431372549" d="M 386.5 380 L 394 380.5 L 386.5 381 L 386.5 380 Z " /><path fill="#7fde30" stroke="#7fde30" stroke-width="1" opacity="0.996078431372549" d="M 461.5 394 L 462.5 396 L 461.5 394 Z " /><path fill="#7fde30" stroke="#7fde30" stroke-width="1" opacity="0.996078431372549" d="M 252.5 396 L 249.5 400 L 252.5 396 Z " /><path fill="#7fde30" stroke="#7fde30" stroke-width="1" opacity="0.996078431372549" d="M 445.5 400 L 446.5 402 L 445.5 400 Z " /><path fill="#7fde30" stroke="#7fde30" stroke-width="1" opacity="0.996078431372549" d="M 110.5 402 L 107.5 406 L 110.5 402 Z " /><path fill="#7fde30" stroke="#7fde30" stroke-width="1" opacity="0.996078431372549" d="M 263.5 405 L 259.5 410 L 263.5 405 Z " /><path fill="#7fde30" stroke="#7fde30" stroke-width="1" opacity="0.996078431372549" d="M 120.5 412 L 117.5 416 L 120.5 412 Z " /><path fill="#7fde30" stroke="#7fde30" stroke-width="1" opacity="0.996078431372549" d="M 344.5 429 L 345.5 431 L 344.5 429 Z " /><path fill="#7fde30" stroke="#7fde30" stroke-width="1" opacity="0.996078431372549" d="M 346.5 438 L 344.5 441 L 346.5 438 Z " /><path fill="#7fde30" stroke="#7fde30" stroke-width="1" opacity="0.996078431372549" d="M 106.5 442 L 107.5 444 L 106.5 442 Z " /><path fill="#7fde30" stroke="#7fde30" stroke-width="1" opacity="0.996078431372549" d="M 110.5 446 L 111.5 448 L 110.5 446 Z " /><path fill="#7fde30" stroke="#7fde30" stroke-width="1" opacity="0.996078431372549" d="M 193.5 465 L 194.5 467 L 193.5 465 Z " /><path fill="#7fde30" stroke="#7fde30" stroke-width="1" opacity="0.996078431372549" d="M 211.5 485 L 212.5 487 L 211.5 485 Z " /><path fill="#7fde30" stroke="#7fde30" stroke-width="1" opacity="0.996078431372549" d="M 510.5 486 L 508.5 489 L 510.5 486 Z " /><path fill="#7fde30" stroke="#7fde30" stroke-width="1" opacity="0.996078431372549" d="M 312.5 511 L 316 511.5 L 312.5 512 L 312.5 511 Z " /><path fill="#7fde30" stroke="#7fde30" stroke-width="1" opacity="0.996078431372549" d="M 317.5 511 L 321 511.5 L 317.5 512 L 317.5 511 Z " /><path fill="#7fde30" stroke="#7fde30" stroke-width="1" opacity="1" d="M 240.5 0 L 347.5 0 Q 348.7 2.3 353.5 1 L 359.5 4 L 366 10.5 Q 370 15.5 370 24.5 L 355 66 Q 364.2 68 369 75.5 Q 373.2 80.8 373 90.5 L 372 95.5 L 366 104.5 L 366 107 Q 382.6 118.1 396 133.5 Q 421.3 160.7 437 197.5 L 443 214.5 L 448 235.5 L 449 248.5 L 450 249.5 L 450 270.5 L 447 286.5 L 443 297.5 Q 436 312.4 424.5 323 Q 406.5 339.5 379.5 347 L 373 342.5 Q 372 336 375.5 334 Q 404.9 325.9 422 305.5 Q 430.2 295.7 434 281.5 L 435 270.5 L 436 269.5 L 436 249.5 L 430 219.5 L 422 197.5 L 404 165.5 L 380 136 L 350.5 112 L 311.5 112 L 300.5 124 L 287.5 131 L 279.5 133 L 265.5 133 L 235.5 122 L 226.5 120 L 207 137.5 Q 179.3 165.3 163 204.5 L 154 235.5 L 153 248.5 L 152 249.5 L 152 270.5 L 154 281.5 L 161 298.5 L 176.5 316 L 198.5 329 Q 214.4 335.6 233.5 339 L 253.5 341 L 254.5 342 L 265.5 342 L 266.5 343 L 321.5 343 L 322.5 342 L 333.5 342 L 350.5 339 L 357 343.5 Q 358.5 351.5 353.5 353 L 343.5 355 L 335.5 355 L 334.5 356 L 324.5 356 L 323.5 357 L 265.5 357 L 264.5 356 L 253.5 356 L 252.5 355 L 244.5 355 L 243.5 354 L 226.5 352 L 198.5 344 Q 174.1 334.9 158 317.5 L 145 297.5 L 140 282.5 L 139 271.5 L 136.5 269 L 99.5 251 L 83.5 246 L 72.5 245 L 71.5 244 L 6.5 244 L 1 239.5 L 0 235.5 L 0 102.5 L 3.5 96 L 5.5 95 L 82.5 95 L 104.5 77 L 110.5 75 L 116 79.5 Q 117.1 87.1 112.5 89 L 86.5 109 L 15 109 L 15 230 L 72.5 230 L 101.5 237 L 135.5 254 L 138 254 L 139 240.5 L 143 221.5 Q 148.9 199.6 158 182 L 137.5 188 L 116.5 190 L 110 185.5 L 109 181.5 L 113.5 176 L 131.5 175 L 141.5 173 L 155.5 168 Q 171.6 160.1 182 146.5 L 193 128.5 L 198 115.5 L 200 103.5 L 203.5 99 L 209.5 98 L 262.5 118 L 278.5 119 Q 291.3 116.3 298 107.5 L 300 102.5 L 209.5 56 L 197.5 53 L 172.5 53 L 157.5 57 Q 144.8 61.8 135.5 70 L 130.5 70 L 127 67.5 L 126 61.5 L 128.5 58 Q 140.1 48.6 155.5 43 L 172.5 39 L 187.5 38 L 188.5 39 L 197.5 39 L 207.5 41 L 226 48 L 219 28.5 L 218 20.5 Q 219.9 8.9 228.5 4 L 234.5 1 Q 239.2 2.3 240.5 0 Z M 237 15 L 232 22 L 245 59 L 258 65 L 340 65 L 342 62 L 356 24 L 355 19 L 352 15 L 237 15 Z M 288 79 L 289 81 L 309 91 Q 313 93 313 98 L 352 98 L 356 96 L 359 91 Q 360 85 357 83 L 352 79 L 288 79 Z " /><path fill="#7fde30" stroke="#7fde30" stroke-width="1" opacity="1" d="M 290.5 165 Q 298.1 163.9 300 168.5 L 300 175.5 L 301.5 176 Q 311.6 178.4 317 185.5 L 317 190.5 L 312.5 195 L 308.5 195 L 302.5 191 L 300 191 L 300 214.5 L 301.5 215 L 310.5 219 L 319 227.5 L 322 233.5 L 323 244.5 Q 320.1 259.1 309.5 266 L 300 270.5 Q 302 280 296.5 282 Q 288.5 283.5 287 278.5 L 286 270 Q 272.9 269.4 266 261.5 L 265 256.5 L 268.5 252 L 274.5 251 L 282.5 256 L 286 256 L 286 224.5 L 284.5 223 Q 275.8 220.2 271 213.5 Q 266.2 207.3 268 194.5 Q 271.2 185.2 278.5 180 L 286 177 L 287 168.5 L 290.5 165 Z M 286 192 L 282 197 L 282 205 L 283 206 Q 282 208 285 207 L 286 208 L 286 192 Z M 300 230 L 300 254 L 302 255 Q 308 252 309 244 Q 310 237 307 235 Q 305 230 300 230 Z " /><path fill="#7fde30" stroke="#7fde30" stroke-width="1" opacity="1" d="M 385.5 366 L 404.5 367 L 423.5 372 Q 445.9 381.1 462.5 396 L 506.5 396 L 510 398.5 L 512 403.5 L 512 481.5 L 511 485.5 L 507.5 489 L 505.5 490 L 454.5 490 L 448.5 492 L 437.5 493 L 431.5 495 L 380.5 503 L 351.5 509 L 336.5 510 L 335.5 511 L 317.5 511 L 316.5 512 L 315.5 511 L 288.5 510 L 262.5 505 L 224.5 492 L 214.5 488 L 211 484.5 L 210 480.5 L 212 476 L 217.5 474 Q 244.7 486.3 276.5 494 L 281.5 494 L 288.5 496 L 296.5 496 L 297.5 497 L 335.5 497 L 336.5 496 L 350.5 495 L 396.5 486 L 413.5 484 L 419.5 482 L 430.5 481 L 436.5 479 L 447.5 478 L 453.5 476 L 497 476 L 497 410 L 459.5 410 L 433.5 392 L 421.5 386 L 403.5 381 L 386.5 380 L 385.5 381 L 371.5 382 L 358.5 386 L 331.5 399 L 278.5 399 Q 265.5 401 259 409.5 Q 252.7 416 253 428 L 342.5 428 L 347 432.5 L 347 437.5 L 342.5 442 L 250.5 442 L 145.5 413 L 133.5 410 L 124.5 410 L 117 415.5 L 114 422.5 L 114 426.5 Q 115.4 434.6 121.5 438 L 191.5 464 L 196 468.5 Q 196.9 475.4 192.5 477 L 188.5 478 L 121.5 453 L 108 444.5 Q 100.3 437.3 100 422.5 L 105 408.5 L 112.5 401 L 123.5 396 L 135.5 396 L 139.5 398 L 150.5 400 L 154.5 402 L 239 424 Q 241.9 403.1 256.5 393 L 265.5 388 L 277.5 385 L 329.5 385 L 356.5 372 L 370.5 368 L 384.5 367 L 385.5 366 Z " /></svg>