<svg width="512" height="512" version="1.1" xmlns="http://www.w3.org/2000/svg" desc="Created with imagetracer.js version 1.2.6" ><path fill="#7fde30" stroke="#7fde30" stroke-width="1" opacity="0.2627450980392157" d="M 383.5 4 L 384.5 6 L 383.5 4 Z " /><path fill="#7fde30" stroke="#7fde30" stroke-width="1" opacity="0.2627450980392157" d="M 72.5 7 L 70.5 10 L 72.5 7 Z " /><path fill="#7fde30" stroke="#7fde30" stroke-width="1" opacity="0.2627450980392157" d="M 68.5 12 L 67.5 14 L 68.5 12 Z " /><path fill="#7fde30" stroke="#7fde30" stroke-width="1" opacity="0.2627450980392157" d="M 84.5 17 L 81.5 21 L 84.5 17 Z " /><path fill="#7fde30" stroke="#7fde30" stroke-width="1" opacity="0.2627450980392157" d="M 376.5 18 L 377.5 20 L 376.5 18 Z " /><path fill="#7fde30" stroke="#7fde30" stroke-width="1" opacity="0.2627450980392157" d="M 396.5 24 L 397 26.5 L 396 26.5 L 396.5 24 Z " /><path fill="#7fde30" stroke="#7fde30" stroke-width="1" opacity="0.2627450980392157" d="M 78.5 27 L 79 484.5 L 78 484.5 L 78.5 27 Z " /><path fill="#7fde30" stroke="#7fde30" stroke-width="1" opacity="0.2627450980392157" d="M 108.5 28 L 352 28.5 L 108.5 29 L 108.5 28 Z " /><path fill="#7fde30" stroke="#7fde30" stroke-width="1" opacity="0.2627450980392157" d="M 381.5 28 L 382 58.5 L 379.5 60 L 379.5 59 L 381 58.5 L 381.5 28 Z " /><path fill="#7fde30" stroke="#7fde30" stroke-width="1" opacity="0.2627450980392157" d="M 98.5 32 L 94.5 37 L 98.5 32 Z " /><path fill="#7fde30" stroke="#7fde30" stroke-width="1" opacity="0.2627450980392157" d="M 362.5 33 L 364.5 36 L 362.5 33 Z " /><path fill="#7fde30" stroke="#7fde30" stroke-width="1" opacity="0.2627450980392157" d="M 351.5 44 L 353.5 47 L 351.5 44 Z " /><path fill="#7fde30" stroke="#7fde30" stroke-width="1" opacity="0.2627450980392157" d="M 90.5 46 L 91 92.5 L 90 92.5 L 90.5 46 Z " /><path fill="#7fde30" stroke="#7fde30" stroke-width="1" opacity="0.2627450980392157" d="M 369.5 47 L 370 61.5 L 369 61.5 L 369.5 47 Z " /><path fill="#7fde30" stroke="#7fde30" stroke-width="1" opacity="0.2627450980392157" d="M 397.5 59 L 400 59.5 L 397.5 60 L 397.5 59 Z " /><path fill="#7fde30" stroke="#7fde30" stroke-width="1" opacity="0.2627450980392157" d="M 353.5 70 L 352.5 72 L 353.5 70 Z " /><path fill="#7fde30" stroke="#7fde30" stroke-width="1" opacity="0.2627450980392157" d="M 428.5 73 L 434.5 80 L 428.5 73 Z " /><path fill="#7fde30" stroke="#7fde30" stroke-width="1" opacity="0.2627450980392157" d="M 348.5 74 L 345.5 78 L 348.5 74 Z " /><path fill="#7fde30" stroke="#7fde30" stroke-width="1" opacity="0.2627450980392157" d="M 382.5 74 L 385 74.5 L 382.5 75 L 382.5 74 Z " /><path fill="#7fde30" stroke="#7fde30" stroke-width="1" opacity="0.2627450980392157" d="M 393.5 74 L 396 74.5 L 393.5 75 L 393.5 74 Z " /><path fill="#7fde30" stroke="#7fde30" stroke-width="1" opacity="0.2627450980392157" d="M 341.5 82 L 340.5 84 L 341.5 82 Z " /><path fill="#7fde30" stroke="#7fde30" stroke-width="1" opacity="0.2627450980392157" d="M 416.5 83 L 418.5 86 L 416.5 83 Z " /><path fill="#7fde30" stroke="#7fde30" stroke-width="1" opacity="0.2627450980392157" d="M 360.5 84 L 354.5 91 L 360.5 84 Z " /><path fill="#7fde30" stroke="#7fde30" stroke-width="1" opacity="0.2627450980392157" d="M 96.5 98 L 100 98.5 L 96.5 99 L 96.5 98 Z " /><path fill="#7fde30" stroke="#7fde30" stroke-width="1" opacity="0.2627450980392157" d="M 364.5 108 L 363.5 110 L 364.5 108 Z " /><path fill="#7fde30" stroke="#7fde30" stroke-width="1" opacity="0.2627450980392157" d="M 448.5 110 L 449 112.5 L 448 112.5 L 448.5 110 Z " /><path fill="#7fde30" stroke="#7fde30" stroke-width="1" opacity="0.2627450980392157" d="M 237.5 111 L 240 111.5 L 237.5 112 L 237.5 111 Z " /><path fill="#7fde30" stroke="#7fde30" stroke-width="1" opacity="0.2627450980392157" d="M 329.5 111 L 330 114.5 L 329 114.5 L 329.5 111 Z " /><path fill="#7fde30" stroke="#7fde30" stroke-width="1" opacity="0.2627450980392157" d="M 433.5 114 L 434 123.5 L 433 123.5 L 433.5 114 Z " /><path fill="#7fde30" stroke="#7fde30" stroke-width="1" opacity="0.2627450980392157" d="M 344.5 117 L 345 119.5 L 344 119.5 L 344.5 117 Z " /><path fill="#7fde30" stroke="#7fde30" stroke-width="1" opacity="0.2627450980392157" d="M 362.5 118 L 384.5 141 L 362.5 118 Z " /><path fill="#7fde30" stroke="#7fde30" stroke-width="1" opacity="0.2627450980392157" d="M 94.5 119 L 93.5 121 L 94.5 119 Z " /><path fill="#7fde30" stroke="#7fde30" stroke-width="1" opacity="0.2627450980392157" d="M 329.5 122 L 330 125.5 L 329 125.5 L 329.5 122 Z " /><path fill="#7fde30" stroke="#7fde30" stroke-width="1" opacity="0.2627450980392157" d="M 90.5 124 L 91 418.5 L 90 418.5 L 90.5 124 Z " /><path fill="#7fde30" stroke="#7fde30" stroke-width="1" opacity="0.2627450980392157" d="M 188.5 124 L 187.5 126 L 188.5 124 Z " /><path fill="#7fde30" stroke="#7fde30" stroke-width="1" opacity="0.2627450980392157" d="M 272.5 125 L 273.5 127 L 272.5 125 Z " /><path fill="#7fde30" stroke="#7fde30" stroke-width="1" opacity="0.2627450980392157" d="M 448.5 125 L 449 127.5 L 448 127.5 L 448.5 125 Z " /><path fill="#7fde30" stroke="#7fde30" stroke-width="1" opacity="0.2627450980392157" d="M 224.5 126 L 236 126.5 L 224.5 127 L 224.5 126 Z " /><path fill="#7fde30" stroke="#7fde30" stroke-width="1" opacity="0.2627450980392157" d="M 183.5 128 L 177.5 135 L 183.5 128 Z " /><path fill="#7fde30" stroke="#7fde30" stroke-width="1" opacity="0.2627450980392157" d="M 278.5 130 L 279.5 132 L 278.5 130 Z " /><path fill="#7fde30" stroke="#7fde30" stroke-width="1" opacity="0.2627450980392157" d="M 446.5 133 L 444.5 136 L 446.5 133 Z " /><path fill="#7fde30" stroke="#7fde30" stroke-width="1" opacity="0.2627450980392157" d="M 199.5 135 L 198.5 137 L 199.5 135 Z " /><path fill="#7fde30" stroke="#7fde30" stroke-width="1" opacity="0.2627450980392157" d="M 284.5 137 L 285.5 139 L 284.5 137 Z " /><path fill="#7fde30" stroke="#7fde30" stroke-width="1" opacity="0.2627450980392157" d="M 174.5 138 L 173.5 140 L 174.5 138 Z " /><path fill="#7fde30" stroke="#7fde30" stroke-width="1" opacity="0.2627450980392157" d="M 195.5 138 L 192.5 142 L 195.5 138 Z " /><path fill="#7fde30" stroke="#7fde30" stroke-width="1" opacity="0.2627450980392157" d="M 228.5 139 L 231 139.5 L 228.5 140 L 228.5 139 Z " /><path fill="#7fde30" stroke="#7fde30" stroke-width="1" opacity="0.2627450980392157" d="M 265.5 139 L 271.5 146 L 265.5 139 Z " /><path fill="#7fde30" stroke="#7fde30" stroke-width="1" opacity="0.2627450980392157" d="M 225.5 140 L 223.5 143 L 225.5 140 Z " /><path fill="#7fde30" stroke="#7fde30" stroke-width="1" opacity="0.2627450980392157" d="M 233.5 140 L 235.5 143 L 233.5 140 Z " /><path fill="#7fde30" stroke="#7fde30" stroke-width="1" opacity="0.2627450980392157" d="M 190.5 143 L 187.5 147 L 190.5 143 Z " /><path fill="#7fde30" stroke="#7fde30" stroke-width="1" opacity="0.2627450980392157" d="M 353.5 145 L 355.5 148 L 353.5 145 Z " /><path fill="#7fde30" stroke="#7fde30" stroke-width="1" opacity="0.2627450980392157" d="M 273.5 148 L 274.5 150 L 273.5 148 Z " /><path fill="#7fde30" stroke="#7fde30" stroke-width="1" opacity="0.2627450980392157" d="M 185.5 149 L 184.5 151 L 185.5 149 Z " /><path fill="#7fde30" stroke="#7fde30" stroke-width="1" opacity="0.2627450980392157" d="M 216.5 151 L 215.5 153 L 216.5 151 Z " /><path fill="#7fde30" stroke="#7fde30" stroke-width="1" opacity="0.2627450980392157" d="M 244.5 151 L 245.5 153 L 244.5 151 Z " /><path fill="#7fde30" stroke="#7fde30" stroke-width="1" opacity="0.2627450980392157" d="M 360.5 152 L 361.5 154 L 360.5 152 Z " /><path fill="#7fde30" stroke="#7fde30" stroke-width="1" opacity="0.2627450980392157" d="M 213.5 154 L 212.5 156 L 213.5 154 Z " /><path fill="#7fde30" stroke="#7fde30" stroke-width="1" opacity="0.2627450980392157" d="M 425.5 154 L 426.5 156 L 425.5 154 Z " /><path fill="#7fde30" stroke="#7fde30" stroke-width="1" opacity="0.2627450980392157" d="M 343.5 157 L 350.5 165 L 343.5 157 Z " /><path fill="#7fde30" stroke="#7fde30" stroke-width="1" opacity="0.2627450980392157" d="M 250.5 158 L 251 161.5 L 250 161.5 L 250.5 158 Z " /><path fill="#7fde30" stroke="#7fde30" stroke-width="1" opacity="0.2627450980392157" d="M 208.5 164 L 209 166.5 L 208 166.5 L 208.5 164 Z " /><path fill="#7fde30" stroke="#7fde30" stroke-width="1" opacity="0.2627450980392157" d="M 236.5 164 L 237.5 166 L 236.5 164 Z " /><path fill="#7fde30" stroke="#7fde30" stroke-width="1" opacity="0.2627450980392157" d="M 241.5 167 L 245 167.5 L 241.5 168 L 241.5 167 Z " /><path fill="#7fde30" stroke="#7fde30" stroke-width="1" opacity="0.2627450980392157" d="M 176.5 169 L 177 171.5 L 176 171.5 L 176.5 169 Z " /><path fill="#7fde30" stroke="#7fde30" stroke-width="1" opacity="0.2627450980392157" d="M 160.5 172 L 161 175.5 L 160 175.5 L 160.5 172 Z " /><path fill="#7fde30" stroke="#7fde30" stroke-width="1" opacity="0.2627450980392157" d="M 299.5 174 L 300 186.5 L 299 186.5 L 299.5 174 Z " /><path fill="#7fde30" stroke="#7fde30" stroke-width="1" opacity="0.2627450980392157" d="M 369 175 L 371 175.5 L 370 176.5 L 369.5 417 L 369 175 Z " /><path fill="#7fde30" stroke="#7fde30" stroke-width="1" opacity="0.2627450980392157" d="M 175.5 177 L 176 184.5 L 175 184.5 L 175.5 177 Z " /><path fill="#7fde30" stroke="#7fde30" stroke-width="1" opacity="0.2627450980392157" d="M 381.5 178 L 382 483.5 L 381 483.5 L 381.5 178 Z " /><path fill="#7fde30" stroke="#7fde30" stroke-width="1" opacity="0.2627450980392157" d="M 245.5 180 L 248.5 184 L 245.5 180 Z " /><path fill="#7fde30" stroke="#7fde30" stroke-width="1" opacity="0.2627450980392157" d="M 160.5 185 L 161 188.5 L 160 188.5 L 160.5 185 Z " /><path fill="#7fde30" stroke="#7fde30" stroke-width="1" opacity="0.2627450980392157" d="M 212.5 201 L 216 201.5 L 212.5 202 L 212.5 201 Z " /><path fill="#7fde30" stroke="#7fde30" stroke-width="1" opacity="0.2627450980392157" d="M 226.5 205 L 231 205.5 L 226.5 206 L 226.5 205 Z " /><path fill="#7fde30" stroke="#7fde30" stroke-width="1" opacity="0.2627450980392157" d="M 318.5 213 L 320.5 216 L 318.5 213 Z " /><path fill="#7fde30" stroke="#7fde30" stroke-width="1" opacity="0.2627450980392157" d="M 139.5 224 L 140.5 226 L 139.5 224 Z " /><path fill="#7fde30" stroke="#7fde30" stroke-width="1" opacity="0.2627450980392157" d="M 144.5 227 L 316 227.5 L 144.5 228 L 144.5 227 Z " /><path fill="#7fde30" stroke="#7fde30" stroke-width="1" opacity="0.2627450980392157" d="M 182.5 250 L 278 250.5 L 182.5 251 L 182.5 250 Z " /><path fill="#7fde30" stroke="#7fde30" stroke-width="1" opacity="0.2627450980392157" d="M 172.5 254 L 171.5 256 L 172.5 254 Z " /><path fill="#7fde30" stroke="#7fde30" stroke-width="1" opacity="0.2627450980392157" d="M 287.5 254 L 290.5 258 L 287.5 254 Z " /><path fill="#7fde30" stroke="#7fde30" stroke-width="1" opacity="0.2627450980392157" d="M 169.5 257 L 168.5 259 L 169.5 257 Z " /><path fill="#7fde30" stroke="#7fde30" stroke-width="1" opacity="0.2627450980392157" d="M 164.5 270 L 165 284.5 L 164 284.5 L 164.5 270 Z " /><path fill="#7fde30" stroke="#7fde30" stroke-width="1" opacity="0.2627450980392157" d="M 291.5 296 L 287.5 301 L 291.5 296 Z " /><path fill="#7fde30" stroke="#7fde30" stroke-width="1" opacity="0.2627450980392157" d="M 182.5 304 L 278 304.5 L 182.5 305 L 182.5 304 Z " /><path fill="#7fde30" stroke="#7fde30" stroke-width="1" opacity="0.2627450980392157" d="M 198.5 319 L 262 319.5 L 198.5 320 L 198.5 319 Z " /><path fill="#7fde30" stroke="#7fde30" stroke-width="1" opacity="0.2627450980392157" d="M 267.5 325 L 268 328.5 L 267 328.5 L 267.5 325 Z " /><path fill="#7fde30" stroke="#7fde30" stroke-width="1" opacity="0.2627450980392157" d="M 193.5 331 L 195.5 334 L 193.5 331 Z " /><path fill="#7fde30" stroke="#7fde30" stroke-width="1" opacity="0.2627450980392157" d="M 167.5 351 L 166.5 353 L 167.5 351 Z " /><path fill="#7fde30" stroke="#7fde30" stroke-width="1" opacity="0.2627450980392157" d="M 166.5 362 L 167.5 364 L 166.5 362 Z " /><path fill="#7fde30" stroke="#7fde30" stroke-width="1" opacity="0.2627450980392157" d="M 110.5 420 L 350 420.5 L 110.5 421 L 110.5 420 Z " /><path fill="#7fde30" stroke="#7fde30" stroke-width="1" opacity="0.2627450980392157" d="M 365.5 427 L 361.5 432 L 365.5 427 Z " /><path fill="#7fde30" stroke="#7fde30" stroke-width="1" opacity="0.2627450980392157" d="M 98.5 431 L 99.5 433 L 98.5 431 Z " /><path fill="#7fde30" stroke="#7fde30" stroke-width="1" opacity="0.2627450980392157" d="M 265.5 454 L 266.5 456 L 265.5 454 Z " /><path fill="#7fde30" stroke="#7fde30" stroke-width="1" opacity="0.2627450980392157" d="M 198.5 461 L 251 461.5 L 198.5 462 L 198.5 461 Z " /><path fill="#7fde30" stroke="#7fde30" stroke-width="1" opacity="0.2627450980392157" d="M 269.5 464 L 270 467.5 L 269 467.5 L 269.5 464 Z " /><path fill="#7fde30" stroke="#7fde30" stroke-width="1" opacity="0.2627450980392157" d="M 253.5 468 L 251.5 471 L 253.5 468 Z " /><path fill="#7fde30" stroke="#7fde30" stroke-width="1" opacity="0.2627450980392157" d="M 196.5 469 L 197.5 471 L 196.5 469 Z " /><path fill="#7fde30" stroke="#7fde30" stroke-width="1" opacity="0.2627450980392157" d="M 264.5 479 L 262.5 482 L 264.5 479 Z " /><path fill="#7fde30" stroke="#7fde30" stroke-width="1" opacity="0.2627450980392157" d="M 396.5 485 L 397 487.5 L 396 487.5 L 396.5 485 Z " /><path fill="#7fde30" stroke="#7fde30" stroke-width="1" opacity="0.2627450980392157" d="M 199.5 486 L 250 486.5 L 199.5 487 L 199.5 486 Z " /><path fill="#7fde30" stroke="#7fde30" stroke-width="1" opacity="0.2627450980392157" d="M 81.5 491 L 84.5 495 L 81.5 491 Z " /><path fill="#7fde30" stroke="#7fde30" stroke-width="1" opacity="0.2627450980392157" d="M 377.5 492 L 376.5 494 L 377.5 492 Z " /><path fill="#7fde30" stroke="#7fde30" stroke-width="1" opacity="0.2627450980392157" d="M 67.5 498 L 68.5 500 L 67.5 498 Z " /><path fill="#7fde30" stroke="#7fde30" stroke-width="1" opacity="0.2627450980392157" d="M 70.5 502 L 72.5 505 L 70.5 502 Z " /><path fill="#7fde30" stroke="#7fde30" stroke-width="1" opacity="0" d="M 0 0 L 86 0.5 Q 75.6 2.6 70 9.5 L 63 23.5 L 63 488.5 Q 65.5 499 72.5 505 L 82.5 511 L 86 511.5 L 0 512 L 0 0 Z " /><path fill="#7fde30" stroke="#7fde30" stroke-width="1" opacity="0" d="M 374.5 0 L 511.5 0 L 512 0.5 L 512 512 L 374 511.5 Q 386.4 508.9 392 499.5 L 397 487.5 L 397 178 Q 417.2 175.9 428 163.5 Q 429.3 156.3 425.5 154 L 420.5 152 L 403.5 161 L 394.5 163 L 383.5 163 Q 365.8 159.7 356 148.5 Q 349.2 141.3 346 130.5 L 345 111.5 Q 349.3 91.8 363.5 82 L 375.5 76 L 385.5 74 L 392.5 74 L 405.5 77 Q 415.3 81.3 422 88.5 L 422 90.5 L 389.5 123 L 372.5 107 L 366.5 107 L 363 109.5 L 361 115.5 L 362 118.5 L 384.5 141 L 391.5 142 L 430.5 104 L 433 110.5 L 433 127.5 L 432 129.5 L 436.5 136 L 442.5 137 L 447 133.5 L 449 127.5 L 449 110.5 Q 444.6 86 428.5 73 Q 416.4 61.8 397 59 L 397 24.5 Q 394.1 10.4 383.5 4 L 377.5 1 L 374.5 1 L 374.5 0 Z " /><path fill="#7fde30" stroke="#7fde30" stroke-width="1" opacity="0" d="M 91.5 15 L 368.5 15 Q 375.9 16.1 379 21.5 L 381 25.5 L 381 59 L 370.5 62 L 369 42.5 L 362.5 33 L 351.5 28 L 108.5 28 Q 98.8 29.8 94 36.5 L 90 46.5 L 90 92.5 L 94.5 98 L 99.5 99 L 104 97 L 106 92.5 L 106 47.5 L 107 45 L 109.5 44 L 350.5 44 L 354 47.5 L 354 69.5 L 345 77.5 Q 328.5 93 329 125.5 Q 333.3 151.7 350.5 165 L 354 167.5 L 354 416.5 L 351.5 420 L 108.5 420 L 106 417.5 L 106 124.5 L 101.5 119 Q 92.8 117.3 91 122.5 L 90 124.5 L 90 418.5 Q 92.1 428.4 99.5 433 L 106.5 436 L 352.5 436 Q 361.6 434.1 366 427.5 L 370 416.5 L 370 176 L 381 178 L 381 486.5 L 374.5 495 L 368.5 497 L 336.5 497 L 333 500.5 L 332 506.5 L 336 511.5 L 307.5 512 L 310 508.5 L 311 502.5 L 306.5 497 L 91.5 497 Q 83.4 495.6 80 489.5 L 79 487.5 L 79 24.5 L 85.5 17 L 91.5 15 Z M 221 111 Q 197 115 184 128 Q 165 143 160 173 L 161 195 L 167 212 L 144 212 L 142 213 L 138 218 L 139 225 L 145 228 L 316 228 L 320 226 L 322 223 L 321 216 L 317 212 L 293 212 L 297 202 L 300 187 L 300 175 L 296 157 Q 290 142 280 132 Q 271 122 258 116 L 240 111 L 221 111 Z M 183 250 L 173 254 L 166 262 L 164 271 L 164 285 L 166 294 L 168 297 Q 172 304 183 305 L 278 305 L 288 301 Q 293 297 295 290 L 295 266 L 291 258 Q 287 251 278 250 L 183 250 Z M 199 319 L 197 320 L 192 326 L 193 332 L 198 335 L 263 335 L 266 333 L 268 329 L 267 324 L 262 319 L 199 319 Z M 170 350 L 168 351 L 165 355 L 166 363 L 170 365 L 291 365 Q 297 364 295 355 L 291 350 L 170 350 Z M 196 446 L 189 449 Q 183 453 180 461 L 180 472 L 185 481 L 192 485 L 200 487 L 250 487 Q 251 485 256 486 L 263 482 Q 268 477 270 468 L 267 456 Q 263 448 254 446 L 196 446 Z " /><path fill="#7fde30" stroke="#7fde30" stroke-width="1" opacity="0" d="M 219.5 127 L 239.5 127 L 247.5 129 Q 263.6 134.9 273 147.5 L 282 164.5 L 284 173.5 L 284 188.5 Q 281.2 202.4 275 212 L 248 211.5 Q 255.3 206.3 253 191.5 Q 250.9 184.1 245.5 180 L 228.5 173 L 224 169.5 Q 223 165 225.5 164 L 233.5 163 L 241.5 168 L 244.5 168 L 250 163.5 L 251 158.5 L 249 154 L 237 148 Q 237.9 142.1 233.5 140 L 228.5 139 L 223 142.5 L 222 149 L 219.5 149 L 212 155.5 L 208 164.5 L 208 171.5 Q 209.6 180.4 216.5 184 L 237 193 L 238 198.5 L 234.5 204 Q 230.7 206.7 222.5 205 Q 219.5 201 212.5 201 L 207 205.5 L 206 209.5 L 207 212 L 185.5 212 L 185 210.5 L 179 200.5 L 176 189.5 L 176 172.5 L 180 158.5 L 191 142 L 203.5 133 L 219.5 127 Z " /><path fill="#7fde30" stroke="#7fde30" stroke-width="1" opacity="0" d="M 182.5 266 L 276.5 266 L 279 267 L 280 269.5 L 280 285.5 L 279 288 L 276.5 289 L 182.5 289 L 180 285.5 L 180 269.5 L 182.5 266 Z " /><path fill="#7fde30" stroke="#7fde30" stroke-width="1" opacity="0" d="M 197.5 462 L 251.5 462 L 254 464.5 Q 254.8 470.3 250.5 471 L 198.5 471 L 195 467.5 L 197.5 462 Z " /><path fill="#7fde30" stroke="#7fde30" stroke-width="1" opacity="0.7215686274509804" d="M 87.5 0 L 90 0.5 L 87.5 1 L 87.5 0 Z " /><path fill="#7fde30" stroke="#7fde30" stroke-width="1" opacity="0.7215686274509804" d="M 370.5 0 L 373 0.5 L 370.5 1 L 370.5 0 Z " /><path fill="#7fde30" stroke="#7fde30" stroke-width="1" opacity="0.7215686274509804" d="M 75.5 5 L 73.5 8 L 75.5 5 Z " /><path fill="#7fde30" stroke="#7fde30" stroke-width="1" opacity="0.7215686274509804" d="M 385.5 6 L 390.5 12 L 385.5 6 Z " /><path fill="#7fde30" stroke="#7fde30" stroke-width="1" opacity="0.7215686274509804" d="M 378.5 20 L 379.5 22 L 378.5 20 Z " /><path fill="#7fde30" stroke="#7fde30" stroke-width="1" opacity="0.7215686274509804" d="M 63.5 25 L 64 486.5 L 63 486.5 L 63.5 25 Z " /><path fill="#7fde30" stroke="#7fde30" stroke-width="1" opacity="0.7215686274509804" d="M 396.5 27 L 397 59.5 L 396 59.5 L 396.5 27 Z " /><path fill="#7fde30" stroke="#7fde30" stroke-width="1" opacity="0.7215686274509804" d="M 364.5 36 L 365.5 38 L 364.5 36 Z " /><path fill="#7fde30" stroke="#7fde30" stroke-width="1" opacity="0.7215686274509804" d="M 109.5 43 L 350 43.5 L 109.5 44 L 109.5 43 Z " /><path fill="#7fde30" stroke="#7fde30" stroke-width="1" opacity="0.7215686274509804" d="M 107.5 44 L 106.5 46 L 107.5 44 Z " /><path fill="#7fde30" stroke="#7fde30" stroke-width="1" opacity="0.7215686274509804" d="M 105.5 47 L 106 91.5 L 105 91.5 L 105.5 47 Z " /><path fill="#7fde30" stroke="#7fde30" stroke-width="1" opacity="0.7215686274509804" d="M 354.5 48 L 355 69.5 L 354 69.5 L 354.5 48 Z " /><path fill="#7fde30" stroke="#7fde30" stroke-width="1" opacity="0.7215686274509804" d="M 425.5 71 L 427.5 74 L 425.5 71 Z " /><path fill="#7fde30" stroke="#7fde30" stroke-width="1" opacity="0.7215686274509804" d="M 351.5 72 L 350.5 74 L 351.5 72 Z " /><path fill="#7fde30" stroke="#7fde30" stroke-width="1" opacity="0.7215686274509804" d="M 344.5 79 L 342.5 82 L 344.5 79 Z " /><path fill="#7fde30" stroke="#7fde30" stroke-width="1" opacity="0.7215686274509804" d="M 435.5 81 L 436.5 83 L 435.5 81 Z " /><path fill="#7fde30" stroke="#7fde30" stroke-width="1" opacity="0.7215686274509804" d="M 362.5 82 L 361.5 84 L 362.5 82 Z " /><path fill="#7fde30" stroke="#7fde30" stroke-width="1" opacity="0.7215686274509804" d="M 340.5 84 L 339.5 86 L 340.5 84 Z " /><path fill="#7fde30" stroke="#7fde30" stroke-width="1" opacity="0.7215686274509804" d="M 419.5 85 L 421.5 88 L 419.5 85 Z " /><path fill="#7fde30" stroke="#7fde30" stroke-width="1" opacity="0.7215686274509804" d="M 422.5 90 L 389.5 124 L 373 108.5 L 388.5 123 L 422.5 90 Z " /><path fill="#7fde30" stroke="#7fde30" stroke-width="1" opacity="0.7215686274509804" d="M 353.5 91 L 352.5 93 L 353.5 91 Z " /><path fill="#7fde30" stroke="#7fde30" stroke-width="1" opacity="0.7215686274509804" d="M 92.5 95 L 94.5 98 L 92.5 95 Z " /><path fill="#7fde30" stroke="#7fde30" stroke-width="1" opacity="0.7215686274509804" d="M 430.5 103 Q 432.8 102.3 432 104.5 L 430.5 104 L 394 139.5 L 430.5 103 Z " /><path fill="#7fde30" stroke="#7fde30" stroke-width="1" opacity="0.7215686274509804" d="M 367.5 107 L 372 107.5 L 367.5 108 L 367.5 107 Z " /><path fill="#7fde30" stroke="#7fde30" stroke-width="1" opacity="0.7215686274509804" d="M 222.5 111 L 228 111.5 L 222.5 112 L 222.5 111 Z " /><path fill="#7fde30" stroke="#7fde30" stroke-width="1" opacity="0.7215686274509804" d="M 232.5 111 L 237 111.5 L 232.5 112 L 232.5 111 Z " /><path fill="#7fde30" stroke="#7fde30" stroke-width="1" opacity="0.7215686274509804" d="M 433.5 111 L 434 113.5 L 433 113.5 L 433.5 111 Z " /><path fill="#7fde30" stroke="#7fde30" stroke-width="1" opacity="0.7215686274509804" d="M 344.5 113 L 345 116.5 L 344 116.5 L 344.5 113 Z " /><path fill="#7fde30" stroke="#7fde30" stroke-width="1" opacity="0.7215686274509804" d="M 448.5 113 L 449 124.5 L 448 124.5 L 448.5 113 Z " /><path fill="#7fde30" stroke="#7fde30" stroke-width="1" opacity="0.7215686274509804" d="M 329.5 115 L 330 121.5 L 329 121.5 L 329.5 115 Z " /><path fill="#7fde30" stroke="#7fde30" stroke-width="1" opacity="0.7215686274509804" d="M 102.5 120 L 103.5 122 L 102.5 120 Z " /><path fill="#7fde30" stroke="#7fde30" stroke-width="1" opacity="0.7215686274509804" d="M 344.5 120 L 345 124.5 L 344 124.5 L 344.5 120 Z " /><path fill="#7fde30" stroke="#7fde30" stroke-width="1" opacity="0.7215686274509804" d="M 269.5 123 L 270.5 125 L 269.5 123 Z " /><path fill="#7fde30" stroke="#7fde30" stroke-width="1" opacity="0.7215686274509804" d="M 105.5 126 L 106 416.5 L 105 416.5 L 105.5 126 Z " /><path fill="#7fde30" stroke="#7fde30" stroke-width="1" opacity="0.7215686274509804" d="M 186.5 126 L 185.5 128 L 186.5 126 Z " /><path fill="#7fde30" stroke="#7fde30" stroke-width="1" opacity="0.7215686274509804" d="M 221.5 126 L 224 126.5 L 221.5 127 L 221.5 126 Z " /><path fill="#7fde30" stroke="#7fde30" stroke-width="1" opacity="0.7215686274509804" d="M 236.5 126 L 239 126.5 L 236.5 127 L 236.5 126 Z " /><path fill="#7fde30" stroke="#7fde30" stroke-width="1" opacity="0.7215686274509804" d="M 274.5 127 L 276.5 130 L 274.5 127 Z " /><path fill="#7fde30" stroke="#7fde30" stroke-width="1" opacity="0.7215686274509804" d="M 434.5 133 L 436.5 136 L 434.5 133 Z " /><path fill="#7fde30" stroke="#7fde30" stroke-width="1" opacity="0.7215686274509804" d="M 259.5 134 L 260.5 136 L 259.5 134 Z " /><path fill="#7fde30" stroke="#7fde30" stroke-width="1" opacity="0.7215686274509804" d="M 281.5 134 L 283.5 137 L 281.5 134 Z " /><path fill="#7fde30" stroke="#7fde30" stroke-width="1" opacity="0.7215686274509804" d="M 176.5 136 L 175.5 138 L 176.5 136 Z " /><path fill="#7fde30" stroke="#7fde30" stroke-width="1" opacity="0.7215686274509804" d="M 197.5 136 L 196.5 138 L 197.5 136 Z " /><path fill="#7fde30" stroke="#7fde30" stroke-width="1" opacity="0.7215686274509804" d="M 263.5 137 L 264.5 139 L 263.5 137 Z " /><path fill="#7fde30" stroke="#7fde30" stroke-width="1" opacity="0.7215686274509804" d="M 173.5 140 L 172.5 142 L 173.5 140 Z " /><path fill="#7fde30" stroke="#7fde30" stroke-width="1" opacity="0.7215686274509804" d="M 171.5 143 L 170.5 145 L 171.5 143 Z " /><path fill="#7fde30" stroke="#7fde30" stroke-width="1" opacity="0.7215686274509804" d="M 272.5 146 L 273.5 148 L 272.5 146 Z " /><path fill="#7fde30" stroke="#7fde30" stroke-width="1" opacity="0.7215686274509804" d="M 356.5 149 L 358.5 152 L 356.5 149 Z " /><path fill="#7fde30" stroke="#7fde30" stroke-width="1" opacity="0.7215686274509804" d="M 341.5 154 L 342.5 156 L 341.5 154 Z " /><path fill="#7fde30" stroke="#7fde30" stroke-width="1" opacity="0.7215686274509804" d="M 362.5 154 L 363.5 156 L 362.5 154 Z " /><path fill="#7fde30" stroke="#7fde30" stroke-width="1" opacity="0.7215686274509804" d="M 225.5 163 L 224.5 165 L 225.5 163 Z " /><path fill="#7fde30" stroke="#7fde30" stroke-width="1" opacity="0.7215686274509804" d="M 249.5 163 L 246.5 167 L 249.5 163 Z " /><path fill="#7fde30" stroke="#7fde30" stroke-width="1" opacity="0.7215686274509804" d="M 386.5 163 L 393 163.5 L 386.5 164 L 386.5 163 Z " /><path fill="#7fde30" stroke="#7fde30" stroke-width="1" opacity="0.7215686274509804" d="M 351.5 164 L 352.5 166 L 351.5 164 Z " /><path fill="#7fde30" stroke="#7fde30" stroke-width="1" opacity="0.7215686274509804" d="M 426.5 164 L 424.5 167 L 426.5 164 Z " /><path fill="#7fde30" stroke="#7fde30" stroke-width="1" opacity="0.7215686274509804" d="M 208.5 167 L 209 169.5 L 208 169.5 L 208.5 167 Z " /><path fill="#7fde30" stroke="#7fde30" stroke-width="1" opacity="0.7215686274509804" d="M 354.5 167 L 355 415.5 L 354 415.5 L 354.5 167 Z " /><path fill="#7fde30" stroke="#7fde30" stroke-width="1" opacity="0.7215686274509804" d="M 298.5 169 L 299 171.5 L 298 171.5 L 298.5 169 Z " /><path fill="#7fde30" stroke="#7fde30" stroke-width="1" opacity="0.7215686274509804" d="M 175.5 173 L 176 176.5 L 175 176.5 L 175.5 173 Z " /><path fill="#7fde30" stroke="#7fde30" stroke-width="1" opacity="0.7215686274509804" d="M 284.5 175 L 285 185.5 L 284 185.5 L 284.5 175 Z " /><path fill="#7fde30" stroke="#7fde30" stroke-width="1" opacity="0.7215686274509804" d="M 160.5 176 L 161 184.5 L 160 184.5 L 160.5 176 Z " /><path fill="#7fde30" stroke="#7fde30" stroke-width="1" opacity="0.7215686274509804" d="M 379.5 177 L 382 177.5 L 379.5 178 L 379.5 177 Z " /><path fill="#7fde30" stroke="#7fde30" stroke-width="1" opacity="0.7215686274509804" d="M 397.5 177 L 399 177.5 L 397 178 L 396.5 485 L 396 178.5 L 397.5 177 Z " /><path fill="#7fde30" stroke="#7fde30" stroke-width="1" opacity="0.7215686274509804" d="M 211.5 178 L 215.5 183 L 211.5 178 Z " /><path fill="#7fde30" stroke="#7fde30" stroke-width="1" opacity="0.7215686274509804" d="M 243.5 179 L 244.5 181 L 243.5 179 Z " /><path fill="#7fde30" stroke="#7fde30" stroke-width="1" opacity="0.7215686274509804" d="M 248.5 184 L 249.5 186 L 248.5 184 Z " /><path fill="#7fde30" stroke="#7fde30" stroke-width="1" opacity="0.7215686274509804" d="M 175.5 185 L 176 187.5 L 175 187.5 L 175.5 185 Z " /><path fill="#7fde30" stroke="#7fde30" stroke-width="1" opacity="0.7215686274509804" d="M 236.5 202 L 235.5 204 L 236.5 202 Z " /><path fill="#7fde30" stroke="#7fde30" stroke-width="1" opacity="0.7215686274509804" d="M 209.5 203 L 208.5 205 L 209.5 203 Z " /><path fill="#7fde30" stroke="#7fde30" stroke-width="1" opacity="0.7215686274509804" d="M 223.5 205 L 226 205.5 L 223.5 206 L 223.5 205 Z " /><path fill="#7fde30" stroke="#7fde30" stroke-width="1" opacity="0.7215686274509804" d="M 207.5 211 L 208 213 L 185 212.5 L 206.5 212 L 207.5 211 Z " /><path fill="#7fde30" stroke="#7fde30" stroke-width="1" opacity="0.7215686274509804" d="M 144.5 212 L 168 212.5 L 144.5 213 L 144.5 212 Z " /><path fill="#7fde30" stroke="#7fde30" stroke-width="1" opacity="0.7215686274509804" d="M 247.5 212 L 275 212.5 L 247.5 213 L 247.5 212 Z " /><path fill="#7fde30" stroke="#7fde30" stroke-width="1" opacity="0.7215686274509804" d="M 292.5 212 L 316 212.5 L 292.5 213 L 292.5 212 Z " /><path fill="#7fde30" stroke="#7fde30" stroke-width="1" opacity="0.7215686274509804" d="M 140.5 214 L 139.5 216 L 140.5 214 Z " /><path fill="#7fde30" stroke="#7fde30" stroke-width="1" opacity="0.7215686274509804" d="M 138.5 217 L 139 221.5 L 138 221.5 L 138.5 217 Z " /><path fill="#7fde30" stroke="#7fde30" stroke-width="1" opacity="0.7215686274509804" d="M 321.5 218 L 322 220.5 L 321 220.5 L 321.5 218 Z " /><path fill="#7fde30" stroke="#7fde30" stroke-width="1" opacity="0.7215686274509804" d="M 285.5 253 L 286.5 255 L 285.5 253 Z " /><path fill="#7fde30" stroke="#7fde30" stroke-width="1" opacity="0.7215686274509804" d="M 183.5 265 L 277 265.5 L 183.5 266 L 183.5 265 Z " /><path fill="#7fde30" stroke="#7fde30" stroke-width="1" opacity="0.7215686274509804" d="M 181.5 266 L 180.5 268 L 181.5 266 Z " /><path fill="#7fde30" stroke="#7fde30" stroke-width="1" opacity="0.7215686274509804" d="M 179.5 270 L 180 284.5 L 179 284.5 L 179.5 270 Z " /><path fill="#7fde30" stroke="#7fde30" stroke-width="1" opacity="0.7215686274509804" d="M 180.5 287 L 181.5 289 L 180.5 287 Z " /><path fill="#7fde30" stroke="#7fde30" stroke-width="1" opacity="0.7215686274509804" d="M 279.5 287 L 278.5 289 L 279.5 287 Z " /><path fill="#7fde30" stroke="#7fde30" stroke-width="1" opacity="0.7215686274509804" d="M 183.5 289 L 277 289.5 L 183.5 290 L 183.5 289 Z " /><path fill="#7fde30" stroke="#7fde30" stroke-width="1" opacity="0.7215686274509804" d="M 169.5 297 L 171.5 300 L 169.5 297 Z " /><path fill="#7fde30" stroke="#7fde30" stroke-width="1" opacity="0.7215686274509804" d="M 195.5 321 L 193.5 324 L 195.5 321 Z " /><path fill="#7fde30" stroke="#7fde30" stroke-width="1" opacity="0.7215686274509804" d="M 264.5 321 L 265.5 323 L 264.5 321 Z " /><path fill="#7fde30" stroke="#7fde30" stroke-width="1" opacity="0.7215686274509804" d="M 198.5 334 L 261 334.5 L 198.5 335 L 198.5 334 Z " /><path fill="#7fde30" stroke="#7fde30" stroke-width="1" opacity="0.7215686274509804" d="M 106.5 418 L 107.5 420 L 106.5 418 Z " /><path fill="#7fde30" stroke="#7fde30" stroke-width="1" opacity="0.7215686274509804" d="M 353.5 418 L 352.5 420 L 353.5 418 Z " /><path fill="#7fde30" stroke="#7fde30" stroke-width="1" opacity="0.7215686274509804" d="M 95.5 428 L 97.5 431 L 95.5 428 Z " /><path fill="#7fde30" stroke="#7fde30" stroke-width="1" opacity="0.7215686274509804" d="M 108.5 435 L 352 435.5 L 108.5 436 L 108.5 435 Z " /><path fill="#7fde30" stroke="#7fde30" stroke-width="1" opacity="0.7215686274509804" d="M 196.5 446 L 253 446.5 L 196.5 447 L 196.5 446 Z " /><path fill="#7fde30" stroke="#7fde30" stroke-width="1" opacity="0.7215686274509804" d="M 187.5 450 L 184.5 454 L 187.5 450 Z " /><path fill="#7fde30" stroke="#7fde30" stroke-width="1" opacity="0.7215686274509804" d="M 261.5 450 L 264.5 454 L 261.5 450 Z " /><path fill="#7fde30" stroke="#7fde30" stroke-width="1" opacity="0.7215686274509804" d="M 197.5 461 L 195.5 464 L 197.5 461 Z " /><path fill="#7fde30" stroke="#7fde30" stroke-width="1" opacity="0.7215686274509804" d="M 200.5 471 L 250 471.5 L 200.5 472 L 200.5 471 Z " /><path fill="#7fde30" stroke="#7fde30" stroke-width="1" opacity="0.7215686274509804" d="M 183.5 477 L 184.5 479 L 183.5 477 Z " /><path fill="#7fde30" stroke="#7fde30" stroke-width="1" opacity="0.7215686274509804" d="M 187.5 481 L 188.5 483 L 187.5 481 Z " /><path fill="#7fde30" stroke="#7fde30" stroke-width="1" opacity="0.7215686274509804" d="M 379.5 490 L 378.5 492 L 379.5 490 Z " /><path fill="#7fde30" stroke="#7fde30" stroke-width="1" opacity="0.7215686274509804" d="M 307.5 498 L 309.5 501 L 307.5 498 Z " /><path fill="#7fde30" stroke="#7fde30" stroke-width="1" opacity="0.7215686274509804" d="M 335.5 498 L 334.5 500 L 335.5 498 Z " /><path fill="#7fde30" stroke="#7fde30" stroke-width="1" opacity="0.7215686274509804" d="M 69.5 500 L 70.5 502 L 69.5 500 Z " /><path fill="#7fde30" stroke="#7fde30" stroke-width="1" opacity="0.7215686274509804" d="M 390.5 500 L 385.5 506 L 390.5 500 Z " /><path fill="#7fde30" stroke="#7fde30" stroke-width="1" opacity="0.7215686274509804" d="M 310.5 503 L 311 505.5 L 310 505.5 L 310.5 503 Z " /><path fill="#7fde30" stroke="#7fde30" stroke-width="1" opacity="0.7215686274509804" d="M 74.5 505 L 75.5 507 L 74.5 505 Z " /><path fill="#7fde30" stroke="#7fde30" stroke-width="1" opacity="0.7215686274509804" d="M 309.5 508 L 307.5 511 L 309.5 508 Z " /><path fill="#7fde30" stroke="#7fde30" stroke-width="1" opacity="0.7215686274509804" d="M 334.5 509 L 335.5 511 L 334.5 509 Z " /><path fill="#7fde30" stroke="#7fde30" stroke-width="1" opacity="0.7215686274509804" d="M 87.5 511 L 90 511.5 L 87.5 512 L 87.5 511 Z " /><path fill="#7fde30" stroke="#7fde30" stroke-width="1" opacity="0.7215686274509804" d="M 370.5 511 L 373 511.5 L 370.5 512 L 370.5 511 Z " /><path fill="#7fde30" stroke="#7fde30" stroke-width="1" opacity="0.996078431372549" d="M 90.5 0 L 369.5 0 Q 385 2.5 392 13.5 L 396 23.5 L 396 60 Q 421.7 63.6 435 80.5 Q 442.1 88.9 446 100.5 L 448 108.5 L 448 128.5 L 447 132.5 L 444.5 135 L 437.5 136 Q 432.1 134.4 433 126.5 L 434 125.5 L 434 111.5 L 432 103 L 430.5 103 L 392.5 141 L 388.5 142 L 385.5 141 L 363 118.5 L 362 112.5 L 364.5 109 L 372.5 108 L 389.5 124 L 423 89.5 L 419.5 85 Q 412 78.5 401.5 75 Q 393.2 72.3 380.5 74 Q 361.7 78.7 352 92.5 L 345 107.5 L 344 124.5 Q 347.3 142.2 358.5 152 L 375.5 162 L 392.5 164 L 405.5 161 L 418.5 153 L 422.5 153 L 427 156.5 L 428 161.5 L 422.5 168 L 411.5 174 L 397.5 177 L 396 178.5 L 396 488.5 Q 393.1 501.1 383.5 507 L 369.5 512 L 339.5 512 L 333 507.5 Q 331.5 499.5 336.5 498 L 339.5 497 L 371.5 497 L 380 490.5 L 382 485.5 L 382 177 L 369 175 L 369 418.5 Q 367.1 427.6 360.5 432 L 354.5 435 L 105.5 435 Q 98.1 432.4 94 426.5 L 91 419.5 L 91 124.5 L 94.5 120 L 99.5 119 L 105 123.5 L 105 416.5 L 107.5 420 L 109.5 421 L 350.5 421 L 354 418.5 L 355 415.5 L 355 167.5 L 343 156.5 Q 334.7 146.7 331 132.5 L 330 127.5 L 330 109.5 Q 334.6 86.6 349.5 74 L 355 69.5 L 355 48.5 L 351.5 44 L 349.5 43 L 109.5 43 L 106 45.5 L 105 47.5 L 105 93.5 L 102.5 97 L 95.5 98 L 91 93.5 L 91 44.5 Q 93.1 37.1 98.5 33 L 106.5 29 L 352.5 29 Q 360.1 30.4 364 35.5 L 369 45.5 L 369.5 63 Q 374.3 59.6 382 60 L 382 26.5 Q 380.5 20 375.5 17 L 371.5 15 L 88.5 15 L 80 21.5 L 78 25.5 L 78 486.5 L 84.5 495 L 88.5 497 L 304.5 497 L 310 501.5 Q 311.5 509.5 306.5 511 L 303.5 512 L 90.5 512 L 79.5 509 L 71 502.5 L 64 489.5 L 64 22.5 Q 66.6 13.6 72.5 8 L 79.5 3 L 90.5 0 Z " /><path fill="#7fde30" stroke="#7fde30" stroke-width="1" opacity="0.996078431372549" d="M 228.5 111 L 241.5 112 L 255.5 116 Q 270.7 122.3 281 133.5 Q 291.9 145.1 297 162.5 L 299 172.5 L 299 189.5 L 296 202.5 L 292 213 L 317.5 213 L 321 216.5 Q 321.8 222.6 320 225 L 316.5 227 L 143.5 227 L 140 224.5 L 139 216.5 L 142.5 213 L 168 213 L 161 190.5 L 161 170.5 Q 166.5 143 184.5 128 Q 193 120.5 204.5 116 L 213.5 113 L 227.5 112 L 228.5 111 Z M 222 126 Q 207 129 198 136 Q 180 148 175 174 Q 174 199 185 212 L 186 213 L 208 213 L 207 211 Q 207 204 212 202 L 217 202 L 224 206 Q 232 207 236 204 Q 239 202 238 195 L 235 191 L 218 184 Q 211 180 209 173 Q 208 162 212 157 Q 214 151 221 150 L 223 144 L 228 140 L 234 141 Q 237 143 237 149 Q 243 150 248 154 L 250 158 L 250 163 L 246 167 L 241 167 L 233 162 L 226 163 Q 222 164 223 170 L 226 172 L 246 181 Q 251 186 253 195 Q 253 207 247 213 L 275 213 L 281 202 L 285 186 Q 285 161 274 148 Q 265 135 250 129 L 239 126 L 222 126 Z " /><path fill="#7fde30" stroke="#7fde30" stroke-width="1" opacity="0.996078431372549" d="M 180.5 251 L 278.5 251 Q 286.8 252.7 291 258.5 L 295 268.5 L 295 286.5 Q 293.5 296.5 286.5 301 L 279.5 304 L 180.5 304 Q 172.2 301.8 168 295.5 L 165 287.5 L 165 267.5 Q 166.8 258.3 173.5 254 L 180.5 251 Z M 184 265 L 182 266 L 179 271 Q 177 281 180 288 L 184 290 L 277 290 L 280 288 L 280 269 L 279 266 L 277 265 L 184 265 Z " /><path fill="#7fde30" stroke="#7fde30" stroke-width="1" opacity="0.996078431372549" d="M 197.5 320 L 261.5 320 L 267 324.5 Q 268 331 264.5 333 L 262.5 334 L 197.5 334 L 194 331.5 L 193 324.5 L 197.5 320 Z " /><path fill="#7fde30" stroke="#7fde30" stroke-width="1" opacity="0.996078431372549" d="M 171.5 350 L 288.5 350 L 293 352 L 295 357.5 L 293 363 L 288.5 365 L 171.5 365 L 166 361.5 L 165 356.5 L 168.5 351 L 171.5 350 Z " /><path fill="#7fde30" stroke="#7fde30" stroke-width="1" opacity="0.996078431372549" d="M 194.5 447 L 254.5 447 Q 262.4 449.1 266 455.5 Q 270.1 459.9 269 469.5 Q 267.3 477.8 261.5 482 L 252.5 486 L 197.5 486 Q 189.7 484.3 185 479.5 Q 179.7 474.3 180 463.5 Q 182 453.5 189.5 449 L 194.5 447 Z M 198 461 Q 194 462 195 469 L 201 472 L 250 472 L 252 471 L 255 467 L 254 464 L 252 461 L 198 461 Z " /></svg>